<svg width="372" height="360" viewBox="0 0 372 360" fill="none" xmlns="http://www.w3.org/2000/svg">
<path d="M9.8125 23.1738C9.8125 23.7051 9.68945 24.1523 9.44336 24.5156C9.19727 24.8789 8.86133 25.1543 8.43555 25.3418C8.01367 25.5254 7.53711 25.6172 7.00586 25.6172C6.47461 25.6172 5.99609 25.5254 5.57031 25.3418C5.14453 25.1543 4.80859 24.8789 4.5625 24.5156C4.31641 24.1523 4.19336 23.7051 4.19336 23.1738C4.19336 22.8223 4.26172 22.5039 4.39844 22.2188C4.53516 21.9297 4.72852 21.6816 4.97852 21.4746C5.23242 21.2637 5.5293 21.1016 5.86914 20.9883C6.21289 20.875 6.58789 20.8184 6.99414 20.8184C7.5332 20.8184 8.01562 20.918 8.44141 21.1172C8.86719 21.3164 9.20117 21.5918 9.44336 21.9434C9.68945 22.2949 9.8125 22.7051 9.8125 23.1738ZM8.39453 23.1035C8.39453 22.8184 8.33594 22.5684 8.21875 22.3535C8.10156 22.1387 7.9375 21.9727 7.72656 21.8555C7.51562 21.7383 7.27148 21.6797 6.99414 21.6797C6.71289 21.6797 6.46875 21.7383 6.26172 21.8555C6.05469 21.9727 5.89258 22.1387 5.77539 22.3535C5.66211 22.5684 5.60547 22.8184 5.60547 23.1035C5.60547 23.3926 5.66211 23.6426 5.77539 23.8535C5.88867 24.0605 6.05078 24.2188 6.26172 24.3281C6.47266 24.4375 6.7207 24.4922 7.00586 24.4922C7.29102 24.4922 7.53711 24.4375 7.74414 24.3281C7.95117 24.2188 8.11133 24.0605 8.22461 23.8535C8.33789 23.6426 8.39453 23.3926 8.39453 23.1035ZM9.61914 19.2129C9.61914 19.6387 9.50586 20.0176 9.2793 20.3496C9.05664 20.6816 8.74805 20.9434 8.35352 21.1348C7.95898 21.3223 7.50977 21.416 7.00586 21.416C6.49805 21.416 6.04492 21.3223 5.64648 21.1348C5.25195 20.9434 4.94141 20.6816 4.71484 20.3496C4.49219 20.0176 4.38086 19.6387 4.38086 19.2129C4.38086 18.7051 4.49219 18.2773 4.71484 17.9297C4.94141 17.5781 5.25195 17.3105 5.64648 17.127C6.04102 16.9434 6.49219 16.8516 7 16.8516C7.50781 16.8516 7.95898 16.9434 8.35352 17.127C8.74805 17.3105 9.05664 17.5781 9.2793 17.9297C9.50586 18.2773 9.61914 18.7051 9.61914 19.2129ZM8.20703 19.2598C8.20703 19.0059 8.15625 18.7832 8.05469 18.5918C7.95703 18.3965 7.81836 18.2441 7.63867 18.1348C7.45898 18.0254 7.24609 17.9707 7 17.9707C6.75391 17.9707 6.54102 18.0234 6.36133 18.1289C6.18164 18.2344 6.04297 18.3828 5.94531 18.5742C5.84766 18.7656 5.79883 18.9941 5.79883 19.2598C5.79883 19.5215 5.84766 19.75 5.94531 19.9453C6.04297 20.1367 6.18164 20.2871 6.36133 20.3965C6.54492 20.5059 6.75977 20.5605 7.00586 20.5605C7.25195 20.5605 7.46484 20.5059 7.64453 20.3965C7.82422 20.2871 7.96289 20.1367 8.06055 19.9453C8.1582 19.75 8.20703 19.5215 8.20703 19.2598Z" fill="#806C61"/>
<path d="M9.90039 59.9688V60.7422L6.49023 68.5H5.00195L8.40625 61.0938H3.98828V59.9688H9.90039Z" fill="#806C61"/>
<path d="M8.5 102.916H8.67578V104.07H8.57617C8.07227 104.07 7.63672 104.148 7.26953 104.305C6.90625 104.461 6.60742 104.676 6.37305 104.949C6.13867 105.223 5.96289 105.543 5.8457 105.91C5.73242 106.273 5.67578 106.66 5.67578 107.07V108.412C5.67578 108.752 5.71289 109.053 5.78711 109.314C5.86133 109.572 5.96484 109.789 6.09766 109.965C6.23438 110.137 6.39062 110.268 6.56641 110.357C6.74219 110.447 6.93164 110.492 7.13477 110.492C7.3457 110.492 7.53711 110.449 7.70898 110.363C7.88086 110.273 8.02734 110.15 8.14844 109.994C8.26953 109.838 8.36133 109.652 8.42383 109.438C8.48633 109.223 8.51758 108.988 8.51758 108.734C8.51758 108.492 8.48633 108.266 8.42383 108.055C8.36523 107.84 8.27734 107.652 8.16016 107.492C8.04297 107.328 7.89648 107.201 7.7207 107.111C7.54883 107.018 7.34961 106.971 7.12305 106.971C6.8418 106.971 6.58594 107.037 6.35547 107.17C6.12891 107.303 5.94531 107.477 5.80469 107.691C5.66797 107.902 5.59375 108.127 5.58203 108.365L5.04297 108.189C5.07422 107.826 5.1543 107.5 5.2832 107.211C5.41602 106.922 5.58984 106.676 5.80469 106.473C6.01953 106.27 6.26758 106.115 6.54883 106.01C6.83398 105.9 7.14648 105.846 7.48633 105.846C7.90039 105.846 8.25977 105.924 8.56445 106.08C8.86914 106.236 9.12109 106.449 9.32031 106.719C9.52344 106.984 9.67383 107.289 9.77148 107.633C9.87305 107.973 9.92383 108.328 9.92383 108.699C9.92383 109.109 9.86133 109.492 9.73633 109.848C9.61133 110.199 9.42773 110.508 9.18555 110.773C8.94727 111.039 8.65625 111.246 8.3125 111.395C7.97266 111.543 7.58594 111.617 7.15234 111.617C6.69531 111.617 6.28711 111.529 5.92773 111.354C5.57227 111.178 5.26953 110.936 5.01953 110.627C4.77344 110.318 4.58594 109.963 4.45703 109.561C4.32812 109.158 4.26367 108.732 4.26367 108.283V107.697C4.26367 107.049 4.3457 106.438 4.50977 105.863C4.67383 105.285 4.92578 104.775 5.26562 104.334C5.60938 103.893 6.04883 103.547 6.58398 103.297C7.11914 103.043 7.75781 102.916 8.5 102.916Z" fill="#806C61"/>
<path d="M5.7168 150.533L4.5918 150.258L5.05469 145.969H9.6543V147.164H6.22656L5.99219 149.256C6.125 149.178 6.30859 149.102 6.54297 149.027C6.77734 148.949 7.04492 148.91 7.3457 148.91C7.74805 148.91 8.10742 148.977 8.42383 149.109C8.74414 149.238 9.01562 149.428 9.23828 149.678C9.46094 149.924 9.63086 150.225 9.74805 150.58C9.86523 150.932 9.92383 151.328 9.92383 151.77C9.92383 152.164 9.86523 152.533 9.74805 152.877C9.63477 153.221 9.46289 153.523 9.23242 153.785C9.00195 154.047 8.71094 154.252 8.35938 154.4C8.01172 154.545 7.59961 154.617 7.12305 154.617C6.76758 154.617 6.42578 154.566 6.09766 154.465C5.77344 154.359 5.48242 154.205 5.22461 154.002C4.9668 153.795 4.75977 153.541 4.60352 153.24C4.44727 152.936 4.35742 152.586 4.33398 152.191H5.7168C5.75195 152.469 5.82812 152.705 5.94531 152.9C6.06641 153.092 6.22656 153.238 6.42578 153.34C6.625 153.441 6.85547 153.492 7.11719 153.492C7.35547 153.492 7.56055 153.451 7.73242 153.369C7.9043 153.283 8.04688 153.162 8.16016 153.006C8.27734 152.846 8.36328 152.658 8.41797 152.443C8.47656 152.229 8.50586 151.99 8.50586 151.729C8.50586 151.479 8.47266 151.25 8.40625 151.043C8.34375 150.836 8.24805 150.656 8.11914 150.504C7.99414 150.352 7.83594 150.234 7.64453 150.152C7.45312 150.066 7.23242 150.023 6.98242 150.023C6.64648 150.023 6.38867 150.072 6.20898 150.17C6.0332 150.268 5.86914 150.389 5.7168 150.533Z" fill="#806C61"/>
<path d="M10.1113 194.459V195.584H3.95898L3.91211 194.734L7.5918 188.969H8.72266L7.49805 191.066L5.38281 194.459H10.1113ZM9.04492 188.969V197.5H7.63281V188.969H9.04492Z" fill="#806C61"/>
<path d="M5.89258 235.596H6.73633C7.06445 235.596 7.33594 235.539 7.55078 235.426C7.76953 235.312 7.93164 235.156 8.03711 234.957C8.14258 234.758 8.19531 234.529 8.19531 234.271C8.19531 234.002 8.14648 233.771 8.04883 233.58C7.95508 233.385 7.81055 233.234 7.61523 233.129C7.42383 233.023 7.17969 232.971 6.88281 232.971C6.63281 232.971 6.40625 233.021 6.20312 233.123C6.00391 233.221 5.8457 233.361 5.72852 233.545C5.61133 233.725 5.55273 233.939 5.55273 234.189H4.13477C4.13477 233.736 4.25391 233.334 4.49219 232.982C4.73047 232.631 5.05469 232.355 5.46484 232.156C5.87891 231.953 6.34375 231.852 6.85938 231.852C7.41016 231.852 7.89062 231.943 8.30078 232.127C8.71484 232.307 9.03711 232.576 9.26758 232.936C9.49805 233.295 9.61328 233.74 9.61328 234.271C9.61328 234.514 9.55664 234.76 9.44336 235.01C9.33008 235.26 9.16211 235.488 8.93945 235.695C8.7168 235.898 8.43945 236.064 8.10742 236.193C7.77539 236.318 7.39062 236.381 6.95312 236.381H5.89258V235.596ZM5.89258 236.697V235.924H6.95312C7.45312 235.924 7.87891 235.982 8.23047 236.1C8.58594 236.217 8.875 236.379 9.09766 236.586C9.32031 236.789 9.48242 237.021 9.58398 237.283C9.68945 237.545 9.74219 237.822 9.74219 238.115C9.74219 238.514 9.66992 238.869 9.52539 239.182C9.38477 239.49 9.18359 239.752 8.92188 239.967C8.66016 240.182 8.35352 240.344 8.00195 240.453C7.6543 240.562 7.27539 240.617 6.86523 240.617C6.49805 240.617 6.14648 240.566 5.81055 240.465C5.47461 240.363 5.17383 240.213 4.9082 240.014C4.64258 239.811 4.43164 239.559 4.27539 239.258C4.12305 238.953 4.04688 238.602 4.04688 238.203H5.45898C5.45898 238.457 5.51758 238.682 5.63477 238.877C5.75586 239.068 5.92383 239.219 6.13867 239.328C6.35742 239.438 6.60742 239.492 6.88867 239.492C7.18555 239.492 7.44141 239.439 7.65625 239.334C7.87109 239.229 8.03516 239.072 8.14844 238.865C8.26562 238.658 8.32422 238.408 8.32422 238.115C8.32422 237.783 8.25977 237.514 8.13086 237.307C8.00195 237.1 7.81836 236.947 7.58008 236.85C7.3418 236.748 7.06055 236.697 6.73633 236.697H5.89258Z" fill="#806C61"/>
<path d="M9.95312 282.375V283.5H4.23438V282.533L7.01172 279.504C7.31641 279.16 7.55664 278.863 7.73242 278.613C7.9082 278.363 8.03125 278.139 8.10156 277.939C8.17578 277.736 8.21289 277.539 8.21289 277.348C8.21289 277.078 8.16211 276.842 8.06055 276.639C7.96289 276.432 7.81836 276.27 7.62695 276.152C7.43555 276.031 7.20312 275.971 6.92969 275.971C6.61328 275.971 6.34766 276.039 6.13281 276.176C5.91797 276.312 5.75586 276.502 5.64648 276.744C5.53711 276.982 5.48242 277.256 5.48242 277.564H4.07031C4.07031 277.068 4.18359 276.615 4.41016 276.205C4.63672 275.791 4.96484 275.463 5.39453 275.221C5.82422 274.975 6.3418 274.852 6.94727 274.852C7.51758 274.852 8.00195 274.947 8.40039 275.139C8.79883 275.33 9.10156 275.602 9.30859 275.953C9.51953 276.305 9.625 276.721 9.625 277.201C9.625 277.467 9.58203 277.73 9.49609 277.992C9.41016 278.254 9.28711 278.516 9.12695 278.777C8.9707 279.035 8.78516 279.295 8.57031 279.557C8.35547 279.814 8.11914 280.076 7.86133 280.342L6.01562 282.375H9.95312Z" fill="#806C61"/>
<path d="M8.08984 317.939V326.5H6.67773V319.615L4.58594 320.324V319.158L7.91992 317.939H8.08984Z" fill="#806C61"/>
<path d="M14 4C14 1.79086 15.7909 0 18 0H57V43H14V4Z" fill="#806C61"/>
<rect width="43" height="43" transform="translate(57)" fill="#C6BAAA"/>
<rect width="43" height="43" transform="translate(100)" fill="#806C61"/>
<rect width="43" height="43" transform="translate(143)" fill="#C6BAAA"/>
<rect width="43" height="43" transform="translate(186)" fill="#806C61"/>
<rect width="43" height="43" transform="translate(229)" fill="#C6BAAA"/>
<rect width="43" height="43" transform="translate(272)" fill="#806C61"/>
<path d="M315 0H354C356.209 0 358 1.79086 358 4V43H315V0Z" fill="#C6BAAA"/>
<rect width="43" height="43" transform="translate(14 43)" fill="#C6BAAA"/>
<rect width="43" height="43" transform="translate(57 43)" fill="#806C61"/>
<rect width="43" height="43" transform="translate(100 43)" fill="#C6BAAA"/>
<rect width="43" height="43" transform="translate(143 43)" fill="#806C61"/>
<rect width="43" height="43" transform="translate(186 43)" fill="#C6BAAA"/>
<rect width="43" height="43" transform="translate(229 43)" fill="#806C61"/>
<rect width="43" height="43" transform="translate(272 43)" fill="#C6BAAA"/>
<rect width="43" height="43" transform="translate(315 43)" fill="#806C61"/>
<rect width="43" height="43" transform="translate(14 86)" fill="#806C61"/>
<rect width="43" height="43" transform="translate(57 86)" fill="#C6BAAA"/>
<rect width="43" height="43" transform="translate(100 86)" fill="#806C61"/>
<rect width="43" height="43" transform="translate(143 86)" fill="#C6BAAA"/>
<rect width="43" height="43" transform="translate(186 86)" fill="#806C61"/>
<rect width="43" height="43" transform="translate(229 86)" fill="#C6BAAA"/>
<rect width="43" height="43" transform="translate(272 86)" fill="#806C61"/>
<rect width="43" height="43" transform="translate(315 86)" fill="#C6BAAA"/>
<rect width="43" height="43" transform="translate(14 129)" fill="#C6BAAA"/>
<rect width="43" height="43" transform="translate(57 129)" fill="#806C61"/>
<rect width="43" height="43" transform="translate(100 129)" fill="#C6BAAA"/>
<rect width="43" height="43" transform="translate(143 129)" fill="#806C61"/>
<rect width="43" height="43" transform="translate(186 129)" fill="#C6BAAA"/>
<rect width="43" height="43" transform="translate(229 129)" fill="#806C61"/>
<rect width="43" height="43" transform="translate(272 129)" fill="#C6BAAA"/>
<rect width="43" height="43" transform="translate(315 129)" fill="#806C61"/>
<rect width="43" height="43" transform="translate(14 172)" fill="#806C61"/>
<rect width="43" height="43" transform="translate(57 172)" fill="#C6BAAA"/>
<rect width="43" height="43" transform="translate(100 172)" fill="#806C61"/>
<rect width="43" height="43" transform="translate(143 172)" fill="#C6BAAA"/>
<rect width="43" height="43" transform="translate(186 172)" fill="#806C61"/>
<rect width="43" height="43" transform="translate(229 172)" fill="#C6BAAA"/>
<rect width="43" height="43" transform="translate(272 172)" fill="#806C61"/>
<rect width="43" height="43" transform="translate(315 172)" fill="#C6BAAA"/>
<rect width="43" height="43" transform="translate(14 215)" fill="#C6BAAA"/>
<rect width="43" height="43" transform="translate(57 215)" fill="#806C61"/>
<rect width="43" height="43" transform="translate(100 215)" fill="#C6BAAA"/>
<rect width="43" height="43" transform="translate(143 215)" fill="#806C61"/>
<rect width="43" height="43" transform="translate(186 215)" fill="#C6BAAA"/>
<rect width="43" height="43" transform="translate(229 215)" fill="#806C61"/>
<rect width="43" height="43" transform="translate(272 215)" fill="#C6BAAA"/>
<rect width="43" height="43" transform="translate(315 215)" fill="#806C61"/>
<rect width="43" height="43" transform="translate(14 258)" fill="#806C61"/>
<path fill-rule="evenodd" clip-rule="evenodd" d="M28.8191 292.038H42.9006C43.4181 292.038 43.7929 291.485 43.5966 290.931C43.088 289.174 42.5749 287.416 42.0618 285.658C41.5487 283.9 41.0355 282.142 40.5269 280.384C40.509 280.366 40.4912 280.33 40.4912 280.294V280.259C40.4912 280.098 40.6161 279.973 40.7589 279.955H41.8297C41.9547 279.955 42.0439 279.938 42.151 279.902C42.5436 279.777 42.8113 279.42 42.8113 278.992V276.654C42.8113 276.315 42.6507 276.029 42.4008 275.851C42.2402 275.743 42.0439 275.672 41.8476 275.672H40.0807C39.7059 275.672 39.3668 275.369 39.3668 274.994C39.3847 274.833 39.4382 274.69 39.5453 274.566C39.581 274.512 39.6345 274.458 39.7059 274.423C40.9731 273.334 41.7762 271.728 41.7762 269.925C41.7762 266.659 39.1348 264 35.8688 264C32.5849 264 29.9435 266.659 29.9257 269.925C29.9257 271.728 30.7288 273.334 31.9959 274.423C32.0227 274.45 32.0495 274.472 32.0762 274.494C32.103 274.516 32.1298 274.539 32.1566 274.566C32.2458 274.673 32.3172 274.833 32.3172 274.994C32.335 275.369 31.9781 275.672 31.6033 275.672H29.8364C29.6223 275.672 29.4438 275.743 29.2832 275.851C29.0333 276.029 28.8727 276.332 28.8727 276.654V278.992C28.8727 279.402 29.1582 279.777 29.533 279.902C29.6401 279.938 29.7472 279.955 29.8543 279.955H30.8716C31.0322 279.955 31.175 280.098 31.175 280.259V280.312C31.175 280.333 31.1688 280.348 31.1638 280.36C31.1602 280.369 31.1571 280.376 31.1571 280.384C30.6485 282.142 30.1353 283.904 29.6222 285.667C29.1091 287.429 28.596 289.191 28.0874 290.949C27.9268 291.485 28.3016 292.038 28.8191 292.038ZM25.3034 296H46.4166C46.5951 296 46.72 295.857 46.72 295.697V293.555C46.72 293.394 46.5772 293.252 46.4166 293.252H25.3034C25.1428 293.252 25 293.394 25 293.555V295.697C25 295.857 25.1428 296 25.3034 296Z" fill="white"/>
<rect width="43" height="43" transform="translate(57 258)" fill="#C6BAAA"/>
<path fill-rule="evenodd" clip-rule="evenodd" d="M71.8191 292.038H85.9006C86.4181 292.038 86.7929 291.485 86.5966 290.931C86.088 289.174 85.5749 287.416 85.0618 285.658C84.5487 283.9 84.0355 282.142 83.5269 280.384C83.509 280.366 83.4912 280.33 83.4912 280.294V280.259C83.4912 280.098 83.6161 279.973 83.7589 279.955H84.8297C84.9547 279.955 85.0439 279.938 85.151 279.902C85.5436 279.777 85.8113 279.42 85.8113 278.992V276.654C85.8113 276.315 85.6507 276.029 85.4008 275.851C85.2402 275.743 85.0439 275.672 84.8476 275.672H83.0807C82.7059 275.672 82.3668 275.369 82.3668 274.994C82.3847 274.833 82.4382 274.69 82.5453 274.566C82.581 274.512 82.6345 274.458 82.7059 274.423C83.9731 273.334 84.7762 271.728 84.7762 269.925C84.7762 266.659 82.1348 264 78.8688 264C75.5849 264 72.9435 266.659 72.9257 269.925C72.9257 271.728 73.7288 273.334 74.9959 274.423C75.0227 274.45 75.0495 274.472 75.0762 274.494C75.103 274.516 75.1298 274.539 75.1566 274.566C75.2458 274.673 75.3172 274.833 75.3172 274.994C75.335 275.369 74.9781 275.672 74.6033 275.672H72.8364C72.6223 275.672 72.4438 275.743 72.2832 275.851C72.0333 276.029 71.8727 276.332 71.8727 276.654V278.992C71.8727 279.402 72.1582 279.777 72.533 279.902C72.6401 279.938 72.7472 279.955 72.8543 279.955H73.8716C74.0322 279.955 74.175 280.098 74.175 280.259V280.312C74.175 280.333 74.1688 280.348 74.1638 280.36C74.1602 280.369 74.1571 280.376 74.1571 280.384C73.6485 282.142 73.1353 283.904 72.6222 285.667C72.1091 287.429 71.596 289.191 71.0874 290.949C70.9268 291.485 71.3016 292.038 71.8191 292.038ZM68.3034 296H89.4166C89.5951 296 89.72 295.857 89.72 295.697V293.555C89.72 293.394 89.5772 293.252 89.4166 293.252H68.3034C68.1428 293.252 68 293.394 68 293.555V295.697C68 295.857 68.1428 296 68.3034 296Z" fill="white"/>
<rect width="43" height="43" transform="translate(100 258)" fill="#806C61"/>
<path fill-rule="evenodd" clip-rule="evenodd" d="M114.819 292.038H128.901C129.418 292.038 129.793 291.485 129.597 290.931C129.088 289.174 128.575 287.416 128.062 285.658C127.549 283.9 127.036 282.142 126.527 280.384C126.509 280.366 126.491 280.33 126.491 280.294V280.259C126.491 280.098 126.616 279.973 126.759 279.955H127.83C127.955 279.955 128.044 279.938 128.151 279.902C128.544 279.777 128.811 279.42 128.811 278.992V276.654C128.811 276.315 128.651 276.029 128.401 275.851C128.24 275.743 128.044 275.672 127.848 275.672H126.081C125.706 275.672 125.367 275.369 125.367 274.994C125.385 274.833 125.438 274.69 125.545 274.566C125.581 274.512 125.635 274.458 125.706 274.423C126.973 273.334 127.776 271.728 127.776 269.925C127.776 266.659 125.135 264 121.869 264C118.585 264 115.944 266.659 115.926 269.925C115.926 271.728 116.729 273.334 117.996 274.423C118.023 274.45 118.049 274.472 118.076 274.494C118.103 274.516 118.13 274.539 118.157 274.566C118.246 274.673 118.317 274.833 118.317 274.994C118.335 275.369 117.978 275.672 117.603 275.672H115.836C115.622 275.672 115.444 275.743 115.283 275.851C115.033 276.029 114.873 276.332 114.873 276.654V278.992C114.873 279.402 115.158 279.777 115.533 279.902C115.64 279.938 115.747 279.955 115.854 279.955H116.872C117.032 279.955 117.175 280.098 117.175 280.259V280.312C117.175 280.333 117.169 280.348 117.164 280.36C117.16 280.369 117.157 280.376 117.157 280.384C116.648 282.142 116.135 283.904 115.622 285.667C115.109 287.429 114.596 289.191 114.087 290.949C113.927 291.485 114.302 292.038 114.819 292.038ZM111.303 296H132.417C132.595 296 132.72 295.857 132.72 295.697V293.555C132.72 293.394 132.577 293.252 132.417 293.252H111.303C111.143 293.252 111 293.394 111 293.555V295.697C111 295.857 111.143 296 111.303 296Z" fill="white"/>
<rect width="43" height="43" transform="translate(143 258)" fill="#C6BAAA"/>
<path fill-rule="evenodd" clip-rule="evenodd" d="M157.819 292.038H171.901C172.418 292.038 172.793 291.485 172.597 290.931C172.088 289.174 171.575 287.416 171.062 285.658C170.549 283.9 170.036 282.142 169.527 280.384C169.509 280.366 169.491 280.33 169.491 280.294V280.259C169.491 280.098 169.616 279.973 169.759 279.955H170.83C170.955 279.955 171.044 279.938 171.151 279.902C171.544 279.777 171.811 279.42 171.811 278.992V276.654C171.811 276.315 171.651 276.029 171.401 275.851C171.24 275.743 171.044 275.672 170.848 275.672H169.081C168.706 275.672 168.367 275.369 168.367 274.994C168.385 274.833 168.438 274.69 168.545 274.566C168.581 274.512 168.635 274.458 168.706 274.423C169.973 273.334 170.776 271.728 170.776 269.925C170.776 266.659 168.135 264 164.869 264C161.585 264 158.944 266.659 158.926 269.925C158.926 271.728 159.729 273.334 160.996 274.423C161.023 274.45 161.049 274.472 161.076 274.494C161.103 274.516 161.13 274.539 161.157 274.566C161.246 274.673 161.317 274.833 161.317 274.994C161.335 275.369 160.978 275.672 160.603 275.672H158.836C158.622 275.672 158.444 275.743 158.283 275.851C158.033 276.029 157.873 276.332 157.873 276.654V278.992C157.873 279.402 158.158 279.777 158.533 279.902C158.64 279.938 158.747 279.955 158.854 279.955H159.872C160.032 279.955 160.175 280.098 160.175 280.259V280.312C160.175 280.333 160.169 280.348 160.164 280.36C160.16 280.369 160.157 280.376 160.157 280.384C159.648 282.142 159.135 283.904 158.622 285.667C158.109 287.429 157.596 289.191 157.087 290.949C156.927 291.485 157.302 292.038 157.819 292.038ZM154.303 296H175.417C175.595 296 175.72 295.857 175.72 295.697V293.555C175.72 293.394 175.577 293.252 175.417 293.252H154.303C154.143 293.252 154 293.394 154 293.555V295.697C154 295.857 154.143 296 154.303 296Z" fill="white"/>
<rect width="43" height="43" transform="translate(186 258)" fill="#806C61"/>
<path fill-rule="evenodd" clip-rule="evenodd" d="M200.819 292.038H214.901C215.418 292.038 215.793 291.485 215.597 290.931C215.088 289.174 214.575 287.416 214.062 285.658C213.549 283.9 213.036 282.142 212.527 280.384C212.509 280.366 212.491 280.33 212.491 280.294V280.259C212.491 280.098 212.616 279.973 212.759 279.955H213.83C213.955 279.955 214.044 279.938 214.151 279.902C214.544 279.777 214.811 279.42 214.811 278.992V276.654C214.811 276.315 214.651 276.029 214.401 275.851C214.24 275.743 214.044 275.672 213.848 275.672H212.081C211.706 275.672 211.367 275.369 211.367 274.994C211.385 274.833 211.438 274.69 211.545 274.566C211.581 274.512 211.635 274.458 211.706 274.423C212.973 273.334 213.776 271.728 213.776 269.925C213.776 266.659 211.135 264 207.869 264C204.585 264 201.944 266.659 201.926 269.925C201.926 271.728 202.729 273.334 203.996 274.423C204.023 274.45 204.049 274.472 204.076 274.494C204.103 274.516 204.13 274.539 204.157 274.566C204.246 274.673 204.317 274.833 204.317 274.994C204.335 275.369 203.978 275.672 203.603 275.672H201.836C201.622 275.672 201.444 275.743 201.283 275.851C201.033 276.029 200.873 276.332 200.873 276.654V278.992C200.873 279.402 201.158 279.777 201.533 279.902C201.64 279.938 201.747 279.955 201.854 279.955H202.872C203.032 279.955 203.175 280.098 203.175 280.259V280.312C203.175 280.333 203.169 280.348 203.164 280.36C203.16 280.369 203.157 280.376 203.157 280.384C202.648 282.142 202.135 283.904 201.622 285.667C201.109 287.429 200.596 289.191 200.087 290.949C199.927 291.485 200.302 292.038 200.819 292.038ZM197.303 296H218.417C218.595 296 218.72 295.857 218.72 295.697V293.555C218.72 293.394 218.577 293.252 218.417 293.252H197.303C197.143 293.252 197 293.394 197 293.555V295.697C197 295.857 197.143 296 197.303 296Z" fill="white"/>
<rect width="43" height="43" transform="translate(229 258)" fill="#C6BAAA"/>
<path fill-rule="evenodd" clip-rule="evenodd" d="M243.819 292.038H257.901C258.418 292.038 258.793 291.485 258.597 290.931C258.088 289.174 257.575 287.416 257.062 285.658C256.549 283.9 256.036 282.142 255.527 280.384C255.509 280.366 255.491 280.33 255.491 280.294V280.259C255.491 280.098 255.616 279.973 255.759 279.955H256.83C256.955 279.955 257.044 279.938 257.151 279.902C257.544 279.777 257.811 279.42 257.811 278.992V276.654C257.811 276.315 257.651 276.029 257.401 275.851C257.24 275.743 257.044 275.672 256.848 275.672H255.081C254.706 275.672 254.367 275.369 254.367 274.994C254.385 274.833 254.438 274.69 254.545 274.566C254.581 274.512 254.635 274.458 254.706 274.423C255.973 273.334 256.776 271.728 256.776 269.925C256.776 266.659 254.135 264 250.869 264C247.585 264 244.944 266.659 244.926 269.925C244.926 271.728 245.729 273.334 246.996 274.423C247.023 274.45 247.049 274.472 247.076 274.494C247.103 274.516 247.13 274.539 247.157 274.566C247.246 274.673 247.317 274.833 247.317 274.994C247.335 275.369 246.978 275.672 246.603 275.672H244.836C244.622 275.672 244.444 275.743 244.283 275.851C244.033 276.029 243.873 276.332 243.873 276.654V278.992C243.873 279.402 244.158 279.777 244.533 279.902C244.64 279.938 244.747 279.955 244.854 279.955H245.872C246.032 279.955 246.175 280.098 246.175 280.259V280.312C246.175 280.333 246.169 280.348 246.164 280.36C246.16 280.369 246.157 280.376 246.157 280.384C245.648 282.142 245.135 283.904 244.622 285.667C244.109 287.429 243.596 289.191 243.087 290.949C242.927 291.485 243.302 292.038 243.819 292.038ZM240.303 296H261.417C261.595 296 261.72 295.857 261.72 295.697V293.555C261.72 293.394 261.577 293.252 261.417 293.252H240.303C240.143 293.252 240 293.394 240 293.555V295.697C240 295.857 240.143 296 240.303 296Z" fill="white"/>
<rect width="43" height="43" transform="translate(272 258)" fill="#806C61"/>
<path fill-rule="evenodd" clip-rule="evenodd" d="M286.819 292.038H300.901C301.418 292.038 301.793 291.485 301.597 290.931C301.088 289.174 300.575 287.416 300.062 285.658C299.549 283.9 299.036 282.142 298.527 280.384C298.509 280.366 298.491 280.33 298.491 280.294V280.259C298.491 280.098 298.616 279.973 298.759 279.955H299.83C299.955 279.955 300.044 279.938 300.151 279.902C300.544 279.777 300.811 279.42 300.811 278.992V276.654C300.811 276.315 300.651 276.029 300.401 275.851C300.24 275.743 300.044 275.672 299.848 275.672H298.081C297.706 275.672 297.367 275.369 297.367 274.994C297.385 274.833 297.438 274.69 297.545 274.566C297.581 274.512 297.635 274.458 297.706 274.423C298.973 273.334 299.776 271.728 299.776 269.925C299.776 266.659 297.135 264 293.869 264C290.585 264 287.944 266.659 287.926 269.925C287.926 271.728 288.729 273.334 289.996 274.423C290.023 274.45 290.049 274.472 290.076 274.494C290.103 274.516 290.13 274.539 290.157 274.566C290.246 274.673 290.317 274.833 290.317 274.994C290.335 275.369 289.978 275.672 289.603 275.672H287.836C287.622 275.672 287.444 275.743 287.283 275.851C287.033 276.029 286.873 276.332 286.873 276.654V278.992C286.873 279.402 287.158 279.777 287.533 279.902C287.64 279.938 287.747 279.955 287.854 279.955H288.872C289.032 279.955 289.175 280.098 289.175 280.259V280.312C289.175 280.333 289.169 280.348 289.164 280.36C289.16 280.369 289.157 280.376 289.157 280.384C288.648 282.142 288.135 283.904 287.622 285.667C287.109 287.429 286.596 289.191 286.087 290.949C285.927 291.485 286.302 292.038 286.819 292.038ZM283.303 296H304.417C304.595 296 304.72 295.857 304.72 295.697V293.555C304.72 293.394 304.577 293.252 304.417 293.252H283.303C283.143 293.252 283 293.394 283 293.555V295.697C283 295.857 283.143 296 283.303 296Z" fill="white"/>
<rect width="43" height="43" transform="translate(315 258)" fill="#C6BAAA"/>
<path fill-rule="evenodd" clip-rule="evenodd" d="M329.819 292.038H343.901C344.418 292.038 344.793 291.485 344.597 290.931C344.088 289.174 343.575 287.416 343.062 285.658C342.549 283.9 342.036 282.142 341.527 280.384C341.509 280.366 341.491 280.33 341.491 280.294V280.259C341.491 280.098 341.616 279.973 341.759 279.955H342.83C342.955 279.955 343.044 279.938 343.151 279.902C343.544 279.777 343.811 279.42 343.811 278.992V276.654C343.811 276.315 343.651 276.029 343.401 275.851C343.24 275.743 343.044 275.672 342.848 275.672H341.081C340.706 275.672 340.367 275.369 340.367 274.994C340.385 274.833 340.438 274.69 340.545 274.566C340.581 274.512 340.635 274.458 340.706 274.423C341.973 273.334 342.776 271.728 342.776 269.925C342.776 266.659 340.135 264 336.869 264C333.585 264 330.944 266.659 330.926 269.925C330.926 271.728 331.729 273.334 332.996 274.423C333.023 274.45 333.049 274.472 333.076 274.494C333.103 274.516 333.13 274.539 333.157 274.566C333.246 274.673 333.317 274.833 333.317 274.994C333.335 275.369 332.978 275.672 332.603 275.672H330.836C330.622 275.672 330.444 275.743 330.283 275.851C330.033 276.029 329.873 276.332 329.873 276.654V278.992C329.873 279.402 330.158 279.777 330.533 279.902C330.64 279.938 330.747 279.955 330.854 279.955H331.872C332.032 279.955 332.175 280.098 332.175 280.259V280.312C332.175 280.333 332.169 280.348 332.164 280.36C332.16 280.369 332.157 280.376 332.157 280.384C331.648 282.142 331.135 283.904 330.622 285.667C330.109 287.429 329.596 289.191 329.087 290.949C328.927 291.485 329.302 292.038 329.819 292.038ZM326.303 296H347.417C347.595 296 347.72 295.857 347.72 295.697V293.555C347.72 293.394 347.577 293.252 347.417 293.252H326.303C326.143 293.252 326 293.394 326 293.555V295.697C326 295.857 326.143 296 326.303 296Z" fill="white"/>
<path d="M14 301H57V344H18C15.7909 344 14 342.209 14 340V301Z" fill="#C6BAAA"/>
<path fill-rule="evenodd" clip-rule="evenodd" d="M46.6843 308.857C46.7022 308.785 46.72 308.714 46.72 308.625C46.7022 308.286 46.4345 308 46.0954 308H42.5973C42.3296 308 42.1154 308.161 42.0084 308.393L41.9548 308.607L41.5979 310.106V310.124C41.5265 310.356 41.3302 310.534 41.0982 310.57H40.0809C39.8667 310.534 39.7061 310.392 39.6168 310.195C39.5811 310.124 39.5633 310.035 39.5633 309.963V309.945V309.927V309.892V308.66V308.625C39.5455 308.286 39.2599 308 38.9208 308H32.7992C32.4601 308 32.1746 308.286 32.1746 308.625V308.66V309.892V309.927V309.945V309.963C32.1746 310.052 32.1567 310.124 32.121 310.195C32.0318 310.392 31.8533 310.534 31.657 310.57H30.6397C30.3898 310.534 30.2114 310.356 30.14 310.124V310.106L29.7652 308.607L29.7117 308.393C29.6224 308.161 29.3904 308 29.1405 308H25.6425C25.2856 308 25.0178 308.286 25 308.625C25 308.656 25.0022 308.685 25.0043 308.712C25.0081 308.764 25.0116 308.81 25 308.857C25.1606 310.106 25.4283 311.355 25.7853 312.569L27.1774 317.281L27.6949 319.369C27.7663 319.636 27.9805 319.833 28.2482 319.851H28.2839H29.8723C30.2649 319.851 30.5505 320.243 30.4791 320.654L27.8912 335.431C27.8377 335.752 28.0876 336.038 28.4088 336.038H43.2755C43.5968 336.038 43.8466 335.752 43.7931 335.431L41.2052 320.654C41.1339 320.243 41.4194 319.851 41.812 319.851H43.4004H43.4361C43.7038 319.815 43.918 319.619 43.9894 319.369L44.507 317.281L45.899 312.569C46.2738 311.355 46.5237 310.106 46.6843 308.857ZM25.3034 340H46.4166C46.5951 340 46.72 339.857 46.72 339.697V337.555C46.72 337.394 46.5772 337.252 46.4166 337.252H25.3034C25.1428 337.252 25 337.394 25 337.555V339.697C25 339.857 25.1428 340 25.3034 340Z" fill="white"/>
<rect width="43" height="43" transform="translate(57 301)" fill="#806C61"/>
<rect width="43" height="43" transform="translate(100 301)" fill="#C6BAAA"/>
<rect width="43" height="43" transform="translate(143 301)" fill="#806C61"/>
<rect width="43" height="43" transform="translate(186 301)" fill="#C6BAAA"/>
<path fill-rule="evenodd" clip-rule="evenodd" d="M214.766 313.929C215.567 313.929 216.351 314.071 217.104 314.321C220.227 315.768 222.251 319.179 222.204 323.036C222.204 326.125 220.901 328.857 218.877 330.571V330.607C218.203 331.125 217.638 331.821 217.245 332.643C217.23 332.67 217.218 332.701 217.206 332.732C217.194 332.763 217.183 332.795 217.167 332.821C217.104 332.964 217.041 333.107 216.994 333.25C216.987 333.277 216.979 333.299 216.971 333.321C216.963 333.344 216.955 333.366 216.947 333.393C216.853 333.625 216.634 333.786 216.382 333.786H197.805C197.554 333.786 197.335 333.607 197.241 333.357V333.339C197.233 333.321 197.229 333.308 197.225 333.295C197.221 333.281 197.217 333.268 197.209 333.25C197.162 333.107 197.099 332.946 197.037 332.804C197.021 332.75 196.989 332.679 196.958 332.625C196.566 331.804 196.001 331.107 195.326 330.589V330.554C193.318 328.839 192 326.107 192 323.018C192 319.179 194.008 315.768 197.162 314.339C197.899 314.071 198.684 313.946 199.484 313.946C199.861 313.946 200.253 313.982 200.614 314.036C201.634 314.196 202.591 314.554 203.454 315.107C203.548 315.214 203.673 315.286 203.815 315.339C203.925 315.393 204.034 315.411 204.16 315.411C204.599 315.411 204.96 315.125 205.133 314.696L205.18 314.571L205.807 312.643L206.027 312.018L206.058 311.946C206.058 311.938 206.062 311.929 206.066 311.92C206.07 311.911 206.074 311.902 206.074 311.893V311.875L206.121 311.732V311.696V311.625C206.105 311.554 206.09 311.482 206.058 311.429C205.98 311.286 205.839 311.196 205.682 311.196H205.619L205.572 311.214C205.556 311.214 205.525 311.214 205.509 311.232C205.494 311.232 205.478 311.232 205.462 311.25C205.454 311.25 205.45 311.254 205.446 311.259C205.443 311.263 205.439 311.268 205.431 311.268L202.92 312.357H202.889C202.826 312.357 202.779 312.321 202.763 312.268V312.25V312.232V308.339C202.763 308.268 202.826 308.214 202.889 308.214H202.905L202.952 308.232L205.525 309.339C205.556 309.357 205.588 309.375 205.619 309.375C205.666 309.393 205.697 309.393 205.745 309.393C205.996 309.393 206.184 309.143 206.168 308.857V308.821V308.786C206.168 308.765 206.163 308.75 206.158 308.738C206.155 308.729 206.153 308.722 206.153 308.714C206.153 308.679 206.137 308.643 206.121 308.625L205.305 306.196V306.179C205.29 306.125 205.305 306.089 205.321 306.054C205.321 306.036 205.337 306.018 205.337 306.018C205.337 306.018 205.337 306 205.352 306.018C205.368 306 205.384 306 205.415 306H208.82H208.851H208.867C208.875 306 208.879 306.004 208.883 306.009C208.887 306.013 208.89 306.018 208.898 306.018C208.945 306.054 208.977 306.107 208.961 306.161L208.945 306.214L208.098 308.625C208.09 308.643 208.086 308.656 208.082 308.67C208.078 308.683 208.075 308.696 208.067 308.714C208.067 308.735 208.061 308.75 208.057 308.762C208.054 308.771 208.051 308.778 208.051 308.786C208.035 308.786 208.035 308.804 208.035 308.821V308.857C208.02 309.143 208.208 309.393 208.459 309.393C208.506 309.393 208.537 309.393 208.584 309.375C208.616 309.375 208.647 309.357 208.679 309.339L211.252 308.232L211.315 308.214H211.33H211.362H211.377C211.385 308.214 211.389 308.219 211.393 308.223C211.397 308.228 211.401 308.232 211.409 308.232C211.456 308.268 211.471 308.304 211.471 308.357V312.196V312.214V312.232C211.471 312.25 211.471 312.268 211.456 312.286L211.44 312.304C211.432 312.304 211.428 312.308 211.424 312.312C211.42 312.317 211.417 312.321 211.409 312.321C211.399 312.332 211.396 312.336 211.391 312.338C211.388 312.339 211.384 312.339 211.377 312.339H211.33C211.322 312.339 211.318 312.335 211.315 312.33C211.311 312.326 211.307 312.321 211.299 312.321L208.804 311.232C208.795 311.222 208.791 311.217 208.786 311.216C208.783 311.214 208.779 311.214 208.773 311.214C208.765 311.214 208.757 311.21 208.749 311.205C208.741 311.201 208.734 311.196 208.726 311.196C208.718 311.196 208.706 311.192 208.694 311.187C208.683 311.183 208.671 311.179 208.663 311.179L208.616 311.161H208.553C208.396 311.161 208.255 311.25 208.177 311.393C208.145 311.446 208.114 311.518 208.114 311.589V311.661V311.696L208.161 311.839V311.857C208.161 311.866 208.165 311.875 208.169 311.884C208.173 311.893 208.177 311.902 208.177 311.911L208.208 311.982L208.412 312.607L209.071 314.554L209.118 314.679C209.275 315.089 209.651 315.393 210.091 315.393C210.201 315.393 210.326 315.375 210.436 315.321C210.577 315.286 210.687 315.196 210.797 315.089C211.66 314.554 212.617 314.179 213.637 314.018C213.998 313.964 214.39 313.929 214.766 313.929ZM199.798 318.652C199.802 318.647 199.806 318.643 199.814 318.643C199.782 318.625 199.751 318.607 199.672 318.625C199.625 318.625 199.563 318.607 199.516 318.589L199.421 318.571C199.374 318.554 199.312 318.536 199.265 318.536C199.241 318.536 199.214 318.531 199.186 318.527C199.159 318.522 199.131 318.518 199.108 318.518H199.076C198.982 318.5 198.888 318.5 198.794 318.5H198.621C198.543 318.5 198.464 318.5 198.386 318.518C198.352 318.518 198.323 318.523 198.296 318.528C198.273 318.532 198.251 318.536 198.229 318.536C198.205 318.545 198.182 318.549 198.158 318.554C198.135 318.558 198.111 318.562 198.088 318.571C198.049 318.58 198.009 318.594 197.97 318.607C197.931 318.621 197.892 318.634 197.852 318.643C197.834 318.643 197.821 318.649 197.81 318.654C197.803 318.658 197.796 318.661 197.79 318.661C197.782 318.661 197.774 318.665 197.766 318.67C197.758 318.674 197.75 318.679 197.743 318.679C197.617 318.714 197.476 318.768 197.35 318.839C197.209 318.911 197.052 319 196.895 319.125C196.613 319.321 196.409 319.536 196.252 319.714C196.111 319.911 195.907 320.196 195.734 320.589C195.483 321.161 195.405 321.643 195.358 322C195.311 322.357 195.279 322.875 195.326 323.482C195.326 324.232 195.436 324.982 195.656 325.696C196.095 327.089 196.895 328.268 197.962 329.071C198.135 329.196 198.307 329.321 198.496 329.429C198.715 329.571 198.935 329.679 199.155 329.768C199.163 329.768 199.174 329.772 199.186 329.777C199.198 329.781 199.21 329.786 199.217 329.786H199.249C199.343 329.786 199.421 329.696 199.421 329.589C199.421 329.554 199.359 329.446 199.343 329.429C199.338 329.422 199.333 329.415 199.328 329.408C199.268 329.323 199.196 329.22 199.123 329.071C198.574 328.036 197.727 325.607 197.648 325.125V325.071C197.648 325.055 197.645 325.036 197.642 325.014C197.638 324.988 197.633 324.958 197.633 324.929V324.911C197.617 324.839 197.601 324.75 197.601 324.679C197.601 324.643 197.597 324.603 197.594 324.562C197.59 324.522 197.586 324.482 197.586 324.446C197.57 324.286 197.57 324.107 197.57 323.929C197.57 323.196 197.68 322.482 197.884 321.839C197.915 321.732 197.947 321.643 197.978 321.554C197.986 321.545 197.99 321.531 197.994 321.518C197.998 321.504 198.001 321.491 198.009 321.482C198.021 321.455 198.031 321.43 198.039 321.409C198.053 321.375 198.062 321.35 198.072 321.339C198.245 320.929 198.339 320.732 198.402 320.607C198.415 320.583 198.429 320.558 198.443 320.531C198.515 320.398 198.611 320.222 198.794 319.911C198.841 319.821 198.872 319.768 198.904 319.714C198.912 319.696 198.923 319.679 198.935 319.661C198.947 319.643 198.959 319.625 198.966 319.607C198.975 319.593 198.982 319.58 198.989 319.568C199.007 319.534 199.022 319.508 199.045 319.482C199.061 319.464 199.072 319.446 199.084 319.429C199.096 319.411 199.108 319.393 199.123 319.375C199.139 319.357 199.155 319.335 199.17 319.312C199.186 319.29 199.202 319.268 199.217 319.25V319.232C199.223 319.225 199.227 319.219 199.23 319.213C199.235 319.203 199.239 319.196 199.249 319.196C199.271 319.184 199.285 319.163 199.297 319.145C199.302 319.137 199.307 319.13 199.312 319.125C199.421 319 199.531 318.875 199.657 318.768C199.68 318.75 199.7 318.732 199.72 318.714C199.739 318.696 199.759 318.679 199.782 318.661C199.79 318.661 199.794 318.656 199.798 318.652ZM206.435 318.321L205.258 319.661C205.101 319.839 205.101 320.107 205.258 320.286L206.843 322.089C206.921 322.179 207.031 322.214 207.125 322.214C207.235 322.214 207.329 322.179 207.408 322.089L208.992 320.268C209.149 320.107 209.149 319.839 208.992 319.661L207.816 318.321L207.408 317.857C207.329 317.768 207.235 317.732 207.125 317.732C207.031 317.732 206.921 317.768 206.843 317.857L206.435 318.321ZM208.773 329.089L210.232 327.429C210.483 327.143 210.483 326.679 210.232 326.393L207.58 323.375C207.439 323.232 207.282 323.161 207.11 323.161C206.937 323.161 206.764 323.232 206.639 323.375L203.987 326.393C203.736 326.679 203.736 327.143 203.987 327.429L205.446 329.089L205.729 329.411L206.639 330.446C206.78 330.589 206.937 330.661 207.11 330.661C207.282 330.661 207.455 330.589 207.58 330.446L208.49 329.411L208.773 329.089ZM218.563 325.714C218.783 324.982 218.893 324.232 218.893 323.482C218.94 322.875 218.909 322.357 218.814 322L218.814 321.995C218.767 321.639 218.704 321.158 218.454 320.589C218.281 320.196 218.093 319.911 217.936 319.714C217.779 319.536 217.559 319.321 217.293 319.125C217.136 319 216.979 318.911 216.837 318.839L216.837 318.839C216.712 318.786 216.586 318.732 216.445 318.679C216.437 318.679 216.43 318.674 216.422 318.67C216.414 318.665 216.406 318.661 216.398 318.661C216.38 318.661 216.367 318.655 216.356 318.65C216.348 318.646 216.342 318.643 216.335 318.643C216.257 318.607 216.179 318.589 216.1 318.571C216.077 318.562 216.053 318.558 216.029 318.554C216.006 318.549 215.982 318.545 215.959 318.536C215.925 318.536 215.896 318.531 215.869 318.526C215.846 318.522 215.824 318.518 215.802 318.518C215.763 318.518 215.723 318.513 215.684 318.509C215.645 318.504 215.606 318.5 215.567 318.5H215.394C215.3 318.5 215.206 318.5 215.112 318.518H215.08C215.058 318.518 215.037 318.522 215.013 318.526C214.986 318.531 214.957 318.536 214.923 318.536C214.9 318.545 214.872 318.549 214.845 318.554C214.817 318.558 214.79 318.562 214.766 318.571L214.672 318.589C214.625 318.589 214.562 318.607 214.515 318.625C214.5 318.634 214.484 318.638 214.468 318.643C214.453 318.647 214.437 318.652 214.421 318.661C214.429 318.661 214.433 318.665 214.437 318.67C214.441 318.674 214.445 318.679 214.453 318.679C214.476 318.696 214.496 318.714 214.515 318.732C214.535 318.75 214.555 318.768 214.578 318.786C214.704 318.893 214.813 319.018 214.923 319.143C214.945 319.155 214.959 319.176 214.971 319.194C214.977 319.202 214.981 319.209 214.986 319.214C214.986 319.223 214.99 319.228 214.994 319.232C214.998 319.237 215.002 319.241 215.002 319.25L215.017 319.268C215.033 319.286 215.049 319.308 215.065 319.33C215.08 319.353 215.096 319.375 215.112 319.393C215.143 319.429 215.174 319.464 215.19 319.5C215.198 319.514 215.206 319.527 215.212 319.54C215.231 319.573 215.246 319.599 215.268 319.625C215.276 319.643 215.288 319.661 215.3 319.679C215.312 319.696 215.323 319.714 215.331 319.732L215.331 319.732C215.363 319.786 215.394 319.839 215.441 319.929C215.645 320.286 215.755 320.482 215.833 320.625C215.896 320.75 215.99 320.946 216.163 321.357C216.173 321.368 216.182 321.393 216.196 321.427C216.204 321.448 216.214 321.473 216.226 321.5C216.241 321.518 216.257 321.554 216.257 321.571C216.273 321.616 216.288 321.665 216.304 321.714C216.32 321.763 216.335 321.812 216.351 321.857C216.555 322.5 216.665 323.214 216.665 323.946V323.946C216.665 324.107 216.665 324.286 216.649 324.464C216.649 324.536 216.649 324.625 216.634 324.696C216.626 324.732 216.622 324.772 216.618 324.812C216.614 324.853 216.61 324.893 216.602 324.929V324.946C216.602 324.962 216.599 324.982 216.595 325.004C216.591 325.03 216.586 325.06 216.586 325.089C216.571 325.107 216.571 325.125 216.571 325.143C216.492 325.625 215.645 328.054 215.096 329.089C215.023 329.238 214.951 329.341 214.891 329.426C214.886 329.433 214.881 329.44 214.876 329.446C214.861 329.464 214.798 329.571 214.798 329.607C214.798 329.714 214.876 329.804 214.97 329.804H215.002C215.01 329.804 215.021 329.799 215.033 329.795C215.045 329.79 215.057 329.786 215.065 329.786C215.284 329.679 215.504 329.571 215.723 329.446C215.912 329.339 216.084 329.214 216.257 329.089C217.324 328.286 218.14 327.107 218.563 325.714ZM197.838 338H216.399C216.556 338 216.666 337.857 216.666 337.696V335.554C216.666 335.393 216.541 335.25 216.399 335.25H197.838C197.697 335.25 197.571 335.393 197.571 335.554V337.696C197.571 337.857 197.697 338 197.838 338Z" fill="white"/>
<rect width="43" height="43" transform="translate(229 301)" fill="#806C61"/>
<rect width="43" height="43" transform="translate(272 301)" fill="#C6BAAA"/>
<path d="M315 301H358V340C358 342.209 356.209 344 354 344H315V301Z" fill="#806C61"/>
<path fill-rule="evenodd" clip-rule="evenodd" d="M347.684 308.857C347.702 308.785 347.72 308.714 347.72 308.625C347.702 308.286 347.434 308 347.095 308H343.597C343.33 308 343.115 308.161 343.008 308.393L342.955 308.607L342.598 310.106V310.124C342.526 310.356 342.33 310.534 342.098 310.57H341.081C340.867 310.534 340.706 310.392 340.617 310.195C340.581 310.124 340.563 310.035 340.563 309.963V309.945V309.927V309.892V308.66V308.625C340.545 308.286 340.26 308 339.921 308H333.799C333.46 308 333.175 308.286 333.175 308.625V308.66V309.892V309.927V309.945V309.963C333.175 310.052 333.157 310.124 333.121 310.195C333.032 310.392 332.853 310.534 332.657 310.57H331.64C331.39 310.534 331.211 310.356 331.14 310.124V310.106L330.765 308.607L330.712 308.393C330.622 308.161 330.39 308 330.141 308H326.642C326.286 308 326.018 308.286 326 308.625C326 308.656 326.002 308.685 326.004 308.712C326.008 308.764 326.012 308.81 326 308.857C326.161 310.106 326.428 311.355 326.785 312.569L328.177 317.281L328.695 319.369C328.766 319.636 328.98 319.833 329.248 319.851H329.284H330.872C331.265 319.851 331.55 320.243 331.479 320.654L328.891 335.431C328.838 335.752 329.088 336.038 329.409 336.038H344.276C344.597 336.038 344.847 335.752 344.793 335.431L342.205 320.654C342.134 320.243 342.419 319.851 342.812 319.851H344.4H344.436C344.704 319.815 344.918 319.619 344.989 319.369L345.507 317.281L346.899 312.569C347.274 311.355 347.524 310.106 347.684 308.857ZM326.303 340H347.417C347.595 340 347.72 339.857 347.72 339.697V337.555C347.72 337.394 347.577 337.252 347.417 337.252H326.303C326.143 337.252 326 337.394 326 337.555V339.697C326 339.857 326.143 340 326.303 340Z" fill="white"/>
<path d="M35.7109 348.605L33.1621 356H31.6211L34.832 347.469H35.8164L35.7109 348.605ZM37.8438 356L35.2891 348.605L35.1777 347.469H36.168L39.3906 356H37.8438ZM37.7207 352.836V354.002H33.0801V352.836H37.7207Z" fill="#806C61"/>
<path d="M78.7754 352.145H76.6016L76.5898 351.072H78.4883C78.8086 351.072 79.0801 351.025 79.3027 350.932C79.5293 350.834 79.7012 350.695 79.8184 350.516C79.9355 350.332 79.9941 350.111 79.9941 349.854C79.9941 349.568 79.9395 349.336 79.8301 349.156C79.7207 348.977 79.5527 348.846 79.3262 348.764C79.1035 348.682 78.8184 348.641 78.4707 348.641H77.0469V356H75.5762V347.469H78.4707C78.9395 347.469 79.3574 347.514 79.7246 347.604C80.0957 347.693 80.4102 347.834 80.668 348.025C80.9297 348.213 81.127 348.451 81.2598 348.74C81.3965 349.029 81.4648 349.373 81.4648 349.771C81.4648 350.123 81.3809 350.445 81.2129 350.738C81.0449 351.027 80.7969 351.264 80.4688 351.447C80.1406 351.631 79.7324 351.74 79.2441 351.775L78.7754 352.145ZM78.7109 356H76.1387L76.8008 354.834H78.7109C79.043 354.834 79.3203 354.779 79.543 354.67C79.7656 354.557 79.9316 354.402 80.041 354.207C80.1543 354.008 80.2109 353.775 80.2109 353.51C80.2109 353.232 80.1621 352.992 80.0645 352.789C79.9668 352.582 79.8125 352.424 79.6016 352.314C79.3906 352.201 79.1152 352.145 78.7754 352.145H77.123L77.1348 351.072H79.2852L79.6191 351.477C80.0879 351.492 80.4727 351.596 80.7734 351.787C81.0781 351.979 81.3047 352.227 81.4531 352.531C81.6016 352.836 81.6758 353.164 81.6758 353.516C81.6758 354.059 81.5566 354.514 81.3184 354.881C81.084 355.248 80.7461 355.527 80.3047 355.719C79.8633 355.906 79.332 356 78.7109 356Z" fill="#806C61"/>
<path d="M123.486 353.223H124.951C124.904 353.781 124.748 354.279 124.482 354.717C124.217 355.15 123.844 355.492 123.363 355.742C122.883 355.992 122.299 356.117 121.611 356.117C121.084 356.117 120.609 356.023 120.188 355.836C119.766 355.645 119.404 355.375 119.104 355.027C118.803 354.676 118.572 354.252 118.412 353.756C118.256 353.26 118.178 352.705 118.178 352.092V351.383C118.178 350.77 118.258 350.215 118.418 349.719C118.582 349.223 118.816 348.799 119.121 348.447C119.426 348.092 119.791 347.82 120.217 347.633C120.646 347.445 121.129 347.352 121.664 347.352C122.344 347.352 122.918 347.477 123.387 347.727C123.855 347.977 124.219 348.322 124.477 348.764C124.738 349.205 124.898 349.711 124.957 350.281H123.492C123.453 349.914 123.367 349.6 123.234 349.338C123.105 349.076 122.914 348.877 122.66 348.74C122.406 348.6 122.074 348.529 121.664 348.529C121.328 348.529 121.035 348.592 120.785 348.717C120.535 348.842 120.326 349.025 120.158 349.268C119.99 349.51 119.863 349.809 119.777 350.164C119.695 350.516 119.654 350.918 119.654 351.371V352.092C119.654 352.521 119.691 352.912 119.766 353.264C119.844 353.611 119.961 353.91 120.117 354.16C120.277 354.41 120.48 354.604 120.727 354.74C120.973 354.877 121.268 354.945 121.611 354.945C122.029 354.945 122.367 354.879 122.625 354.746C122.887 354.613 123.084 354.42 123.217 354.166C123.354 353.908 123.443 353.594 123.486 353.223Z" fill="#806C61"/>
<path d="M163.926 356H162.104L162.115 354.834H163.926C164.453 354.834 164.895 354.719 165.25 354.488C165.609 354.258 165.879 353.928 166.059 353.498C166.242 353.068 166.334 352.557 166.334 351.963V351.5C166.334 351.039 166.281 350.631 166.176 350.275C166.074 349.92 165.922 349.621 165.719 349.379C165.52 349.137 165.273 348.953 164.98 348.828C164.691 348.703 164.357 348.641 163.979 348.641H162.068V347.469H163.979C164.545 347.469 165.062 347.564 165.531 347.756C166 347.943 166.404 348.215 166.744 348.57C167.088 348.926 167.352 349.352 167.535 349.848C167.719 350.344 167.811 350.898 167.811 351.512V351.963C167.811 352.576 167.719 353.131 167.535 353.627C167.352 354.123 167.088 354.549 166.744 354.904C166.4 355.256 165.99 355.527 165.514 355.719C165.041 355.906 164.512 356 163.926 356ZM162.918 347.469V356H161.447V347.469H162.918Z" fill="#806C61"/>
<path d="M210.559 354.834V356H206.029V354.834H210.559ZM206.445 347.469V356H204.975V347.469H206.445ZM209.967 351.031V352.18H206.029V351.031H209.967ZM210.529 347.469V348.641H206.029V347.469H210.529Z" fill="#806C61"/>
<path d="M249.533 347.469V356H248.062V347.469H249.533ZM253.014 351.201V352.367H249.158V351.201H253.014ZM253.5 347.469V348.641H249.158V347.469H253.5Z" fill="#806C61"/>
<path d="M296.828 351.641V354.898C296.707 355.059 296.518 355.234 296.26 355.426C296.006 355.613 295.668 355.775 295.246 355.912C294.824 356.049 294.299 356.117 293.67 356.117C293.135 356.117 292.645 356.027 292.199 355.848C291.754 355.664 291.369 355.396 291.045 355.045C290.725 354.693 290.477 354.266 290.301 353.762C290.125 353.254 290.037 352.676 290.037 352.027V351.436C290.037 350.791 290.117 350.217 290.277 349.713C290.441 349.205 290.676 348.775 290.98 348.424C291.285 348.072 291.652 347.807 292.082 347.627C292.516 347.443 293.006 347.352 293.553 347.352C294.252 347.352 294.83 347.469 295.287 347.703C295.748 347.934 296.104 348.254 296.354 348.664C296.604 349.074 296.762 349.543 296.828 350.07H295.387C295.34 349.773 295.248 349.508 295.111 349.273C294.979 349.039 294.787 348.855 294.537 348.723C294.291 348.586 293.971 348.518 293.576 348.518C293.236 348.518 292.938 348.582 292.68 348.711C292.422 348.84 292.207 349.029 292.035 349.279C291.867 349.529 291.74 349.834 291.654 350.193C291.568 350.553 291.525 350.963 291.525 351.424V352.027C291.525 352.496 291.574 352.912 291.672 353.275C291.773 353.639 291.918 353.945 292.105 354.195C292.297 354.445 292.529 354.635 292.803 354.764C293.076 354.889 293.385 354.951 293.729 354.951C294.064 354.951 294.34 354.924 294.555 354.869C294.77 354.811 294.939 354.742 295.064 354.664C295.193 354.582 295.293 354.504 295.363 354.43V352.736H293.588V351.641H296.828Z" fill="#806C61"/>
<path d="M338.744 351.031V352.197H334.215V351.031H338.744ZM334.578 347.469V356H333.107V347.469H334.578ZM339.875 347.469V356H338.41V347.469H339.875Z" fill="#806C61"/>
<path d="M268.5 311H226C224.895 311 224 311.895 224 313V313.25V313.5C224 314.605 224.895 315.5 226 315.5H268.5C269.605 315.5 270.5 316.395 270.5 317.5V317.852C270.5 318.602 271.296 319.085 271.962 318.739L280.797 314.137C281.515 313.763 281.515 312.737 280.797 312.363L271.962 307.761C271.296 307.415 270.5 307.898 270.5 308.648V309C270.5 310.105 269.605 311 268.5 311Z" fill="#F07929"/>
<path d="M275 336.5H317.5C318.605 336.5 319.5 335.605 319.5 334.5V334.25V334C319.5 332.895 318.605 332 317.5 332H275C273.895 332 273 331.105 273 330V329.648C273 328.898 272.204 328.415 271.538 328.761L262.703 333.363C261.985 333.737 261.985 334.763 262.703 335.137L271.538 339.739C272.204 340.085 273 339.602 273 338.852V338.5C273 337.395 273.895 336.5 275 336.5Z" fill="#F07929"/>
</svg>
