<svg width="372" height="360" viewBox="0 0 372 360" fill="none" xmlns="http://www.w3.org/2000/svg">
<path d="M9.8125 23.1738C9.8125 23.7051 9.68945 24.1523 9.44336 24.5156C9.19727 24.8789 8.86133 25.1543 8.43555 25.3418C8.01367 25.5254 7.53711 25.6172 7.00586 25.6172C6.47461 25.6172 5.99609 25.5254 5.57031 25.3418C5.14453 25.1543 4.80859 24.8789 4.5625 24.5156C4.31641 24.1523 4.19336 23.7051 4.19336 23.1738C4.19336 22.8223 4.26172 22.5039 4.39844 22.2188C4.53516 21.9297 4.72852 21.6816 4.97852 21.4746C5.23242 21.2637 5.5293 21.1016 5.86914 20.9883C6.21289 20.875 6.58789 20.8184 6.99414 20.8184C7.5332 20.8184 8.01562 20.918 8.44141 21.1172C8.86719 21.3164 9.20117 21.5918 9.44336 21.9434C9.68945 22.2949 9.8125 22.7051 9.8125 23.1738ZM8.39453 23.1035C8.39453 22.8184 8.33594 22.5684 8.21875 22.3535C8.10156 22.1387 7.9375 21.9727 7.72656 21.8555C7.51562 21.7383 7.27148 21.6797 6.99414 21.6797C6.71289 21.6797 6.46875 21.7383 6.26172 21.8555C6.05469 21.9727 5.89258 22.1387 5.77539 22.3535C5.66211 22.5684 5.60547 22.8184 5.60547 23.1035C5.60547 23.3926 5.66211 23.6426 5.77539 23.8535C5.88867 24.0605 6.05078 24.2188 6.26172 24.3281C6.47266 24.4375 6.7207 24.4922 7.00586 24.4922C7.29102 24.4922 7.53711 24.4375 7.74414 24.3281C7.95117 24.2188 8.11133 24.0605 8.22461 23.8535C8.33789 23.6426 8.39453 23.3926 8.39453 23.1035ZM9.61914 19.2129C9.61914 19.6387 9.50586 20.0176 9.2793 20.3496C9.05664 20.6816 8.74805 20.9434 8.35352 21.1348C7.95898 21.3223 7.50977 21.416 7.00586 21.416C6.49805 21.416 6.04492 21.3223 5.64648 21.1348C5.25195 20.9434 4.94141 20.6816 4.71484 20.3496C4.49219 20.0176 4.38086 19.6387 4.38086 19.2129C4.38086 18.7051 4.49219 18.2773 4.71484 17.9297C4.94141 17.5781 5.25195 17.3105 5.64648 17.127C6.04102 16.9434 6.49219 16.8516 7 16.8516C7.50781 16.8516 7.95898 16.9434 8.35352 17.127C8.74805 17.3105 9.05664 17.5781 9.2793 17.9297C9.50586 18.2773 9.61914 18.7051 9.61914 19.2129ZM8.20703 19.2598C8.20703 19.0059 8.15625 18.7832 8.05469 18.5918C7.95703 18.3965 7.81836 18.2441 7.63867 18.1348C7.45898 18.0254 7.24609 17.9707 7 17.9707C6.75391 17.9707 6.54102 18.0234 6.36133 18.1289C6.18164 18.2344 6.04297 18.3828 5.94531 18.5742C5.84766 18.7656 5.79883 18.9941 5.79883 19.2598C5.79883 19.5215 5.84766 19.75 5.94531 19.9453C6.04297 20.1367 6.18164 20.2871 6.36133 20.3965C6.54492 20.5059 6.75977 20.5605 7.00586 20.5605C7.25195 20.5605 7.46484 20.5059 7.64453 20.3965C7.82422 20.2871 7.96289 20.1367 8.06055 19.9453C8.1582 19.75 8.20703 19.5215 8.20703 19.2598Z" fill="#806C61"/>
<path d="M9.90039 59.9688V60.7422L6.49023 68.5H5.00195L8.40625 61.0938H3.98828V59.9688H9.90039Z" fill="#806C61"/>
<path d="M8.5 102.916H8.67578V104.07H8.57617C8.07227 104.07 7.63672 104.148 7.26953 104.305C6.90625 104.461 6.60742 104.676 6.37305 104.949C6.13867 105.223 5.96289 105.543 5.8457 105.91C5.73242 106.273 5.67578 106.66 5.67578 107.07V108.412C5.67578 108.752 5.71289 109.053 5.78711 109.314C5.86133 109.572 5.96484 109.789 6.09766 109.965C6.23438 110.137 6.39062 110.268 6.56641 110.357C6.74219 110.447 6.93164 110.492 7.13477 110.492C7.3457 110.492 7.53711 110.449 7.70898 110.363C7.88086 110.273 8.02734 110.15 8.14844 109.994C8.26953 109.838 8.36133 109.652 8.42383 109.438C8.48633 109.223 8.51758 108.988 8.51758 108.734C8.51758 108.492 8.48633 108.266 8.42383 108.055C8.36523 107.84 8.27734 107.652 8.16016 107.492C8.04297 107.328 7.89648 107.201 7.7207 107.111C7.54883 107.018 7.34961 106.971 7.12305 106.971C6.8418 106.971 6.58594 107.037 6.35547 107.17C6.12891 107.303 5.94531 107.477 5.80469 107.691C5.66797 107.902 5.59375 108.127 5.58203 108.365L5.04297 108.189C5.07422 107.826 5.1543 107.5 5.2832 107.211C5.41602 106.922 5.58984 106.676 5.80469 106.473C6.01953 106.27 6.26758 106.115 6.54883 106.01C6.83398 105.9 7.14648 105.846 7.48633 105.846C7.90039 105.846 8.25977 105.924 8.56445 106.08C8.86914 106.236 9.12109 106.449 9.32031 106.719C9.52344 106.984 9.67383 107.289 9.77148 107.633C9.87305 107.973 9.92383 108.328 9.92383 108.699C9.92383 109.109 9.86133 109.492 9.73633 109.848C9.61133 110.199 9.42773 110.508 9.18555 110.773C8.94727 111.039 8.65625 111.246 8.3125 111.395C7.97266 111.543 7.58594 111.617 7.15234 111.617C6.69531 111.617 6.28711 111.529 5.92773 111.354C5.57227 111.178 5.26953 110.936 5.01953 110.627C4.77344 110.318 4.58594 109.963 4.45703 109.561C4.32812 109.158 4.26367 108.732 4.26367 108.283V107.697C4.26367 107.049 4.3457 106.438 4.50977 105.863C4.67383 105.285 4.92578 104.775 5.26562 104.334C5.60938 103.893 6.04883 103.547 6.58398 103.297C7.11914 103.043 7.75781 102.916 8.5 102.916Z" fill="#806C61"/>
<path d="M5.7168 150.533L4.5918 150.258L5.05469 145.969H9.6543V147.164H6.22656L5.99219 149.256C6.125 149.178 6.30859 149.102 6.54297 149.027C6.77734 148.949 7.04492 148.91 7.3457 148.91C7.74805 148.91 8.10742 148.977 8.42383 149.109C8.74414 149.238 9.01562 149.428 9.23828 149.678C9.46094 149.924 9.63086 150.225 9.74805 150.58C9.86523 150.932 9.92383 151.328 9.92383 151.77C9.92383 152.164 9.86523 152.533 9.74805 152.877C9.63477 153.221 9.46289 153.523 9.23242 153.785C9.00195 154.047 8.71094 154.252 8.35938 154.4C8.01172 154.545 7.59961 154.617 7.12305 154.617C6.76758 154.617 6.42578 154.566 6.09766 154.465C5.77344 154.359 5.48242 154.205 5.22461 154.002C4.9668 153.795 4.75977 153.541 4.60352 153.24C4.44727 152.936 4.35742 152.586 4.33398 152.191H5.7168C5.75195 152.469 5.82812 152.705 5.94531 152.9C6.06641 153.092 6.22656 153.238 6.42578 153.34C6.625 153.441 6.85547 153.492 7.11719 153.492C7.35547 153.492 7.56055 153.451 7.73242 153.369C7.9043 153.283 8.04688 153.162 8.16016 153.006C8.27734 152.846 8.36328 152.658 8.41797 152.443C8.47656 152.229 8.50586 151.99 8.50586 151.729C8.50586 151.479 8.47266 151.25 8.40625 151.043C8.34375 150.836 8.24805 150.656 8.11914 150.504C7.99414 150.352 7.83594 150.234 7.64453 150.152C7.45312 150.066 7.23242 150.023 6.98242 150.023C6.64648 150.023 6.38867 150.072 6.20898 150.17C6.0332 150.268 5.86914 150.389 5.7168 150.533Z" fill="#806C61"/>
<path d="M10.1113 194.459V195.584H3.95898L3.91211 194.734L7.5918 188.969H8.72266L7.49805 191.066L5.38281 194.459H10.1113ZM9.04492 188.969V197.5H7.63281V188.969H9.04492Z" fill="#806C61"/>
<path d="M5.89258 235.596H6.73633C7.06445 235.596 7.33594 235.539 7.55078 235.426C7.76953 235.312 7.93164 235.156 8.03711 234.957C8.14258 234.758 8.19531 234.529 8.19531 234.271C8.19531 234.002 8.14648 233.771 8.04883 233.58C7.95508 233.385 7.81055 233.234 7.61523 233.129C7.42383 233.023 7.17969 232.971 6.88281 232.971C6.63281 232.971 6.40625 233.021 6.20312 233.123C6.00391 233.221 5.8457 233.361 5.72852 233.545C5.61133 233.725 5.55273 233.939 5.55273 234.189H4.13477C4.13477 233.736 4.25391 233.334 4.49219 232.982C4.73047 232.631 5.05469 232.355 5.46484 232.156C5.87891 231.953 6.34375 231.852 6.85938 231.852C7.41016 231.852 7.89062 231.943 8.30078 232.127C8.71484 232.307 9.03711 232.576 9.26758 232.936C9.49805 233.295 9.61328 233.74 9.61328 234.271C9.61328 234.514 9.55664 234.76 9.44336 235.01C9.33008 235.26 9.16211 235.488 8.93945 235.695C8.7168 235.898 8.43945 236.064 8.10742 236.193C7.77539 236.318 7.39062 236.381 6.95312 236.381H5.89258V235.596ZM5.89258 236.697V235.924H6.95312C7.45312 235.924 7.87891 235.982 8.23047 236.1C8.58594 236.217 8.875 236.379 9.09766 236.586C9.32031 236.789 9.48242 237.021 9.58398 237.283C9.68945 237.545 9.74219 237.822 9.74219 238.115C9.74219 238.514 9.66992 238.869 9.52539 239.182C9.38477 239.49 9.18359 239.752 8.92188 239.967C8.66016 240.182 8.35352 240.344 8.00195 240.453C7.6543 240.562 7.27539 240.617 6.86523 240.617C6.49805 240.617 6.14648 240.566 5.81055 240.465C5.47461 240.363 5.17383 240.213 4.9082 240.014C4.64258 239.811 4.43164 239.559 4.27539 239.258C4.12305 238.953 4.04688 238.602 4.04688 238.203H5.45898C5.45898 238.457 5.51758 238.682 5.63477 238.877C5.75586 239.068 5.92383 239.219 6.13867 239.328C6.35742 239.438 6.60742 239.492 6.88867 239.492C7.18555 239.492 7.44141 239.439 7.65625 239.334C7.87109 239.229 8.03516 239.072 8.14844 238.865C8.26562 238.658 8.32422 238.408 8.32422 238.115C8.32422 237.783 8.25977 237.514 8.13086 237.307C8.00195 237.1 7.81836 236.947 7.58008 236.85C7.3418 236.748 7.06055 236.697 6.73633 236.697H5.89258Z" fill="#806C61"/>
<path d="M9.95312 282.375V283.5H4.23438V282.533L7.01172 279.504C7.31641 279.16 7.55664 278.863 7.73242 278.613C7.9082 278.363 8.03125 278.139 8.10156 277.939C8.17578 277.736 8.21289 277.539 8.21289 277.348C8.21289 277.078 8.16211 276.842 8.06055 276.639C7.96289 276.432 7.81836 276.27 7.62695 276.152C7.43555 276.031 7.20312 275.971 6.92969 275.971C6.61328 275.971 6.34766 276.039 6.13281 276.176C5.91797 276.312 5.75586 276.502 5.64648 276.744C5.53711 276.982 5.48242 277.256 5.48242 277.564H4.07031C4.07031 277.068 4.18359 276.615 4.41016 276.205C4.63672 275.791 4.96484 275.463 5.39453 275.221C5.82422 274.975 6.3418 274.852 6.94727 274.852C7.51758 274.852 8.00195 274.947 8.40039 275.139C8.79883 275.33 9.10156 275.602 9.30859 275.953C9.51953 276.305 9.625 276.721 9.625 277.201C9.625 277.467 9.58203 277.73 9.49609 277.992C9.41016 278.254 9.28711 278.516 9.12695 278.777C8.9707 279.035 8.78516 279.295 8.57031 279.557C8.35547 279.814 8.11914 280.076 7.86133 280.342L6.01562 282.375H9.95312Z" fill="#806C61"/>
<path d="M8.08984 317.939V326.5H6.67773V319.615L4.58594 320.324V319.158L7.91992 317.939H8.08984Z" fill="#806C61"/>
<path d="M14 4C14 1.79086 15.7909 0 18 0H57V43H14V4Z" fill="#C6BAAA"/>
<rect width="43" height="43" transform="translate(57)" fill="#806C61"/>
<rect width="43" height="43" transform="translate(100)" fill="#C6BAAA"/>
<rect width="43" height="43" transform="translate(143)" fill="#806C61"/>
<rect width="43" height="43" transform="translate(186)" fill="#C6BAAA"/>
<rect width="43" height="43" transform="translate(229)" fill="#806C61"/>
<rect width="43" height="43" transform="translate(272)" fill="#CF1010"/>
<circle cx="294" cy="21" r="5" fill="#CF1010"/>
<path d="M315 0H354C356.209 0 358 1.79086 358 4V43H315V0Z" fill="#806C61"/>
<path fill-rule="evenodd" clip-rule="evenodd" d="M344.766 12.9286C345.567 12.9286 346.351 13.0714 347.104 13.3214C350.227 14.7679 352.251 18.1786 352.204 22.0357C352.204 25.125 350.901 27.8571 348.877 29.5714V29.6071C348.203 30.125 347.638 30.8214 347.245 31.6429C347.23 31.6696 347.218 31.7009 347.206 31.7321C347.194 31.7634 347.183 31.7946 347.167 31.8214C347.104 31.9643 347.041 32.1071 346.994 32.25C346.987 32.2768 346.979 32.2991 346.971 32.3214C346.963 32.3437 346.955 32.3661 346.947 32.3929C346.853 32.625 346.634 32.7857 346.382 32.7857H327.805C327.554 32.7857 327.335 32.6071 327.241 32.3571V32.3393C327.233 32.3214 327.229 32.308 327.225 32.2946C327.221 32.2812 327.217 32.2679 327.209 32.25C327.162 32.1071 327.099 31.9464 327.037 31.8036C327.021 31.75 326.989 31.6786 326.958 31.625C326.566 30.8036 326.001 30.1071 325.326 29.5893V29.5536C323.318 27.8393 322 25.1071 322 22.0179C322 18.1786 324.008 14.7679 327.162 13.3393C327.899 13.0714 328.684 12.9464 329.484 12.9464C329.861 12.9464 330.253 12.9821 330.614 13.0357C331.634 13.1964 332.591 13.5536 333.454 14.1071C333.548 14.2143 333.673 14.2857 333.815 14.3393C333.925 14.3929 334.034 14.4107 334.16 14.4107C334.599 14.4107 334.96 14.125 335.133 13.6964L335.18 13.5714L335.807 11.6429L336.027 11.0179L336.058 10.9464C336.058 10.9375 336.062 10.9286 336.066 10.9196C336.07 10.9107 336.074 10.9018 336.074 10.8929V10.875L336.121 10.7321V10.6964V10.625C336.105 10.5536 336.09 10.4821 336.058 10.4286C335.98 10.2857 335.839 10.1964 335.682 10.1964H335.619L335.572 10.2143C335.556 10.2143 335.525 10.2143 335.509 10.2321C335.494 10.2321 335.478 10.2321 335.462 10.25C335.454 10.25 335.45 10.2545 335.446 10.2589C335.443 10.2634 335.439 10.2679 335.431 10.2679L332.92 11.3571H332.889C332.826 11.3571 332.779 11.3214 332.763 11.2679V11.25V11.2321V7.33929C332.763 7.26786 332.826 7.21429 332.889 7.21429H332.905L332.952 7.23214L335.525 8.33929C335.556 8.35714 335.588 8.375 335.619 8.375C335.666 8.39286 335.697 8.39286 335.745 8.39286C335.996 8.39286 336.184 8.14286 336.168 7.85714V7.82143V7.78571C336.168 7.76479 336.163 7.75 336.158 7.73774C336.155 7.72908 336.153 7.72168 336.153 7.71429C336.153 7.67857 336.137 7.64286 336.121 7.625L335.305 5.19643V5.17857C335.29 5.125 335.305 5.08929 335.321 5.05357C335.321 5.03571 335.337 5.01786 335.337 5.01786C335.337 5.01786 335.337 5 335.352 5.01786C335.368 5 335.384 5 335.415 5H338.82H338.851H338.867C338.875 5 338.879 5.00446 338.883 5.00893C338.887 5.01339 338.89 5.01786 338.898 5.01786C338.945 5.05357 338.977 5.10714 338.961 5.16071L338.945 5.21429L338.098 7.625C338.09 7.64286 338.086 7.65625 338.082 7.66965C338.078 7.68304 338.075 7.69643 338.067 7.71429C338.067 7.73521 338.061 7.75 338.057 7.76225C338.054 7.77092 338.051 7.77832 338.051 7.78571C338.035 7.78571 338.035 7.80357 338.035 7.82143V7.85714C338.02 8.14286 338.208 8.39286 338.459 8.39286C338.506 8.39286 338.537 8.39286 338.584 8.375C338.616 8.375 338.647 8.35714 338.679 8.33929L341.252 7.23214L341.315 7.21429H341.33H341.362H341.377C341.385 7.21429 341.389 7.21875 341.393 7.22321C341.397 7.22768 341.401 7.23214 341.409 7.23214C341.456 7.26786 341.471 7.30357 341.471 7.35714V11.1964V11.2143V11.2321C341.471 11.25 341.471 11.2679 341.456 11.2857L341.44 11.3036C341.432 11.3036 341.428 11.308 341.424 11.3125C341.42 11.317 341.417 11.3214 341.409 11.3214C341.399 11.3319 341.396 11.3363 341.391 11.338C341.388 11.3393 341.384 11.3393 341.377 11.3393H341.33C341.322 11.3393 341.318 11.3348 341.315 11.3304C341.311 11.3259 341.307 11.3214 341.299 11.3214L338.804 10.2321C338.795 10.2216 338.791 10.2173 338.786 10.2155C338.783 10.2143 338.779 10.2143 338.773 10.2143C338.765 10.2143 338.757 10.2098 338.749 10.2054C338.741 10.2009 338.734 10.1964 338.726 10.1964C338.718 10.1964 338.706 10.192 338.694 10.1875C338.683 10.183 338.671 10.1786 338.663 10.1786L338.616 10.1607H338.553C338.396 10.1607 338.255 10.25 338.177 10.3929C338.145 10.4464 338.114 10.5179 338.114 10.5893V10.6607V10.6964L338.161 10.8393V10.8571C338.161 10.8661 338.165 10.875 338.169 10.8839C338.173 10.8929 338.177 10.9018 338.177 10.9107L338.208 10.9821L338.412 11.6071L339.071 13.5536L339.118 13.6786C339.275 14.0893 339.651 14.3929 340.091 14.3929C340.201 14.3929 340.326 14.375 340.436 14.3214C340.577 14.2857 340.687 14.1964 340.797 14.0893C341.66 13.5536 342.617 13.1786 343.637 13.0179C343.998 12.9643 344.39 12.9286 344.766 12.9286ZM329.798 17.6518C329.802 17.6473 329.806 17.6429 329.814 17.6429C329.782 17.625 329.751 17.6071 329.672 17.625C329.625 17.625 329.563 17.6071 329.516 17.5893L329.421 17.5714C329.374 17.5536 329.312 17.5357 329.265 17.5357C329.241 17.5357 329.214 17.5312 329.186 17.5268C329.159 17.5223 329.131 17.5179 329.108 17.5179H329.076C328.982 17.5 328.888 17.5 328.794 17.5H328.621C328.543 17.5 328.464 17.5 328.386 17.5179C328.352 17.5179 328.323 17.523 328.296 17.5277C328.273 17.5319 328.251 17.5357 328.229 17.5357C328.205 17.5446 328.182 17.5491 328.158 17.5536C328.135 17.558 328.111 17.5625 328.088 17.5714C328.049 17.5804 328.009 17.5938 327.97 17.6071C327.931 17.6205 327.892 17.6339 327.852 17.6429C327.834 17.6429 327.821 17.649 327.81 17.6541C327.803 17.6576 327.796 17.6607 327.79 17.6607C327.782 17.6607 327.774 17.6652 327.766 17.6696C327.758 17.6741 327.75 17.6786 327.743 17.6786C327.617 17.7143 327.476 17.7679 327.35 17.8393C327.209 17.9107 327.052 18 326.895 18.125C326.613 18.3214 326.409 18.5357 326.252 18.7143C326.111 18.9107 325.907 19.1964 325.734 19.5893C325.483 20.1607 325.405 20.6429 325.358 21C325.311 21.3571 325.279 21.875 325.326 22.4821C325.326 23.2321 325.436 23.9821 325.656 24.6964C326.095 26.0893 326.895 27.2679 327.962 28.0714C328.135 28.1964 328.307 28.3214 328.496 28.4286C328.715 28.5714 328.935 28.6786 329.155 28.7679C329.163 28.7679 329.174 28.7723 329.186 28.7768C329.198 28.7812 329.21 28.7857 329.217 28.7857H329.249C329.343 28.7857 329.421 28.6964 329.421 28.5893C329.421 28.5536 329.359 28.4464 329.343 28.4286C329.338 28.4218 329.333 28.415 329.328 28.408C329.268 28.3228 329.196 28.22 329.123 28.0714C328.574 27.0357 327.727 24.6071 327.648 24.125V24.0714C327.648 24.0554 327.645 24.0357 327.642 24.0141C327.638 23.9876 327.633 23.9581 327.633 23.9286V23.9107C327.617 23.8393 327.601 23.75 327.601 23.6786C327.601 23.6429 327.597 23.6027 327.594 23.5625C327.59 23.5223 327.586 23.4821 327.586 23.4464C327.57 23.2857 327.57 23.1071 327.57 22.9286C327.57 22.1964 327.68 21.4821 327.884 20.8393C327.915 20.7321 327.947 20.6429 327.978 20.5536C327.986 20.5446 327.99 20.5312 327.994 20.5179C327.998 20.5045 328.001 20.4911 328.009 20.4821C328.021 20.4549 328.031 20.4302 328.039 20.4091C328.053 20.375 328.062 20.3503 328.072 20.3393C328.245 19.9286 328.339 19.7321 328.402 19.6071C328.415 19.583 328.429 19.5579 328.443 19.5309C328.515 19.3984 328.611 19.2224 328.794 18.9107C328.841 18.8214 328.872 18.7679 328.904 18.7143C328.912 18.6964 328.923 18.6786 328.935 18.6607C328.947 18.6429 328.959 18.625 328.966 18.6071C328.975 18.5928 328.982 18.5797 328.989 18.5676C329.007 18.5344 329.022 18.5083 329.045 18.4821C329.061 18.4643 329.072 18.4464 329.084 18.4286C329.096 18.4107 329.108 18.3929 329.123 18.375C329.139 18.3571 329.155 18.3348 329.17 18.3125C329.186 18.2902 329.202 18.2679 329.217 18.25V18.2321C329.223 18.2253 329.227 18.2185 329.23 18.2127C329.235 18.2032 329.239 18.1964 329.249 18.1964C329.271 18.184 329.285 18.1628 329.297 18.1451C329.302 18.1375 329.307 18.1304 329.312 18.125C329.421 18 329.531 17.875 329.657 17.7679C329.68 17.75 329.7 17.7321 329.72 17.7143C329.739 17.6964 329.759 17.6786 329.782 17.6607C329.79 17.6607 329.794 17.6562 329.798 17.6518ZM336.435 17.3214L335.258 18.6607C335.101 18.8393 335.101 19.1071 335.258 19.2857L336.843 21.0893C336.921 21.1786 337.031 21.2143 337.125 21.2143C337.235 21.2143 337.329 21.1786 337.408 21.0893L338.992 19.2679C339.149 19.1071 339.149 18.8393 338.992 18.6607L337.816 17.3214L337.408 16.8571C337.329 16.7679 337.235 16.7321 337.125 16.7321C337.031 16.7321 336.921 16.7679 336.843 16.8571L336.435 17.3214ZM338.773 28.0893L340.232 26.4286C340.483 26.1429 340.483 25.6786 340.232 25.3929L337.58 22.375C337.439 22.2321 337.282 22.1607 337.11 22.1607C336.937 22.1607 336.764 22.2321 336.639 22.375L333.987 25.3929C333.736 25.6786 333.736 26.1429 333.987 26.4286L335.446 28.0893L335.729 28.4107L336.639 29.4464C336.78 29.5893 336.937 29.6607 337.11 29.6607C337.282 29.6607 337.455 29.5893 337.58 29.4464L338.49 28.4107L338.773 28.0893ZM348.563 24.7143C348.783 23.9821 348.893 23.2321 348.893 22.4821C348.94 21.875 348.909 21.3571 348.814 21L348.814 20.9953C348.767 20.6386 348.704 20.1582 348.454 19.5893C348.281 19.1964 348.093 18.9107 347.936 18.7143C347.779 18.5357 347.559 18.3214 347.293 18.125C347.136 18 346.979 17.9107 346.837 17.8393L346.837 17.8393C346.712 17.7857 346.586 17.7321 346.445 17.6786C346.437 17.6786 346.43 17.6741 346.422 17.6696C346.414 17.6652 346.406 17.6607 346.398 17.6607C346.38 17.6607 346.367 17.6546 346.356 17.6495C346.348 17.6459 346.342 17.6429 346.335 17.6429C346.257 17.6071 346.179 17.5893 346.1 17.5714C346.077 17.5625 346.053 17.558 346.029 17.5536C346.006 17.5491 345.982 17.5446 345.959 17.5357C345.925 17.5357 345.896 17.5306 345.869 17.5258C345.846 17.5217 345.824 17.5179 345.802 17.5179C345.763 17.5179 345.723 17.5134 345.684 17.5089C345.645 17.5045 345.606 17.5 345.567 17.5H345.394C345.3 17.5 345.206 17.5 345.112 17.5179H345.08C345.058 17.5179 345.037 17.5217 345.013 17.5258C344.986 17.5306 344.957 17.5357 344.923 17.5357C344.9 17.5446 344.872 17.5491 344.845 17.5536C344.817 17.558 344.79 17.5625 344.766 17.5714L344.672 17.5893C344.625 17.5893 344.562 17.6071 344.515 17.625C344.5 17.6339 344.484 17.6384 344.468 17.6429C344.453 17.6473 344.437 17.6518 344.421 17.6607C344.429 17.6607 344.433 17.6652 344.437 17.6696C344.441 17.6741 344.445 17.6786 344.453 17.6786C344.476 17.6964 344.496 17.7143 344.515 17.7321C344.535 17.75 344.555 17.7679 344.578 17.7857C344.704 17.8929 344.813 18.0179 344.923 18.1429C344.945 18.1553 344.959 18.1764 344.971 18.1941C344.977 18.2018 344.981 18.2089 344.986 18.2143C344.986 18.2232 344.99 18.2277 344.994 18.2321C344.998 18.2366 345.002 18.2411 345.002 18.25L345.017 18.2679C345.033 18.2857 345.049 18.308 345.065 18.3304C345.08 18.3527 345.096 18.375 345.112 18.3929C345.143 18.4286 345.174 18.4643 345.19 18.5C345.198 18.5144 345.206 18.5274 345.212 18.5396C345.231 18.5727 345.246 18.5989 345.268 18.625C345.276 18.6429 345.288 18.6607 345.3 18.6786C345.312 18.6964 345.323 18.7143 345.331 18.7321L345.331 18.7322C345.363 18.7857 345.394 18.8393 345.441 18.9286C345.645 19.2857 345.755 19.4821 345.833 19.625C345.896 19.75 345.99 19.9464 346.163 20.3571C346.173 20.3682 346.182 20.3929 346.196 20.427C346.204 20.448 346.214 20.4727 346.226 20.5C346.241 20.5179 346.257 20.5536 346.257 20.5714C346.273 20.6161 346.288 20.6652 346.304 20.7143C346.32 20.7634 346.335 20.8125 346.351 20.8571C346.555 21.5 346.665 22.2143 346.665 22.9464V22.9465C346.665 23.1072 346.665 23.2857 346.649 23.4643C346.649 23.5357 346.649 23.625 346.634 23.6964C346.626 23.7321 346.622 23.7723 346.618 23.8125C346.614 23.8527 346.61 23.8929 346.602 23.9286V23.9464C346.602 23.9625 346.599 23.9821 346.595 24.0038C346.591 24.0303 346.586 24.0598 346.586 24.0893C346.571 24.1071 346.571 24.125 346.571 24.1429C346.492 24.625 345.645 27.0536 345.096 28.0893C345.023 28.2379 344.951 28.3406 344.891 28.4259C344.886 28.4328 344.881 28.4397 344.876 28.4464C344.861 28.4643 344.798 28.5714 344.798 28.6071C344.798 28.7143 344.876 28.8036 344.97 28.8036H345.002C345.01 28.8036 345.021 28.7991 345.033 28.7946C345.045 28.7902 345.057 28.7857 345.065 28.7857C345.284 28.6786 345.504 28.5714 345.723 28.4464C345.912 28.3393 346.084 28.2143 346.257 28.0893C347.324 27.2857 348.14 26.1071 348.563 24.7143ZM327.838 37H346.399C346.556 37 346.666 36.8571 346.666 36.6964V34.5536C346.666 34.3929 346.541 34.25 346.399 34.25H327.838C327.697 34.25 327.571 34.3929 327.571 34.5536V36.6964C327.571 36.8571 327.697 37 327.838 37Z" fill="black"/>
<rect width="43" height="43" transform="translate(14 43)" fill="#806C61"/>
<rect width="43" height="43" transform="translate(57 43)" fill="#C6BAAA"/>
<rect width="43" height="43" transform="translate(100 43)" fill="#806C61"/>
<rect width="43" height="43" transform="translate(143 43)" fill="#C6BAAA"/>
<rect width="43" height="43" transform="translate(186 43)" fill="#806C61"/>
<rect width="43" height="43" transform="translate(229 43)" fill="#C6BAAA"/>
<path fill-rule="evenodd" clip-rule="evenodd" d="M265.06 62.7423C265.078 62.7423 265.096 62.7245 265.096 62.7066C265.331 62.5282 265.655 62.7602 265.565 63.0636L265.529 63.2242C265.529 63.2242 265.511 63.2599 265.511 63.2956C265.511 63.2956 265.511 63.3491 265.493 63.4205L264.213 68.5784L262.699 74.6642L262.176 76.7524C262.14 76.9308 261.978 77.0558 261.815 77.0558H238.76C238.597 77.0558 238.435 76.9308 238.399 76.7524L237.876 74.6642L236.362 68.5784L235.082 63.4205C235.064 63.3491 235.064 63.2956 235.064 63.2956C235.064 63.2599 235.046 63.2242 235.046 63.2242L235.01 63.0636C234.938 62.7602 235.263 62.5282 235.497 62.7066C235.497 62.7177 235.504 62.7219 235.513 62.7277C235.519 62.7313 235.526 62.7355 235.533 62.7423L240.454 66.4545C240.544 66.5081 240.652 66.4545 240.67 66.3296L241.265 58.7981C241.301 58.4769 241.68 58.3698 241.842 58.6375L245.844 65.0089C245.916 65.116 246.06 65.0982 246.096 64.9732L249.143 55.8712C249.161 55.8176 249.143 55.7641 249.125 55.7284L247.863 53.4618C247.791 53.3369 247.791 53.1762 247.863 53.0513L249.972 49.1785C250.044 49.0535 250.17 49 250.279 49C250.405 49 250.513 49.0535 250.585 49.1785L252.73 53.0335C252.802 53.1584 252.802 53.319 252.73 53.4439L251.468 55.7105C251.432 55.7641 251.432 55.7998 251.45 55.8533L254.497 64.9554C254.533 65.0803 254.677 65.0982 254.749 64.9911L258.733 58.6375C258.895 58.3698 259.292 58.4769 259.31 58.7981L259.905 66.3296C259.905 66.4545 260.031 66.5259 260.121 66.4545L265.06 62.7423ZM250.441 73.0758L252.73 68.9532C252.784 68.8818 252.784 68.7747 252.73 68.7033L250.459 64.5806C250.423 64.5271 250.369 64.4735 250.297 64.4735C250.224 64.4735 250.17 64.5092 250.134 64.5806L247.827 68.7033C247.791 68.7747 247.791 68.8818 247.827 68.9532L250.116 73.0758C250.152 73.1294 250.224 73.1829 250.279 73.1829C250.351 73.1829 250.405 73.1472 250.441 73.0758ZM238.741 81H261.833C262.013 81 262.158 80.8572 262.158 80.6788V78.5728C262.158 78.3943 262.013 78.2515 261.833 78.2515H238.741C238.561 78.2515 238.417 78.3943 238.417 78.5728V80.6788C238.417 80.8572 238.561 81 238.741 81Z" fill="white"/>
<rect width="43" height="43" transform="translate(272 43)" fill="#806C61"/>
<rect width="43" height="43" transform="translate(272 43)" fill="#CF1010" fill-opacity="0.7"/>
<rect width="43" height="43" transform="translate(315 43)" fill="#CF1010"/>
<circle cx="337" cy="64" r="5" fill="#CF1010"/>
<rect width="43" height="43" transform="translate(14 86)" fill="#C6BAAA"/>
<rect width="43" height="43" transform="translate(57 86)" fill="#806C61"/>
<rect width="43" height="43" transform="translate(100 86)" fill="#C6BAAA"/>
<path fill-rule="evenodd" clip-rule="evenodd" d="M114.819 120.038H128.901C129.418 120.038 129.793 119.485 129.597 118.931C129.088 117.174 128.575 115.416 128.062 113.658C127.549 111.9 127.036 110.142 126.527 108.384C126.509 108.366 126.491 108.33 126.491 108.294V108.259C126.491 108.098 126.616 107.973 126.759 107.955H127.83C127.955 107.955 128.044 107.938 128.151 107.902C128.544 107.777 128.811 107.42 128.811 106.992V104.654C128.811 104.315 128.651 104.029 128.401 103.851C128.24 103.743 128.044 103.672 127.848 103.672H126.081C125.706 103.672 125.367 103.369 125.367 102.994C125.385 102.833 125.438 102.69 125.545 102.566C125.581 102.512 125.635 102.458 125.706 102.423C126.973 101.334 127.776 99.7278 127.776 97.9253C127.776 94.6592 125.135 92 121.869 92C118.585 92 115.944 94.6592 115.926 97.9253C115.926 99.7278 116.729 101.334 117.996 102.423C118.023 102.45 118.049 102.472 118.076 102.494C118.103 102.516 118.13 102.539 118.157 102.566C118.246 102.673 118.317 102.833 118.317 102.994C118.335 103.369 117.978 103.672 117.603 103.672H115.836C115.622 103.672 115.444 103.743 115.283 103.851C115.033 104.029 114.873 104.332 114.873 104.654V106.992C114.873 107.402 115.158 107.777 115.533 107.902C115.64 107.938 115.747 107.955 115.854 107.955H116.872C117.032 107.955 117.175 108.098 117.175 108.259V108.312C117.175 108.333 117.169 108.348 117.164 108.36C117.16 108.369 117.157 108.376 117.157 108.384C116.648 110.142 116.135 111.904 115.622 113.667C115.109 115.429 114.596 117.191 114.087 118.949C113.927 119.485 114.302 120.038 114.819 120.038ZM111.303 124H132.417C132.595 124 132.72 123.857 132.72 123.697V121.555C132.72 121.394 132.577 121.252 132.417 121.252H111.303C111.143 121.252 111 121.394 111 121.555V123.697C111 123.857 111.143 124 111.303 124Z" fill="black"/>
<rect width="43" height="43" transform="translate(143 86)" fill="#806C61"/>
<rect width="43" height="43" transform="translate(186 86)" fill="#C6BAAA"/>
<rect width="43" height="43" transform="translate(229 86)" fill="#806C61"/>
<rect width="43" height="43" transform="translate(272 86)" fill="#C6BAAA"/>
<rect width="43" height="43" transform="translate(315 86)" fill="#806C61"/>
<rect width="43" height="43" transform="translate(14 129)" fill="#806C61"/>
<rect width="43" height="43" transform="translate(57 129)" fill="#C6BAAA"/>
<path fill-rule="evenodd" clip-rule="evenodd" d="M71.8191 163.038H85.9006C86.4181 163.038 86.7929 162.485 86.5966 161.931C86.088 160.174 85.5749 158.416 85.0618 156.658C84.5487 154.9 84.0355 153.142 83.5269 151.384C83.509 151.366 83.4912 151.33 83.4912 151.294V151.259C83.4912 151.098 83.6161 150.973 83.7589 150.955H84.8297C84.9547 150.955 85.0439 150.938 85.151 150.902C85.5436 150.777 85.8113 150.42 85.8113 149.992V147.654C85.8113 147.315 85.6507 147.029 85.4008 146.851C85.2402 146.743 85.0439 146.672 84.8476 146.672H83.0807C82.7059 146.672 82.3668 146.369 82.3668 145.994C82.3847 145.833 82.4382 145.69 82.5453 145.566C82.581 145.512 82.6345 145.458 82.7059 145.423C83.9731 144.334 84.7762 142.728 84.7762 140.925C84.7762 137.659 82.1348 135 78.8688 135C75.5849 135 72.9435 137.659 72.9257 140.925C72.9257 142.728 73.7288 144.334 74.9959 145.423C75.0227 145.45 75.0495 145.472 75.0762 145.494C75.103 145.516 75.1298 145.539 75.1566 145.566C75.2458 145.673 75.3172 145.833 75.3172 145.994C75.335 146.369 74.9781 146.672 74.6033 146.672H72.8364C72.6223 146.672 72.4438 146.743 72.2832 146.851C72.0333 147.029 71.8727 147.332 71.8727 147.654V149.992C71.8727 150.402 72.1582 150.777 72.533 150.902C72.6401 150.938 72.7472 150.955 72.8543 150.955H73.8716C74.0322 150.955 74.175 151.098 74.175 151.259V151.312C74.175 151.333 74.1688 151.348 74.1638 151.36C74.1602 151.369 74.1571 151.376 74.1571 151.384C73.6485 153.142 73.1353 154.904 72.6222 156.667C72.1091 158.429 71.596 160.191 71.0874 161.949C70.9268 162.485 71.3016 163.038 71.8191 163.038ZM68.3034 167H89.4166C89.5951 167 89.72 166.857 89.72 166.697V164.555C89.72 164.394 89.5772 164.252 89.4166 164.252H68.3034C68.1428 164.252 68 164.394 68 164.555V166.697C68 166.857 68.1428 167 68.3034 167Z" fill="black"/>
<rect width="43" height="43" transform="translate(100 129)" fill="#806C61"/>
<path fill-rule="evenodd" clip-rule="evenodd" d="M114.819 163.038H128.901C129.418 163.038 129.793 162.485 129.597 161.931C129.088 160.174 128.575 158.416 128.062 156.658C127.549 154.9 127.036 153.142 126.527 151.384C126.509 151.366 126.491 151.33 126.491 151.294V151.259C126.491 151.098 126.616 150.973 126.759 150.955H127.83C127.955 150.955 128.044 150.938 128.151 150.902C128.544 150.777 128.811 150.42 128.811 149.992V147.654C128.811 147.315 128.651 147.029 128.401 146.851C128.24 146.743 128.044 146.672 127.848 146.672H126.081C125.706 146.672 125.367 146.369 125.367 145.994C125.385 145.833 125.438 145.69 125.545 145.566C125.581 145.512 125.635 145.458 125.706 145.423C126.973 144.334 127.776 142.728 127.776 140.925C127.776 137.659 125.135 135 121.869 135C118.585 135 115.944 137.659 115.926 140.925C115.926 142.728 116.729 144.334 117.996 145.423C118.023 145.45 118.049 145.472 118.076 145.494C118.103 145.516 118.13 145.539 118.157 145.566C118.246 145.673 118.317 145.833 118.317 145.994C118.335 146.369 117.978 146.672 117.603 146.672H115.836C115.622 146.672 115.444 146.743 115.283 146.851C115.033 147.029 114.873 147.332 114.873 147.654V149.992C114.873 150.402 115.158 150.777 115.533 150.902C115.64 150.938 115.747 150.955 115.854 150.955H116.872C117.032 150.955 117.175 151.098 117.175 151.259V151.312C117.175 151.333 117.169 151.348 117.164 151.36C117.16 151.369 117.157 151.376 117.157 151.384C116.648 153.142 116.135 154.904 115.622 156.667C115.109 158.429 114.596 160.191 114.087 161.949C113.927 162.485 114.302 163.038 114.819 163.038ZM111.303 167H132.417C132.595 167 132.72 166.857 132.72 166.697V164.555C132.72 164.394 132.577 164.252 132.417 164.252H111.303C111.143 164.252 111 164.394 111 164.555V166.697C111 166.857 111.143 167 111.303 167Z" fill="white"/>
<rect width="43" height="43" transform="translate(143 129)" fill="#C6BAAA"/>
<rect width="43" height="43" transform="translate(186 129)" fill="#806C61"/>
<rect width="43" height="43" transform="translate(229 129)" fill="#C6BAAA"/>
<rect width="43" height="43" transform="translate(272 129)" fill="#806C61"/>
<rect width="43" height="43" transform="translate(315 129)" fill="#C6BAAA"/>
<rect width="43" height="43" transform="translate(14 172)" fill="#C6BAAA"/>
<path fill-rule="evenodd" clip-rule="evenodd" d="M28.8191 206.038H42.9006C43.4181 206.038 43.7929 205.485 43.5966 204.931C43.088 203.174 42.5749 201.416 42.0618 199.658C41.5487 197.9 41.0355 196.142 40.5269 194.384C40.509 194.366 40.4912 194.33 40.4912 194.294V194.259C40.4912 194.098 40.6161 193.973 40.7589 193.955H41.8297C41.9547 193.955 42.0439 193.938 42.151 193.902C42.5436 193.777 42.8113 193.42 42.8113 192.992V190.654C42.8113 190.315 42.6507 190.029 42.4008 189.851C42.2402 189.743 42.0439 189.672 41.8476 189.672H40.0807C39.7059 189.672 39.3668 189.369 39.3668 188.994C39.3847 188.833 39.4382 188.69 39.5453 188.566C39.581 188.512 39.6345 188.458 39.7059 188.423C40.9731 187.334 41.7762 185.728 41.7762 183.925C41.7762 180.659 39.1348 178 35.8688 178C32.5849 178 29.9435 180.659 29.9257 183.925C29.9257 185.728 30.7288 187.334 31.9959 188.423C32.0227 188.45 32.0495 188.472 32.0762 188.494C32.103 188.516 32.1298 188.539 32.1566 188.566C32.2458 188.673 32.3172 188.833 32.3172 188.994C32.335 189.369 31.9781 189.672 31.6033 189.672H29.8364C29.6223 189.672 29.4438 189.743 29.2832 189.851C29.0333 190.029 28.8727 190.332 28.8727 190.654V192.992C28.8727 193.402 29.1582 193.777 29.533 193.902C29.6401 193.938 29.7472 193.955 29.8543 193.955H30.8716C31.0322 193.955 31.175 194.098 31.175 194.259V194.312C31.175 194.333 31.1688 194.348 31.1638 194.36C31.1602 194.369 31.1571 194.376 31.1571 194.384C30.6485 196.142 30.1353 197.904 29.6222 199.667C29.1091 201.429 28.596 203.191 28.0874 204.949C27.9268 205.485 28.3016 206.038 28.8191 206.038ZM25.3034 210H46.4166C46.5951 210 46.72 209.857 46.72 209.697V207.555C46.72 207.394 46.5772 207.252 46.4166 207.252H25.3034C25.1428 207.252 25 207.394 25 207.555V209.697C25 209.857 25.1428 210 25.3034 210Z" fill="black"/>
<rect width="43" height="43" transform="translate(57 172)" fill="#806C61"/>
<path fill-rule="evenodd" clip-rule="evenodd" d="M71.8191 206.038H85.9006C86.4181 206.038 86.7929 205.485 86.5966 204.931C86.088 203.174 85.5749 201.416 85.0618 199.658C84.5487 197.9 84.0355 196.142 83.5269 194.384C83.509 194.366 83.4912 194.33 83.4912 194.294V194.259C83.4912 194.098 83.6161 193.973 83.7589 193.955H84.8297C84.9547 193.955 85.0439 193.938 85.151 193.902C85.5436 193.777 85.8113 193.42 85.8113 192.992V190.654C85.8113 190.315 85.6507 190.029 85.4008 189.851C85.2402 189.743 85.0439 189.672 84.8476 189.672H83.0807C82.7059 189.672 82.3668 189.369 82.3668 188.994C82.3847 188.833 82.4382 188.69 82.5453 188.566C82.581 188.512 82.6345 188.458 82.7059 188.423C83.9731 187.334 84.7762 185.728 84.7762 183.925C84.7762 180.659 82.1348 178 78.8688 178C75.5849 178 72.9435 180.659 72.9257 183.925C72.9257 185.728 73.7288 187.334 74.9959 188.423C75.0227 188.45 75.0495 188.472 75.0762 188.494C75.103 188.516 75.1298 188.539 75.1566 188.566C75.2458 188.673 75.3172 188.833 75.3172 188.994C75.335 189.369 74.9781 189.672 74.6033 189.672H72.8364C72.6223 189.672 72.4438 189.743 72.2832 189.851C72.0333 190.029 71.8727 190.332 71.8727 190.654V192.992C71.8727 193.402 72.1582 193.777 72.533 193.902C72.6401 193.938 72.7472 193.955 72.8543 193.955H73.8716C74.0322 193.955 74.175 194.098 74.175 194.259V194.312C74.175 194.333 74.1688 194.348 74.1638 194.36C74.1602 194.369 74.1571 194.376 74.1571 194.384C73.6485 196.142 73.1353 197.904 72.6222 199.667C72.1091 201.429 71.596 203.191 71.0874 204.949C70.9268 205.485 71.3016 206.038 71.8191 206.038ZM68.3034 210H89.4166C89.5951 210 89.72 209.857 89.72 209.697V207.555C89.72 207.394 89.5772 207.252 89.4166 207.252H68.3034C68.1428 207.252 68 207.394 68 207.555V209.697C68 209.857 68.1428 210 68.3034 210Z" fill="white"/>
<rect width="43" height="43" transform="translate(100 172)" fill="#C6BAAA"/>
<rect width="43" height="43" transform="translate(143 172)" fill="#806C61"/>
<rect width="43" height="43" transform="translate(186 172)" fill="#C6BAAA"/>
<rect width="43" height="43" transform="translate(229 172)" fill="#806C61"/>
<rect width="43" height="43" transform="translate(272 172)" fill="#C6BAAA"/>
<rect width="43" height="43" transform="translate(315 172)" fill="#806C61"/>
<rect width="43" height="43" transform="translate(14 215)" fill="#806C61"/>
<path fill-rule="evenodd" clip-rule="evenodd" d="M28.8191 249.038H42.9006C43.4181 249.038 43.7929 248.485 43.5966 247.931C43.088 246.174 42.5749 244.416 42.0618 242.658C41.5487 240.9 41.0355 239.142 40.5269 237.384C40.509 237.366 40.4912 237.33 40.4912 237.294V237.259C40.4912 237.098 40.6161 236.973 40.7589 236.955H41.8297C41.9547 236.955 42.0439 236.938 42.151 236.902C42.5436 236.777 42.8113 236.42 42.8113 235.992V233.654C42.8113 233.315 42.6507 233.029 42.4008 232.851C42.2402 232.743 42.0439 232.672 41.8476 232.672H40.0807C39.7059 232.672 39.3668 232.369 39.3668 231.994C39.3847 231.833 39.4382 231.69 39.5453 231.566C39.581 231.512 39.6345 231.458 39.7059 231.423C40.9731 230.334 41.7762 228.728 41.7762 226.925C41.7762 223.659 39.1348 221 35.8688 221C32.5849 221 29.9435 223.659 29.9257 226.925C29.9257 228.728 30.7288 230.334 31.9959 231.423C32.0227 231.45 32.0495 231.472 32.0762 231.494C32.103 231.516 32.1298 231.539 32.1566 231.566C32.2458 231.673 32.3172 231.833 32.3172 231.994C32.335 232.369 31.9781 232.672 31.6033 232.672H29.8364C29.6223 232.672 29.4438 232.743 29.2832 232.851C29.0333 233.029 28.8727 233.332 28.8727 233.654V235.992C28.8727 236.402 29.1582 236.777 29.533 236.902C29.6401 236.938 29.7472 236.955 29.8543 236.955H30.8716C31.0322 236.955 31.175 237.098 31.175 237.259V237.312C31.175 237.333 31.1688 237.348 31.1638 237.36C31.1602 237.369 31.1571 237.376 31.1571 237.384C30.6485 239.142 30.1353 240.904 29.6222 242.667C29.1091 244.429 28.596 246.191 28.0874 247.949C27.9268 248.485 28.3016 249.038 28.8191 249.038ZM25.3034 253H46.4166C46.5951 253 46.72 252.857 46.72 252.697V250.555C46.72 250.394 46.5772 250.252 46.4166 250.252H25.3034C25.1428 250.252 25 250.394 25 250.555V252.697C25 252.857 25.1428 253 25.3034 253Z" fill="white"/>
<rect width="43" height="43" transform="translate(57 215)" fill="#C6BAAA"/>
<rect width="43" height="43" transform="translate(100 215)" fill="#806C61"/>
<rect width="43" height="43" transform="translate(143 215)" fill="#C6BAAA"/>
<rect width="43" height="43" transform="translate(186 215)" fill="#806C61"/>
<rect width="43" height="43" transform="translate(229 215)" fill="#C6BAAA"/>
<rect width="43" height="43" transform="translate(272 215)" fill="#806C61"/>
<rect width="43" height="43" transform="translate(315 215)" fill="#C6BAAA"/>
<rect width="43" height="43" transform="translate(14 258)" fill="#C6BAAA"/>
<rect width="43" height="43" transform="translate(57 258)" fill="#806C61"/>
<rect width="43" height="43" transform="translate(100 258)" fill="#C6BAAA"/>
<rect width="43" height="43" transform="translate(143 258)" fill="#806C61"/>
<path fill-rule="evenodd" clip-rule="evenodd" d="M171.766 270.929C172.567 270.929 173.351 271.071 174.104 271.321C177.227 272.768 179.251 276.179 179.204 280.036C179.204 283.125 177.901 285.857 175.877 287.571V287.607C175.203 288.125 174.638 288.821 174.245 289.643C174.23 289.67 174.218 289.701 174.206 289.732C174.194 289.763 174.183 289.795 174.167 289.821C174.104 289.964 174.041 290.107 173.994 290.25C173.987 290.277 173.979 290.299 173.971 290.321C173.963 290.344 173.955 290.366 173.947 290.393C173.853 290.625 173.634 290.786 173.382 290.786H154.805C154.554 290.786 154.335 290.607 154.241 290.357V290.339C154.233 290.321 154.229 290.308 154.225 290.295C154.221 290.281 154.217 290.268 154.209 290.25C154.162 290.107 154.099 289.946 154.037 289.804C154.021 289.75 153.989 289.679 153.958 289.625C153.566 288.804 153.001 288.107 152.326 287.589V287.554C150.318 285.839 149 283.107 149 280.018C149 276.179 151.008 272.768 154.162 271.339C154.899 271.071 155.684 270.946 156.484 270.946C156.861 270.946 157.253 270.982 157.614 271.036C158.634 271.196 159.591 271.554 160.454 272.107C160.548 272.214 160.673 272.286 160.815 272.339C160.925 272.393 161.034 272.411 161.16 272.411C161.599 272.411 161.96 272.125 162.133 271.696L162.18 271.571L162.807 269.643L163.027 269.018L163.058 268.946C163.058 268.938 163.062 268.929 163.066 268.92C163.07 268.911 163.074 268.902 163.074 268.893V268.875L163.121 268.732V268.696V268.625C163.105 268.554 163.09 268.482 163.058 268.429C162.98 268.286 162.839 268.196 162.682 268.196H162.619L162.572 268.214C162.556 268.214 162.525 268.214 162.509 268.232C162.494 268.232 162.478 268.232 162.462 268.25C162.454 268.25 162.45 268.254 162.446 268.259C162.443 268.263 162.439 268.268 162.431 268.268L159.92 269.357H159.889C159.826 269.357 159.779 269.321 159.763 269.268V269.25V269.232V265.339C159.763 265.268 159.826 265.214 159.889 265.214H159.905L159.952 265.232L162.525 266.339C162.556 266.357 162.588 266.375 162.619 266.375C162.666 266.393 162.697 266.393 162.745 266.393C162.996 266.393 163.184 266.143 163.168 265.857V265.821V265.786C163.168 265.765 163.163 265.75 163.158 265.738C163.155 265.729 163.153 265.722 163.153 265.714C163.153 265.679 163.137 265.643 163.121 265.625L162.305 263.196V263.179C162.29 263.125 162.305 263.089 162.321 263.054C162.321 263.036 162.337 263.018 162.337 263.018C162.337 263.018 162.337 263 162.352 263.018C162.368 263 162.384 263 162.415 263H165.82H165.851H165.867C165.875 263 165.879 263.004 165.883 263.009C165.887 263.013 165.89 263.018 165.898 263.018C165.945 263.054 165.977 263.107 165.961 263.161L165.945 263.214L165.098 265.625C165.09 265.643 165.086 265.656 165.082 265.67C165.078 265.683 165.075 265.696 165.067 265.714C165.067 265.735 165.061 265.75 165.057 265.762C165.054 265.771 165.051 265.778 165.051 265.786C165.035 265.786 165.035 265.804 165.035 265.821V265.857C165.02 266.143 165.208 266.393 165.459 266.393C165.506 266.393 165.537 266.393 165.584 266.375C165.616 266.375 165.647 266.357 165.679 266.339L168.252 265.232L168.315 265.214H168.33H168.362H168.377C168.385 265.214 168.389 265.219 168.393 265.223C168.397 265.228 168.401 265.232 168.409 265.232C168.456 265.268 168.471 265.304 168.471 265.357V269.196V269.214V269.232C168.471 269.25 168.471 269.268 168.456 269.286L168.44 269.304C168.432 269.304 168.428 269.308 168.424 269.312C168.42 269.317 168.417 269.321 168.409 269.321C168.399 269.332 168.396 269.336 168.391 269.338C168.388 269.339 168.384 269.339 168.377 269.339H168.33C168.322 269.339 168.318 269.335 168.315 269.33C168.311 269.326 168.307 269.321 168.299 269.321L165.804 268.232C165.795 268.222 165.791 268.217 165.786 268.216C165.783 268.214 165.779 268.214 165.773 268.214C165.765 268.214 165.757 268.21 165.749 268.205C165.741 268.201 165.734 268.196 165.726 268.196C165.718 268.196 165.706 268.192 165.694 268.187C165.683 268.183 165.671 268.179 165.663 268.179L165.616 268.161H165.553C165.396 268.161 165.255 268.25 165.177 268.393C165.145 268.446 165.114 268.518 165.114 268.589V268.661V268.696L165.161 268.839V268.857C165.161 268.866 165.165 268.875 165.169 268.884C165.173 268.893 165.177 268.902 165.177 268.911L165.208 268.982L165.412 269.607L166.071 271.554L166.118 271.679C166.275 272.089 166.651 272.393 167.091 272.393C167.201 272.393 167.326 272.375 167.436 272.321C167.577 272.286 167.687 272.196 167.797 272.089C168.66 271.554 169.617 271.179 170.637 271.018C170.998 270.964 171.39 270.929 171.766 270.929ZM156.798 275.652C156.802 275.647 156.806 275.643 156.814 275.643C156.782 275.625 156.751 275.607 156.672 275.625C156.625 275.625 156.563 275.607 156.516 275.589L156.421 275.571C156.374 275.554 156.312 275.536 156.265 275.536C156.241 275.536 156.214 275.531 156.186 275.527C156.159 275.522 156.131 275.518 156.108 275.518H156.076C155.982 275.5 155.888 275.5 155.794 275.5H155.621C155.543 275.5 155.464 275.5 155.386 275.518C155.352 275.518 155.323 275.523 155.296 275.528C155.273 275.532 155.251 275.536 155.229 275.536C155.205 275.545 155.182 275.549 155.158 275.554C155.135 275.558 155.111 275.562 155.088 275.571C155.049 275.58 155.009 275.594 154.97 275.607C154.931 275.621 154.892 275.634 154.852 275.643C154.834 275.643 154.821 275.649 154.81 275.654C154.803 275.658 154.796 275.661 154.79 275.661C154.782 275.661 154.774 275.665 154.766 275.67C154.758 275.674 154.75 275.679 154.743 275.679C154.617 275.714 154.476 275.768 154.35 275.839C154.209 275.911 154.052 276 153.895 276.125C153.613 276.321 153.409 276.536 153.252 276.714C153.111 276.911 152.907 277.196 152.734 277.589C152.483 278.161 152.405 278.643 152.358 279C152.311 279.357 152.279 279.875 152.326 280.482C152.326 281.232 152.436 281.982 152.656 282.696C153.095 284.089 153.895 285.268 154.962 286.071C155.135 286.196 155.307 286.321 155.496 286.429C155.715 286.571 155.935 286.679 156.155 286.768C156.163 286.768 156.174 286.772 156.186 286.777C156.198 286.781 156.21 286.786 156.217 286.786H156.249C156.343 286.786 156.421 286.696 156.421 286.589C156.421 286.554 156.359 286.446 156.343 286.429C156.338 286.422 156.333 286.415 156.328 286.408C156.268 286.323 156.196 286.22 156.123 286.071C155.574 285.036 154.727 282.607 154.648 282.125V282.071C154.648 282.055 154.645 282.036 154.642 282.014C154.638 281.988 154.633 281.958 154.633 281.929V281.911C154.617 281.839 154.601 281.75 154.601 281.679C154.601 281.643 154.597 281.603 154.594 281.562C154.59 281.522 154.586 281.482 154.586 281.446C154.57 281.286 154.57 281.107 154.57 280.929C154.57 280.196 154.68 279.482 154.884 278.839C154.915 278.732 154.947 278.643 154.978 278.554C154.986 278.545 154.99 278.531 154.994 278.518C154.998 278.504 155.001 278.491 155.009 278.482C155.021 278.455 155.031 278.43 155.039 278.409C155.053 278.375 155.062 278.35 155.072 278.339C155.245 277.929 155.339 277.732 155.402 277.607C155.415 277.583 155.429 277.558 155.443 277.531C155.515 277.398 155.611 277.222 155.794 276.911C155.841 276.821 155.872 276.768 155.904 276.714C155.912 276.696 155.923 276.679 155.935 276.661C155.947 276.643 155.959 276.625 155.966 276.607C155.975 276.593 155.982 276.58 155.989 276.568C156.007 276.534 156.022 276.508 156.045 276.482C156.061 276.464 156.072 276.446 156.084 276.429C156.096 276.411 156.108 276.393 156.123 276.375C156.139 276.357 156.155 276.335 156.17 276.312C156.186 276.29 156.202 276.268 156.217 276.25V276.232C156.223 276.225 156.227 276.219 156.23 276.213C156.235 276.203 156.239 276.196 156.249 276.196C156.271 276.184 156.285 276.163 156.297 276.145C156.302 276.137 156.307 276.13 156.312 276.125C156.421 276 156.531 275.875 156.657 275.768C156.68 275.75 156.7 275.732 156.72 275.714C156.739 275.696 156.759 275.679 156.782 275.661C156.79 275.661 156.794 275.656 156.798 275.652ZM163.435 275.321L162.258 276.661C162.101 276.839 162.101 277.107 162.258 277.286L163.843 279.089C163.921 279.179 164.031 279.214 164.125 279.214C164.235 279.214 164.329 279.179 164.408 279.089L165.992 277.268C166.149 277.107 166.149 276.839 165.992 276.661L164.816 275.321L164.408 274.857C164.329 274.768 164.235 274.732 164.125 274.732C164.031 274.732 163.921 274.768 163.843 274.857L163.435 275.321ZM165.773 286.089L167.232 284.429C167.483 284.143 167.483 283.679 167.232 283.393L164.58 280.375C164.439 280.232 164.282 280.161 164.11 280.161C163.937 280.161 163.764 280.232 163.639 280.375L160.987 283.393C160.736 283.679 160.736 284.143 160.987 284.429L162.446 286.089L162.729 286.411L163.639 287.446C163.78 287.589 163.937 287.661 164.11 287.661C164.282 287.661 164.455 287.589 164.58 287.446L165.49 286.411L165.773 286.089ZM175.563 282.714C175.783 281.982 175.893 281.232 175.893 280.482C175.94 279.875 175.909 279.357 175.814 279L175.814 278.995C175.767 278.639 175.704 278.158 175.454 277.589C175.281 277.196 175.093 276.911 174.936 276.714C174.779 276.536 174.559 276.321 174.293 276.125C174.136 276 173.979 275.911 173.837 275.839L173.837 275.839C173.712 275.786 173.586 275.732 173.445 275.679C173.437 275.679 173.43 275.674 173.422 275.67C173.414 275.665 173.406 275.661 173.398 275.661C173.38 275.661 173.367 275.655 173.356 275.65C173.348 275.646 173.342 275.643 173.335 275.643C173.257 275.607 173.179 275.589 173.1 275.571C173.077 275.562 173.053 275.558 173.029 275.554C173.006 275.549 172.982 275.545 172.959 275.536C172.925 275.536 172.896 275.531 172.869 275.526C172.846 275.522 172.824 275.518 172.802 275.518C172.763 275.518 172.723 275.513 172.684 275.509C172.645 275.504 172.606 275.5 172.567 275.5H172.394C172.3 275.5 172.206 275.5 172.112 275.518H172.08C172.058 275.518 172.037 275.522 172.013 275.526C171.986 275.531 171.957 275.536 171.923 275.536C171.9 275.545 171.872 275.549 171.845 275.554C171.817 275.558 171.79 275.562 171.766 275.571L171.672 275.589C171.625 275.589 171.562 275.607 171.515 275.625C171.5 275.634 171.484 275.638 171.468 275.643C171.453 275.647 171.437 275.652 171.421 275.661C171.429 275.661 171.433 275.665 171.437 275.67C171.441 275.674 171.445 275.679 171.453 275.679C171.476 275.696 171.496 275.714 171.515 275.732C171.535 275.75 171.555 275.768 171.578 275.786C171.704 275.893 171.813 276.018 171.923 276.143C171.945 276.155 171.959 276.176 171.971 276.194C171.977 276.202 171.981 276.209 171.986 276.214C171.986 276.223 171.99 276.228 171.994 276.232C171.998 276.237 172.002 276.241 172.002 276.25L172.017 276.268C172.033 276.286 172.049 276.308 172.065 276.33C172.08 276.353 172.096 276.375 172.112 276.393C172.143 276.429 172.174 276.464 172.19 276.5C172.198 276.514 172.206 276.527 172.212 276.54C172.231 276.573 172.246 276.599 172.268 276.625C172.276 276.643 172.288 276.661 172.3 276.679C172.312 276.696 172.323 276.714 172.331 276.732L172.331 276.732C172.363 276.786 172.394 276.839 172.441 276.929C172.645 277.286 172.755 277.482 172.833 277.625C172.896 277.75 172.99 277.946 173.163 278.357C173.173 278.368 173.182 278.393 173.196 278.427C173.204 278.448 173.214 278.473 173.226 278.5C173.241 278.518 173.257 278.554 173.257 278.571C173.273 278.616 173.288 278.665 173.304 278.714C173.32 278.763 173.335 278.812 173.351 278.857C173.555 279.5 173.665 280.214 173.665 280.946V280.946C173.665 281.107 173.665 281.286 173.649 281.464C173.649 281.536 173.649 281.625 173.634 281.696C173.626 281.732 173.622 281.772 173.618 281.812C173.614 281.853 173.61 281.893 173.602 281.929V281.946C173.602 281.962 173.599 281.982 173.595 282.004C173.591 282.03 173.586 282.06 173.586 282.089C173.571 282.107 173.571 282.125 173.571 282.143C173.492 282.625 172.645 285.054 172.096 286.089C172.023 286.238 171.951 286.341 171.891 286.426C171.886 286.433 171.881 286.44 171.876 286.446C171.861 286.464 171.798 286.571 171.798 286.607C171.798 286.714 171.876 286.804 171.97 286.804H172.002C172.01 286.804 172.021 286.799 172.033 286.795C172.045 286.79 172.057 286.786 172.065 286.786C172.284 286.679 172.504 286.571 172.723 286.446C172.912 286.339 173.084 286.214 173.257 286.089C174.324 285.286 175.14 284.107 175.563 282.714ZM154.838 295H173.399C173.556 295 173.666 294.857 173.666 294.696V292.554C173.666 292.393 173.541 292.25 173.399 292.25H154.838C154.697 292.25 154.571 292.393 154.571 292.554V294.696C154.571 294.857 154.697 295 154.838 295Z" fill="white"/>
<rect width="43" height="43" transform="translate(186 258)" fill="#C6BAAA"/>
<rect width="43" height="43" transform="translate(229 258)" fill="#806C61"/>
<rect width="43" height="43" transform="translate(272 258)" fill="#C6BAAA"/>
<rect width="43" height="43" transform="translate(315 258)" fill="#806C61"/>
<path d="M14 301H57V344H18C15.7909 344 14 342.209 14 340V301Z" fill="#806C61"/>
<rect width="43" height="43" transform="translate(57 301)" fill="#C6BAAA"/>
<rect width="43" height="43" transform="translate(100 301)" fill="#806C61"/>
<rect width="43" height="43" transform="translate(143 301)" fill="#C6BAAA"/>
<rect width="43" height="43" transform="translate(186 301)" fill="#806C61"/>
<rect width="43" height="43" transform="translate(229 301)" fill="#C6BAAA"/>
<rect width="43" height="43" transform="translate(272 301)" fill="#806C61"/>
<path d="M315 301H358V340C358 342.209 356.209 344 354 344H315V301Z" fill="#C6BAAA"/>
<path d="M35.7109 348.605L33.1621 356H31.6211L34.832 347.469H35.8164L35.7109 348.605ZM37.8438 356L35.2891 348.605L35.1777 347.469H36.168L39.3906 356H37.8438ZM37.7207 352.836V354.002H33.0801V352.836H37.7207Z" fill="#806C61"/>
<path d="M78.7754 352.145H76.6016L76.5898 351.072H78.4883C78.8086 351.072 79.0801 351.025 79.3027 350.932C79.5293 350.834 79.7012 350.695 79.8184 350.516C79.9355 350.332 79.9941 350.111 79.9941 349.854C79.9941 349.568 79.9395 349.336 79.8301 349.156C79.7207 348.977 79.5527 348.846 79.3262 348.764C79.1035 348.682 78.8184 348.641 78.4707 348.641H77.0469V356H75.5762V347.469H78.4707C78.9395 347.469 79.3574 347.514 79.7246 347.604C80.0957 347.693 80.4102 347.834 80.668 348.025C80.9297 348.213 81.127 348.451 81.2598 348.74C81.3965 349.029 81.4648 349.373 81.4648 349.771C81.4648 350.123 81.3809 350.445 81.2129 350.738C81.0449 351.027 80.7969 351.264 80.4688 351.447C80.1406 351.631 79.7324 351.74 79.2441 351.775L78.7754 352.145ZM78.7109 356H76.1387L76.8008 354.834H78.7109C79.043 354.834 79.3203 354.779 79.543 354.67C79.7656 354.557 79.9316 354.402 80.041 354.207C80.1543 354.008 80.2109 353.775 80.2109 353.51C80.2109 353.232 80.1621 352.992 80.0645 352.789C79.9668 352.582 79.8125 352.424 79.6016 352.314C79.3906 352.201 79.1152 352.145 78.7754 352.145H77.123L77.1348 351.072H79.2852L79.6191 351.477C80.0879 351.492 80.4727 351.596 80.7734 351.787C81.0781 351.979 81.3047 352.227 81.4531 352.531C81.6016 352.836 81.6758 353.164 81.6758 353.516C81.6758 354.059 81.5566 354.514 81.3184 354.881C81.084 355.248 80.7461 355.527 80.3047 355.719C79.8633 355.906 79.332 356 78.7109 356Z" fill="#806C61"/>
<path d="M123.486 353.223H124.951C124.904 353.781 124.748 354.279 124.482 354.717C124.217 355.15 123.844 355.492 123.363 355.742C122.883 355.992 122.299 356.117 121.611 356.117C121.084 356.117 120.609 356.023 120.188 355.836C119.766 355.645 119.404 355.375 119.104 355.027C118.803 354.676 118.572 354.252 118.412 353.756C118.256 353.26 118.178 352.705 118.178 352.092V351.383C118.178 350.77 118.258 350.215 118.418 349.719C118.582 349.223 118.816 348.799 119.121 348.447C119.426 348.092 119.791 347.82 120.217 347.633C120.646 347.445 121.129 347.352 121.664 347.352C122.344 347.352 122.918 347.477 123.387 347.727C123.855 347.977 124.219 348.322 124.477 348.764C124.738 349.205 124.898 349.711 124.957 350.281H123.492C123.453 349.914 123.367 349.6 123.234 349.338C123.105 349.076 122.914 348.877 122.66 348.74C122.406 348.6 122.074 348.529 121.664 348.529C121.328 348.529 121.035 348.592 120.785 348.717C120.535 348.842 120.326 349.025 120.158 349.268C119.99 349.51 119.863 349.809 119.777 350.164C119.695 350.516 119.654 350.918 119.654 351.371V352.092C119.654 352.521 119.691 352.912 119.766 353.264C119.844 353.611 119.961 353.91 120.117 354.16C120.277 354.41 120.48 354.604 120.727 354.74C120.973 354.877 121.268 354.945 121.611 354.945C122.029 354.945 122.367 354.879 122.625 354.746C122.887 354.613 123.084 354.42 123.217 354.166C123.354 353.908 123.443 353.594 123.486 353.223Z" fill="#806C61"/>
<path d="M163.926 356H162.104L162.115 354.834H163.926C164.453 354.834 164.895 354.719 165.25 354.488C165.609 354.258 165.879 353.928 166.059 353.498C166.242 353.068 166.334 352.557 166.334 351.963V351.5C166.334 351.039 166.281 350.631 166.176 350.275C166.074 349.92 165.922 349.621 165.719 349.379C165.52 349.137 165.273 348.953 164.98 348.828C164.691 348.703 164.357 348.641 163.979 348.641H162.068V347.469H163.979C164.545 347.469 165.062 347.564 165.531 347.756C166 347.943 166.404 348.215 166.744 348.57C167.088 348.926 167.352 349.352 167.535 349.848C167.719 350.344 167.811 350.898 167.811 351.512V351.963C167.811 352.576 167.719 353.131 167.535 353.627C167.352 354.123 167.088 354.549 166.744 354.904C166.4 355.256 165.99 355.527 165.514 355.719C165.041 355.906 164.512 356 163.926 356ZM162.918 347.469V356H161.447V347.469H162.918Z" fill="#806C61"/>
<path d="M210.559 354.834V356H206.029V354.834H210.559ZM206.445 347.469V356H204.975V347.469H206.445ZM209.967 351.031V352.18H206.029V351.031H209.967ZM210.529 347.469V348.641H206.029V347.469H210.529Z" fill="#806C61"/>
<path d="M249.533 347.469V356H248.062V347.469H249.533ZM253.014 351.201V352.367H249.158V351.201H253.014ZM253.5 347.469V348.641H249.158V347.469H253.5Z" fill="#806C61"/>
<path d="M296.828 351.641V354.898C296.707 355.059 296.518 355.234 296.26 355.426C296.006 355.613 295.668 355.775 295.246 355.912C294.824 356.049 294.299 356.117 293.67 356.117C293.135 356.117 292.645 356.027 292.199 355.848C291.754 355.664 291.369 355.396 291.045 355.045C290.725 354.693 290.477 354.266 290.301 353.762C290.125 353.254 290.037 352.676 290.037 352.027V351.436C290.037 350.791 290.117 350.217 290.277 349.713C290.441 349.205 290.676 348.775 290.98 348.424C291.285 348.072 291.652 347.807 292.082 347.627C292.516 347.443 293.006 347.352 293.553 347.352C294.252 347.352 294.83 347.469 295.287 347.703C295.748 347.934 296.104 348.254 296.354 348.664C296.604 349.074 296.762 349.543 296.828 350.07H295.387C295.34 349.773 295.248 349.508 295.111 349.273C294.979 349.039 294.787 348.855 294.537 348.723C294.291 348.586 293.971 348.518 293.576 348.518C293.236 348.518 292.938 348.582 292.68 348.711C292.422 348.84 292.207 349.029 292.035 349.279C291.867 349.529 291.74 349.834 291.654 350.193C291.568 350.553 291.525 350.963 291.525 351.424V352.027C291.525 352.496 291.574 352.912 291.672 353.275C291.773 353.639 291.918 353.945 292.105 354.195C292.297 354.445 292.529 354.635 292.803 354.764C293.076 354.889 293.385 354.951 293.729 354.951C294.064 354.951 294.34 354.924 294.555 354.869C294.77 354.811 294.939 354.742 295.064 354.664C295.193 354.582 295.293 354.504 295.363 354.43V352.736H293.588V351.641H296.828Z" fill="#806C61"/>
<path d="M338.744 351.031V352.197H334.215V351.031H338.744ZM334.578 347.469V356H333.107V347.469H334.578ZM339.875 347.469V356H338.41V347.469H339.875Z" fill="#806C61"/>
</svg>
