<svg width="35" height="35" viewBox="0 0 35 35" fill="none" xmlns="http://www.w3.org/2000/svg">
<path fill-rule="evenodd" clip-rule="evenodd" d="M22.605 16.7887H12.647C11.7646 16.7887 10.8823 16.1549 10.7562 15.2042C10.7562 14.3592 11.5125 13.7254 12.5209 13.7254H13.6554C13.1512 12.9859 12.773 12.0352 12.773 10.7676C12.773 8.76056 14.9159 6.33098 16.3025 5.06338C15.7983 4.85211 15.4201 4.32394 15.4201 3.69014C15.4201 2.73944 16.3025 2 17.4369 2C18.5714 2 19.4537 2.73944 19.4537 3.69014C19.4537 4.21831 19.0756 4.74648 18.5714 5.06338C19.0756 5.48591 19.7058 6.11972 20.21 6.75352C20.3361 6.85916 20.3361 7.07042 20.21 7.17605L17.563 9.39437C17.1848 9.8169 17.1848 10.3451 17.563 10.662C17.8151 10.7676 18.0672 10.8732 18.3193 10.8732H18.3193C18.5714 10.8732 18.8235 10.8732 19.0756 10.662L21.3445 8.76056C21.4705 8.65493 21.7226 8.65493 21.7226 8.76056C22.1008 9.5 22.3529 10.2394 22.3529 10.8732C22.3529 12.1408 22.1008 13.0916 21.4705 13.831H22.605C23.6134 13.831 24.3697 14.4648 24.3697 15.3099C24.3697 16.1549 23.6134 16.7887 22.605 16.7887ZM14.0336 18.5845H21.0924C21.9748 21.4366 23.2353 24.2887 24.2437 26.2958C24.7479 27.3521 25 28.4084 25 29.4648C25 30.838 23.6134 32 21.8487 32H13.1513C11.3866 32 10 30.838 10 29.3592C10 28.3028 10.2521 27.2465 10.7563 26.2958C11.8908 24.1831 13.2773 21.4366 14.0336 18.5845Z" fill="white"/>
</svg>
