<svg width="35" height="35" viewBox="0 0 35 35" fill="none" xmlns="http://www.w3.org/2000/svg">
<path fill-rule="evenodd" clip-rule="evenodd" d="M22.378 15.6792H12.6346C11.6479 15.6792 10.7846 15.0723 10.7846 14.263C10.7846 13.4538 11.5246 12.8468 12.5112 12.8468H13.7446L12.1412 8.49711C11.8946 7.89018 12.3879 7.18209 13.1279 6.97977L16.3346 6.17052V3.74278H14.6079C14.2379 3.74278 13.9913 3.54046 13.9913 3.237V2.42775C13.9913 2.12428 14.2379 1.92197 14.6079 1.92197H16.3346V0.505781C16.3346 0.202312 16.5813 0 16.9513 0H17.9379C18.308 0 18.5546 0.202312 18.5546 0.505781V1.92197H20.2813C20.6513 1.92197 20.898 2.12428 20.898 2.42775V3.237C20.898 3.54046 20.6513 3.74278 20.2813 3.74278H18.5546V6.17052L21.7613 6.97977C22.5013 7.18209 22.9946 7.89018 22.748 8.49711L21.1446 12.8468H22.378C23.3647 12.8468 24.1047 13.4538 24.1047 14.263C24.1047 15.0723 23.3647 15.6792 22.378 15.6792ZM14.3612 17.5H20.5279C20.8979 21.3439 22.9946 26.5029 24.4746 29.6387C24.8446 30.6503 25.0913 31.763 24.9679 32.7746C24.8446 33.9884 23.4879 35 21.8846 35H13.1278C11.5245 35 10.1678 34.0896 10.0445 32.7746C9.92115 31.6619 10.0445 30.6503 10.5378 29.6387C11.8945 26.5029 13.9912 21.3439 14.3612 17.5Z" fill="white"/>
</svg>
