<svg width="35" height="35" viewBox="0 0 35 35" fill="none" xmlns="http://www.w3.org/2000/svg">
<path fill-rule="evenodd" clip-rule="evenodd" d="M24.3435 9.43303C25.0937 9.43303 25.8291 9.56696 26.5352 9.80134C29.4624 11.1574 31.3599 14.3549 31.3158 17.971C31.3158 20.8672 30.0949 23.4286 28.1974 25.0357V25.0692C27.5649 25.5547 27.0353 26.2076 26.6676 26.9777C26.6529 27.0028 26.6418 27.0321 26.6308 27.0614C26.6198 27.0907 26.6088 27.12 26.594 27.1451C26.5352 27.279 26.4764 27.4129 26.4322 27.5469C26.4249 27.572 26.4175 27.5929 26.4102 27.6138C26.4028 27.6348 26.3955 27.6557 26.3881 27.6808C26.2999 27.8984 26.0939 28.0491 25.8586 28.0491H8.44252C8.20716 28.0491 8.00123 27.8817 7.91297 27.6473V27.6306C7.90562 27.6138 7.90194 27.6013 7.89826 27.5887C7.89459 27.5762 7.89091 27.5636 7.88355 27.5469C7.83943 27.4129 7.78059 27.2623 7.72175 27.1283C7.70704 27.0781 7.67762 27.0112 7.6482 26.9609C7.28047 26.1908 6.75092 25.5379 6.11841 25.0525V25.019C4.2356 23.4118 3 20.8504 3 17.9542C3 14.3549 4.88282 11.1574 7.83943 9.81808C8.53077 9.56696 9.26625 9.44978 10.0164 9.44978C10.3695 9.44978 10.7372 9.48326 11.0755 9.53348C12.0316 9.68415 12.9289 10.019 13.7379 10.5379C13.8262 10.6384 13.9439 10.7054 14.0763 10.7556C14.1792 10.8058 14.2822 10.8225 14.3999 10.8225C14.8117 10.8225 15.15 10.5547 15.3119 10.1529L15.356 10.0357L15.9444 8.22768L16.1503 7.64174L16.1797 7.57478C16.1797 7.56641 16.1834 7.55803 16.1871 7.54966C16.1907 7.54129 16.1944 7.53292 16.1944 7.52455V7.50781L16.2386 7.37388V7.3404V7.27344C16.2238 7.20647 16.2091 7.13951 16.1797 7.08928C16.1062 6.95536 15.9738 6.87165 15.8267 6.87165H15.7678L15.7237 6.88839C15.709 6.88839 15.6796 6.88839 15.6649 6.90513C15.6502 6.90513 15.6355 6.90513 15.6208 6.92187C15.6134 6.92187 15.6097 6.92606 15.606 6.93024C15.6024 6.93443 15.5987 6.93862 15.5913 6.93862L13.2378 7.95982H13.2084C13.1496 7.95982 13.1054 7.92634 13.0907 7.87612V7.85937V7.84263V4.19308C13.0907 4.12612 13.1496 4.07589 13.2084 4.07589H13.2231L13.2672 4.09263L15.6796 5.13058C15.709 5.14732 15.7384 5.16406 15.7678 5.16406C15.812 5.1808 15.8414 5.1808 15.8855 5.1808C16.1209 5.1808 16.2974 4.94643 16.2827 4.67857V4.64509V4.61161C16.2827 4.59199 16.2776 4.57812 16.2735 4.56664C16.2705 4.55851 16.268 4.55158 16.268 4.54464C16.268 4.51116 16.2533 4.47768 16.2386 4.46094L15.4737 2.18415V2.16741C15.4589 2.11719 15.4737 2.08371 15.4884 2.05022C15.4884 2.03348 15.5031 2.01674 15.5031 2.01674C15.5031 2.01674 15.5031 2 15.5178 2.01674C15.5325 2 15.5472 2 15.5766 2H18.7686H18.798H18.8127C18.8201 2 18.8237 2.00419 18.8274 2.00837C18.8311 2.01256 18.8348 2.01674 18.8421 2.01674C18.8863 2.05022 18.9157 2.10045 18.901 2.15067L18.8863 2.20089L18.0919 4.46094C18.0846 4.47768 18.0809 4.49023 18.0772 4.50279C18.0736 4.51535 18.0699 4.5279 18.0625 4.54464C18.0625 4.56426 18.0575 4.57812 18.0533 4.58961C18.0503 4.59774 18.0478 4.60467 18.0478 4.61161C18.0331 4.61161 18.0331 4.62835 18.0331 4.64509V4.67857C18.0184 4.94643 18.1949 5.1808 18.4303 5.1808C18.4744 5.1808 18.5038 5.1808 18.5479 5.16406C18.5774 5.16406 18.6068 5.14732 18.6362 5.13058L21.0486 4.09263L21.1074 4.07589H21.1221H21.1515H21.1662C21.1736 4.07589 21.1773 4.08008 21.1809 4.08426C21.1846 4.08845 21.1883 4.09263 21.1957 4.09263C21.2398 4.12612 21.2545 4.1596 21.2545 4.20982V7.80915V7.82589V7.84263C21.2545 7.85937 21.2545 7.87612 21.2398 7.89286L21.2251 7.9096C21.2177 7.9096 21.214 7.91378 21.2104 7.91797C21.2067 7.92215 21.203 7.92634 21.1957 7.92634C21.187 7.93618 21.1834 7.94024 21.179 7.94191C21.1759 7.94308 21.1723 7.94308 21.1662 7.94308H21.1221C21.1148 7.94308 21.1111 7.93889 21.1074 7.93471C21.1037 7.93052 21.1 7.92634 21.0927 7.92634L18.7539 6.90513C18.7452 6.89529 18.7417 6.89123 18.7372 6.88956C18.7341 6.88839 18.7305 6.88839 18.7245 6.88839C18.7171 6.88839 18.7097 6.88421 18.7024 6.88002C18.695 6.87584 18.6877 6.87165 18.6803 6.87165C18.673 6.87165 18.6619 6.86747 18.6509 6.86328C18.6399 6.8591 18.6288 6.85491 18.6215 6.85491L18.5774 6.83817H18.5185C18.3714 6.83817 18.239 6.92187 18.1655 7.0558C18.1361 7.10603 18.1067 7.17299 18.1067 7.23995V7.30692V7.3404L18.1508 7.47433V7.49107C18.1508 7.49944 18.1545 7.50781 18.1581 7.51618C18.1618 7.52455 18.1655 7.53292 18.1655 7.54129L18.1949 7.60826L18.3861 8.1942L19.0039 10.019L19.0481 10.1362C19.1952 10.5212 19.5482 10.8058 19.9601 10.8058C20.063 10.8058 20.1807 10.7891 20.2837 10.7388C20.416 10.7054 20.519 10.6217 20.622 10.5212C21.431 10.019 22.3283 9.66741 23.2844 9.51674C23.6227 9.46652 23.9905 9.43303 24.3435 9.43303ZM10.3106 13.861C10.3143 13.8569 10.318 13.8527 10.3253 13.8527C10.2959 13.8359 10.2665 13.8192 10.1929 13.8359C10.1488 13.8359 10.09 13.8192 10.0459 13.8025L9.95759 13.7857C9.91347 13.769 9.85463 13.7522 9.8105 13.7522C9.78844 13.7522 9.76269 13.748 9.73695 13.7439C9.71121 13.7397 9.68547 13.7355 9.6634 13.7355H9.63399C9.54573 13.7187 9.45747 13.7187 9.36921 13.7187H9.20741C9.13386 13.7187 9.06032 13.7187 8.98677 13.7355C8.95524 13.7355 8.92793 13.7403 8.90258 13.7448C8.88063 13.7486 8.86015 13.7522 8.83967 13.7522C8.81761 13.7606 8.79554 13.7648 8.77348 13.769C8.75141 13.7732 8.72935 13.7773 8.70729 13.7857C8.67051 13.7941 8.63374 13.8066 8.59697 13.8192C8.56019 13.8318 8.52342 13.8443 8.48664 13.8527C8.46941 13.8527 8.45723 13.8584 8.44713 13.8632C8.43999 13.8665 8.4339 13.8694 8.42781 13.8694C8.42045 13.8694 8.4131 13.8736 8.40574 13.8778C8.39839 13.882 8.39103 13.8862 8.38368 13.8862C8.266 13.9196 8.13362 13.9699 8.01594 14.0368C7.88355 14.1038 7.73646 14.1875 7.58937 14.3047C7.32459 14.4888 7.13337 14.6897 6.98628 14.8571C6.85389 15.0413 6.66267 15.3092 6.50086 15.6775C6.26551 16.2132 6.19196 16.6652 6.14783 17C6.1037 17.3348 6.07429 17.8203 6.11841 18.3895C6.11841 19.0926 6.22138 19.7958 6.42731 20.4654C6.83918 21.7712 7.58936 22.8761 8.58961 23.6295C8.75142 23.7466 8.91322 23.8638 9.08973 23.9643C9.29567 24.0982 9.5016 24.1987 9.70753 24.2824C9.71489 24.2824 9.72592 24.2865 9.73695 24.2907C9.74798 24.2949 9.75902 24.2991 9.76637 24.2991H9.79579C9.88405 24.2991 9.95759 24.2154 9.95759 24.115C9.95759 24.0815 9.89876 23.981 9.88405 23.9643C9.8796 23.958 9.87507 23.9515 9.87046 23.945C9.81409 23.8651 9.7461 23.7687 9.67811 23.6295C9.16328 22.6585 8.36897 20.3817 8.29542 19.9297V19.8795C8.29542 19.8644 8.29245 19.846 8.28918 19.8257C8.28517 19.8008 8.28071 19.7732 8.28071 19.7455V19.7288C8.266 19.6618 8.25129 19.5781 8.25129 19.5112C8.25129 19.4777 8.24761 19.44 8.24394 19.4023C8.24026 19.3647 8.23658 19.327 8.23658 19.2935C8.22187 19.1429 8.22187 18.9754 8.22187 18.808C8.22187 18.1216 8.32484 17.452 8.51606 16.8493C8.54548 16.7489 8.5749 16.6652 8.60432 16.5815C8.61167 16.5731 8.61535 16.5605 8.61903 16.548C8.62271 16.5354 8.62638 16.5229 8.63374 16.5145C8.64498 16.4889 8.65407 16.4658 8.66183 16.446C8.6744 16.4141 8.68349 16.3909 8.69258 16.3806C8.85438 15.9955 8.94264 15.8114 9.00148 15.6942C9.0139 15.6716 9.02674 15.648 9.0405 15.6227C9.10819 15.4985 9.19806 15.3335 9.36921 15.0413C9.41334 14.9576 9.44276 14.9074 9.47218 14.8571C9.47954 14.8404 9.49057 14.8237 9.5016 14.8069C9.51263 14.7902 9.52366 14.7734 9.53102 14.7567C9.5389 14.7432 9.54573 14.731 9.55206 14.7196C9.56938 14.6885 9.58303 14.664 9.60457 14.6395C9.61928 14.6228 9.63031 14.606 9.64134 14.5893C9.65237 14.5725 9.6634 14.5558 9.67811 14.5391C9.69282 14.5223 9.70753 14.5014 9.72224 14.4805C9.73695 14.4595 9.75166 14.4386 9.76637 14.4219V14.4051C9.77199 14.3987 9.77546 14.3923 9.77843 14.3869C9.78323 14.378 9.7867 14.3716 9.79579 14.3716C9.8163 14.36 9.82966 14.3402 9.84086 14.3236C9.84572 14.3164 9.85017 14.3098 9.85463 14.3047C9.95759 14.1875 10.0606 14.0703 10.1782 13.9699C10.2003 13.9531 10.2187 13.9364 10.2371 13.9196C10.2555 13.9029 10.2738 13.8862 10.2959 13.8694C10.3033 13.8694 10.3069 13.8652 10.3106 13.861ZM16.5327 13.5513L15.4295 14.8069C15.2824 14.9743 15.2824 15.2254 15.4295 15.3929L16.9152 17.0837C16.9887 17.1674 17.0917 17.2009 17.18 17.2009C17.2829 17.2009 17.3712 17.1674 17.4447 17.0837L18.9304 15.3761C19.0775 15.2254 19.0775 14.9743 18.9304 14.8069L17.8272 13.5513L17.4447 13.1161C17.3712 13.0324 17.2829 12.9989 17.18 12.9989C17.0917 12.9989 16.9887 13.0324 16.9152 13.1161L16.5327 13.5513ZM18.7245 23.6462L20.0924 22.0893C20.3278 21.8214 20.3278 21.3862 20.0924 21.1183L17.6065 18.2891C17.4742 18.1551 17.3271 18.0882 17.1653 18.0882C17.0034 18.0882 16.8416 18.1551 16.724 18.2891L14.2381 21.1183C14.0027 21.3862 14.0027 21.8214 14.2381 22.0893L15.606 23.6462L15.8708 23.9475L16.724 24.9185C16.8564 25.0525 17.0034 25.1194 17.1653 25.1194C17.3271 25.1194 17.4889 25.0525 17.6065 24.9185L18.4597 23.9475L18.7245 23.6462ZM27.9032 20.4821C28.1091 19.7958 28.2121 19.0926 28.2121 18.3895C28.2562 17.8203 28.2268 17.3348 28.1385 17L28.138 16.9955C28.0939 16.6612 28.0345 16.2108 27.8002 15.6775C27.6384 15.3092 27.4619 15.0413 27.3148 14.8571C27.1677 14.6897 26.9618 14.4888 26.7117 14.3047C26.5646 14.1875 26.4175 14.1038 26.2851 14.0368C26.1675 13.9866 26.0498 13.9364 25.9174 13.8862C25.9101 13.8862 25.9027 13.882 25.8953 13.8778C25.888 13.8736 25.8806 13.8694 25.8733 13.8694C25.856 13.8694 25.8439 13.8637 25.8338 13.8589C25.8266 13.8555 25.8205 13.8527 25.8144 13.8527C25.7409 13.8192 25.6673 13.8025 25.5938 13.7857C25.5717 13.7773 25.5497 13.7732 25.5276 13.769C25.5055 13.7648 25.4835 13.7606 25.4614 13.7522C25.4299 13.7522 25.4026 13.7474 25.3772 13.743C25.3553 13.7391 25.3348 13.7355 25.3143 13.7355C25.2775 13.7355 25.2408 13.7313 25.204 13.7271C25.1672 13.7229 25.1304 13.7187 25.0937 13.7187H24.9319C24.8436 13.7187 24.7554 13.7187 24.6671 13.7355H24.6377C24.6172 13.7355 24.5967 13.7391 24.5748 13.743C24.5494 13.7474 24.5221 13.7522 24.4906 13.7522C24.4685 13.7606 24.4428 13.7648 24.417 13.769C24.3913 13.7732 24.3656 13.7773 24.3435 13.7857L24.2552 13.8025C24.2111 13.8025 24.1523 13.8192 24.1081 13.8359C24.0934 13.8443 24.0787 13.8485 24.064 13.8527C24.0493 13.8569 24.0346 13.861 24.0199 13.8694C24.0272 13.8694 24.0309 13.8736 24.0346 13.8778C24.0383 13.882 24.0419 13.8862 24.0493 13.8862C24.0714 13.9029 24.0897 13.9196 24.1081 13.9364C24.1265 13.9531 24.1449 13.9699 24.167 13.9866C24.2846 14.0871 24.3876 14.2042 24.4906 14.3214C24.5111 14.3331 24.5245 14.3529 24.5357 14.3695C24.5405 14.3767 24.545 14.3833 24.5494 14.3884C24.5494 14.3968 24.5531 14.4009 24.5568 14.4051C24.5605 14.4093 24.5641 14.4135 24.5641 14.4219L24.5788 14.4386C24.5935 14.4554 24.6083 14.4763 24.623 14.4972C24.6377 14.5181 24.6524 14.5391 24.6671 14.5558C24.6965 14.5893 24.7259 14.6228 24.7406 14.6562C24.7485 14.6697 24.7554 14.682 24.7617 14.6933C24.779 14.7244 24.7927 14.7489 24.8142 14.7734C24.8215 14.7902 24.8326 14.8069 24.8436 14.8237C24.8546 14.8404 24.8657 14.8571 24.873 14.8739C24.9024 14.9241 24.9319 14.9743 24.976 15.058C25.1672 15.3929 25.2702 15.577 25.3437 15.7109C25.4026 15.8281 25.4908 16.0123 25.6526 16.3973C25.6617 16.4077 25.6708 16.4308 25.6834 16.4628C25.6911 16.4825 25.7002 16.5057 25.7115 16.5312C25.7262 16.548 25.7409 16.5815 25.7409 16.5982C25.7556 16.6401 25.7703 16.6861 25.785 16.7321C25.7997 16.7782 25.8144 16.8242 25.8291 16.8661C26.0204 17.4687 26.1233 18.1384 26.1233 18.8248V18.8248C26.1233 18.9755 26.1233 19.1429 26.1086 19.3103C26.1086 19.3772 26.1086 19.4609 26.0939 19.5279C26.0866 19.5614 26.0829 19.599 26.0792 19.6367C26.0755 19.6744 26.0719 19.7121 26.0645 19.7455V19.7623C26.0645 19.7773 26.0615 19.7958 26.0583 19.816C26.0542 19.8409 26.0498 19.8686 26.0498 19.8962C26.0351 19.9129 26.0351 19.9297 26.0351 19.9464C25.9615 20.3984 25.1672 22.6752 24.6524 23.6462C24.5844 23.7855 24.5164 23.8818 24.46 23.9617C24.4554 23.9683 24.4509 23.9747 24.4465 23.981C24.4317 23.9978 24.3729 24.0982 24.3729 24.1317C24.3729 24.2321 24.4465 24.3158 24.5347 24.3158H24.5641C24.5715 24.3158 24.5825 24.3117 24.5935 24.3075C24.6046 24.3033 24.6156 24.2991 24.623 24.2991C24.8289 24.1987 25.0348 24.0982 25.2408 23.981C25.4173 23.8806 25.5791 23.7634 25.7409 23.6462L25.7409 23.6462C26.7411 22.8929 27.506 21.7879 27.9032 20.4821ZM8.47314 32H25.8745C26.0216 32 26.1245 31.8661 26.1245 31.7154V29.7065C26.1245 29.5558 26.0069 29.4219 25.8745 29.4219H8.47314C8.34076 29.4219 8.22308 29.5558 8.22308 29.7065V31.7154C8.22308 31.8661 8.34076 32 8.47314 32Z" fill="white"/>
</svg>
