<svg width="35" height="35" viewBox="0 0 35 35" fill="none" xmlns="http://www.w3.org/2000/svg">
<path d="M17.5453 3C17.2337 3 17.0259 3.336 17.0259 3.672L17.5453 5.912C17.5453 5.912 15.3637 6.024 14.1171 8.6C12.9744 11.176 9.65 12.184 9.13057 13.752C8.61114 15.32 9.75389 17.56 10.585 17.784C11.7277 18.232 15.0521 15.768 15.8832 15.432C16.7143 14.984 16.922 15.88 12.4549 22.04C9.44223 26.184 10.585 28.872 11.6238 30.104C12.1433 30.664 12.8705 31 13.5977 31H21.3891C21.7008 31 22.1163 30.888 22.428 30.776C25.2329 29.208 24.7135 25.848 23.5707 22.712C22.428 19.576 25.6485 17.448 25.9601 11.848C26.5834 3.896 19.727 3.112 17.5453 3ZM17.3376 10.504C16.8181 10.504 16.2987 10.056 16.2987 9.384C16.2987 8.712 16.7143 8.264 17.3376 8.264C17.857 8.264 18.3764 8.712 18.3764 9.384C18.3764 10.056 17.9609 10.504 17.3376 10.504Z" fill="white"/>
</svg>
