<svg width="35" height="35" viewBox="0 0 35 35" fill="none" xmlns="http://www.w3.org/2000/svg">
<path fill-rule="evenodd" clip-rule="evenodd" d="M24.5293 13.5639C24.5293 14.4097 23.8234 15.0441 22.8822 15.0441H12.9999C12.1764 15.0441 11.3528 14.4097 11.3528 13.5639C11.3528 12.7181 12.0587 12.0837 12.9999 12.0837H14.7646C13.9411 11.3436 13.3528 10.2863 13.3528 9.12335C13.3528 6.90308 15.3528 5 17.9411 5C20.4117 5 22.5293 6.79736 22.5293 9.12335C22.5293 10.2863 21.9411 11.3436 21.1175 12.0837H22.8822C23.8234 12.0837 24.5293 12.7181 24.5293 13.5639ZM21.7059 16.8414C22.4118 19.1674 23.4706 21.4934 24.2941 23.2907C24.7647 24.348 25 25.4053 25 26.4626C25 27.837 23.7059 29 22.0588 29H13.9412C12.2941 29 11 27.837 11 26.3568C11 25.2996 11.2353 24.2423 11.7059 23.2907C12.6471 21.4934 13.7059 19.2731 14.4118 16.8414H21.7059Z" fill="white"/>
</svg>
