<svg width="35" height="35" viewBox="0 0 35 35" fill="none" xmlns="http://www.w3.org/2000/svg">
<path fill-rule="evenodd" clip-rule="evenodd" d="M10.5804 28.2856H23.7818C24.267 28.2856 24.6184 27.7669 24.4343 27.2482C23.9574 25.6001 23.4764 23.952 22.9954 22.3039C22.5143 20.6559 22.0333 19.0078 21.5564 17.3597C21.5397 17.343 21.523 17.3095 21.523 17.2761V17.2426C21.523 17.092 21.6401 16.9749 21.774 16.9582H22.7779C22.895 16.9582 22.9786 16.9414 23.079 16.908C23.4471 16.7909 23.6981 16.4562 23.6981 16.0547V13.8628C23.6981 13.5449 23.5475 13.2772 23.3133 13.1099C23.1627 13.0095 22.9786 12.9426 22.7946 12.9426H21.1382C20.7868 12.9426 20.4689 12.6581 20.4689 12.3067C20.4856 12.1562 20.5358 12.0223 20.6362 11.9052C20.6697 11.855 20.7199 11.8048 20.7868 11.7713C21.9747 10.7507 22.7277 9.24484 22.7277 7.55494C22.7277 4.49303 20.2514 2 17.1895 2C14.1108 2 11.6345 4.49303 11.6178 7.55494C11.6178 9.24484 12.3707 10.7507 13.5587 11.7713C13.5838 11.7964 13.6089 11.8173 13.634 11.8383C13.6591 11.8592 13.6842 11.8801 13.7093 11.9052C13.7929 12.0056 13.8599 12.1562 13.8599 12.3067C13.8766 12.6581 13.5419 12.9426 13.1906 12.9426H11.5341C11.3334 12.9426 11.166 13.0095 11.0155 13.1099C10.7812 13.2772 10.6306 13.5616 10.6306 13.8628V16.0547C10.6306 16.4395 10.8983 16.7909 11.2497 16.908C11.3501 16.9414 11.4505 16.9582 11.5509 16.9582H12.5046C12.6552 16.9582 12.789 17.092 12.789 17.2426V17.2928C12.789 17.3124 12.7833 17.3263 12.7785 17.3378C12.7752 17.3459 12.7723 17.3528 12.7723 17.3597C12.2954 19.0078 11.8144 20.66 11.3334 22.3123C10.8523 23.9645 10.3713 25.6168 9.89443 27.2649C9.74385 27.7669 10.0952 28.2856 10.5804 28.2856ZM7.28444 32H27.0781C27.2454 32 27.3625 31.8661 27.3625 31.7156V29.7077C27.3625 29.5572 27.2287 29.4233 27.0781 29.4233H7.28444C7.13385 29.4233 7 29.5572 7 29.7077V31.7156C7 31.8661 7.13385 32 7.28444 32Z" fill="white"/>
</svg>
