<svg width="35" height="35" viewBox="0 0 35 35" fill="none" xmlns="http://www.w3.org/2000/svg">
<path fill-rule="evenodd" clip-rule="evenodd" d="M23.3778 12.9607H13.6344C12.6477 12.9607 11.7844 12.3312 11.7844 11.4918C11.7844 10.6525 12.5244 10.023 13.5111 10.023H14.7444L12.6477 5.40656C12.5244 4.88197 12.8944 4.4623 13.5111 4.56721L14.9911 4.88197C15.3611 4.25246 16.1011 3.72787 17.0878 3.41312C16.8411 3.09836 16.7178 2.78361 16.7178 2.46885C16.7178 1.62951 17.4578 1 18.4444 1C19.4311 1 20.1711 1.62951 20.1711 2.46885C20.1711 2.88852 20.0478 3.20328 19.8011 3.41312C20.7878 3.62295 21.5278 4.14754 21.8978 4.88197L23.3778 4.56721C23.9945 4.4623 24.4878 4.98689 24.2411 5.40656L22.1445 10.023H23.3778C24.3645 10.023 25.1045 10.6525 25.1045 11.4918C25.1045 12.3312 24.3645 12.9607 23.3778 12.9607ZM15.3612 14.8492H21.6512C21.8979 18.8361 23.9946 24.1869 25.4746 27.4393C25.8446 28.4885 26.0913 29.6426 25.9679 30.6918C25.8446 31.9508 24.4879 33 22.8846 33H14.1278C12.5245 33 11.1678 32.0557 11.0445 30.6918C10.9212 29.5377 11.0445 28.4885 11.5378 27.4393C12.8945 24.1869 14.9912 18.8361 15.3612 14.8492Z" fill="white"/>
</svg>
