<svg width="35" height="35" viewBox="0 0 35 35" fill="none" xmlns="http://www.w3.org/2000/svg">
<path fill-rule="evenodd" clip-rule="evenodd" d="M24.6842 5.89655L23.8421 11.2759C24.4737 11.5 24.8947 12.0603 25 12.6207C25 13.5172 24.3684 14.1896 23.5263 14.1896H12.4737C11.6316 14.1896 11 13.5172 11 12.6207C11 11.9483 11.4211 11.3879 12.0526 11.1638L11.2105 5.78448C11.1053 5.3362 11.4211 5 11.8421 5H13.8421C14.1579 5 14.4737 5.22414 14.4737 5.56034L14.6842 7.91379C14.6842 8.25 15 8.47413 15.3158 8.47413H15.8421C16.1579 8.47413 16.4737 8.13793 16.4737 7.80172L16.3684 5.67241C16.3684 5.3362 16.6842 5 17 5H18.7895C19.1053 5 19.4211 5.3362 19.4211 5.67241L19.3158 7.91379C19.3158 8.25 19.6316 8.5862 19.9474 8.5862H20.4737C20.7895 8.5862 21.1053 8.36206 21.1053 8.02586L21.3158 5.67241C21.3158 5.3362 21.6316 5.11207 21.9474 5.11207H24.0526C24.4737 5.11207 24.7895 5.44827 24.6842 5.89655ZM15.2106 16.2069H20.7895C21.4211 19.3448 22.579 22.7069 23.6316 24.9483C24.0527 26.069 24.2632 27.1897 24.2632 28.3103C24.2632 29.7672 23.1053 31 21.6316 31H14.3685C12.8948 31 11.7369 29.7672 11.7369 28.1983C11.7369 27.0776 11.9474 25.9569 12.3685 24.9483C13.3158 22.7069 14.579 19.3448 15.2106 16.2069Z" fill="white"/>
</svg>
