<svg width="35" height="35" viewBox="0 0 35 35" fill="none" xmlns="http://www.w3.org/2000/svg">
<path fill-rule="evenodd" clip-rule="evenodd" d="M27.3291 2.80312C27.3458 2.7362 27.3625 2.66927 27.3625 2.58561C27.3458 2.26771 27.0948 2 26.7769 2H23.4975C23.2465 2 23.0457 2.15059 22.9453 2.3681L22.8951 2.56888L22.5605 3.97435V3.99108C22.4936 4.20859 22.3095 4.37591 22.092 4.40937H21.1383C20.9375 4.37591 20.787 4.24205 20.7033 4.058C20.6698 3.99108 20.6531 3.90742 20.6531 3.84049V3.82376V3.80703V3.77356V2.61907V2.58561C20.6364 2.26771 20.3687 2 20.0508 2H14.3118C13.9939 2 13.7262 2.26771 13.7262 2.58561V2.61907V3.77356V3.80703V3.82376V3.84049C13.7262 3.92415 13.7094 3.99108 13.676 4.058C13.5923 4.24205 13.425 4.37591 13.2409 4.40937H12.2872C12.053 4.37591 11.8857 4.20859 11.8187 3.99108V3.97435L11.4674 2.56888L11.4172 2.3681C11.3335 2.15059 11.116 2 10.8818 2H7.60234C7.26771 2 7.01673 2.26771 7 2.58561C7 2.61486 7.00205 2.64207 7.00399 2.66794C7.00761 2.71607 7.01088 2.7596 7 2.80312C7.15059 3.97435 7.40156 5.14557 7.7362 6.28333L9.04127 10.7005L9.52649 12.6581C9.59342 12.9091 9.7942 13.0931 10.0452 13.1099H10.0786H11.5678C11.9359 13.1099 12.2036 13.478 12.1366 13.8628L9.71054 27.7167C9.66035 28.0179 9.89459 28.2856 10.1958 28.2856H24.1333C24.4345 28.2856 24.6687 28.0179 24.6185 27.7167L22.1924 13.8628C22.1255 13.478 22.3932 13.1099 22.7613 13.1099H24.2504H24.2839C24.5349 13.0764 24.7356 12.8924 24.8026 12.6581L25.2878 10.7005L26.5929 6.28333C26.9442 5.14557 27.1785 3.97435 27.3291 2.80312ZM7.28444 32H27.0781C27.2454 32 27.3625 31.8661 27.3625 31.7156V29.7078C27.3625 29.5572 27.2287 29.4233 27.0781 29.4233H7.28444C7.13385 29.4233 7 29.5572 7 29.7078V31.7156C7 31.8661 7.13385 32 7.28444 32Z" fill="white"/>
</svg>
