<svg width="372" height="360" viewBox="0 0 372 360" fill="none" xmlns="http://www.w3.org/2000/svg">
<path d="M9.8125 23.1738C9.8125 23.7051 9.68945 24.1523 9.44336 24.5156C9.19727 24.8789 8.86133 25.1543 8.43555 25.3418C8.01367 25.5254 7.53711 25.6172 7.00586 25.6172C6.47461 25.6172 5.99609 25.5254 5.57031 25.3418C5.14453 25.1543 4.80859 24.8789 4.5625 24.5156C4.31641 24.1523 4.19336 23.7051 4.19336 23.1738C4.19336 22.8223 4.26172 22.5039 4.39844 22.2188C4.53516 21.9297 4.72852 21.6816 4.97852 21.4746C5.23242 21.2637 5.5293 21.1016 5.86914 20.9883C6.21289 20.875 6.58789 20.8184 6.99414 20.8184C7.5332 20.8184 8.01562 20.918 8.44141 21.1172C8.86719 21.3164 9.20117 21.5918 9.44336 21.9434C9.68945 22.2949 9.8125 22.7051 9.8125 23.1738ZM8.39453 23.1035C8.39453 22.8184 8.33594 22.5684 8.21875 22.3535C8.10156 22.1387 7.9375 21.9727 7.72656 21.8555C7.51562 21.7383 7.27148 21.6797 6.99414 21.6797C6.71289 21.6797 6.46875 21.7383 6.26172 21.8555C6.05469 21.9727 5.89258 22.1387 5.77539 22.3535C5.66211 22.5684 5.60547 22.8184 5.60547 23.1035C5.60547 23.3926 5.66211 23.6426 5.77539 23.8535C5.88867 24.0605 6.05078 24.2188 6.26172 24.3281C6.47266 24.4375 6.7207 24.4922 7.00586 24.4922C7.29102 24.4922 7.53711 24.4375 7.74414 24.3281C7.95117 24.2188 8.11133 24.0605 8.22461 23.8535C8.33789 23.6426 8.39453 23.3926 8.39453 23.1035ZM9.61914 19.2129C9.61914 19.6387 9.50586 20.0176 9.2793 20.3496C9.05664 20.6816 8.74805 20.9434 8.35352 21.1348C7.95898 21.3223 7.50977 21.416 7.00586 21.416C6.49805 21.416 6.04492 21.3223 5.64648 21.1348C5.25195 20.9434 4.94141 20.6816 4.71484 20.3496C4.49219 20.0176 4.38086 19.6387 4.38086 19.2129C4.38086 18.7051 4.49219 18.2773 4.71484 17.9297C4.94141 17.5781 5.25195 17.3105 5.64648 17.127C6.04102 16.9434 6.49219 16.8516 7 16.8516C7.50781 16.8516 7.95898 16.9434 8.35352 17.127C8.74805 17.3105 9.05664 17.5781 9.2793 17.9297C9.50586 18.2773 9.61914 18.7051 9.61914 19.2129ZM8.20703 19.2598C8.20703 19.0059 8.15625 18.7832 8.05469 18.5918C7.95703 18.3965 7.81836 18.2441 7.63867 18.1348C7.45898 18.0254 7.24609 17.9707 7 17.9707C6.75391 17.9707 6.54102 18.0234 6.36133 18.1289C6.18164 18.2344 6.04297 18.3828 5.94531 18.5742C5.84766 18.7656 5.79883 18.9941 5.79883 19.2598C5.79883 19.5215 5.84766 19.75 5.94531 19.9453C6.04297 20.1367 6.18164 20.2871 6.36133 20.3965C6.54492 20.5059 6.75977 20.5605 7.00586 20.5605C7.25195 20.5605 7.46484 20.5059 7.64453 20.3965C7.82422 20.2871 7.96289 20.1367 8.06055 19.9453C8.1582 19.75 8.20703 19.5215 8.20703 19.2598Z" fill="#806C61"/>
<path d="M9.90039 59.9688V60.7422L6.49023 68.5H5.00195L8.40625 61.0938H3.98828V59.9688H9.90039Z" fill="#806C61"/>
<path d="M8.5 102.916H8.67578V104.07H8.57617C8.07227 104.07 7.63672 104.148 7.26953 104.305C6.90625 104.461 6.60742 104.676 6.37305 104.949C6.13867 105.223 5.96289 105.543 5.8457 105.91C5.73242 106.273 5.67578 106.66 5.67578 107.07V108.412C5.67578 108.752 5.71289 109.053 5.78711 109.314C5.86133 109.572 5.96484 109.789 6.09766 109.965C6.23438 110.137 6.39062 110.268 6.56641 110.357C6.74219 110.447 6.93164 110.492 7.13477 110.492C7.3457 110.492 7.53711 110.449 7.70898 110.363C7.88086 110.273 8.02734 110.15 8.14844 109.994C8.26953 109.838 8.36133 109.652 8.42383 109.438C8.48633 109.223 8.51758 108.988 8.51758 108.734C8.51758 108.492 8.48633 108.266 8.42383 108.055C8.36523 107.84 8.27734 107.652 8.16016 107.492C8.04297 107.328 7.89648 107.201 7.7207 107.111C7.54883 107.018 7.34961 106.971 7.12305 106.971C6.8418 106.971 6.58594 107.037 6.35547 107.17C6.12891 107.303 5.94531 107.477 5.80469 107.691C5.66797 107.902 5.59375 108.127 5.58203 108.365L5.04297 108.189C5.07422 107.826 5.1543 107.5 5.2832 107.211C5.41602 106.922 5.58984 106.676 5.80469 106.473C6.01953 106.27 6.26758 106.115 6.54883 106.01C6.83398 105.9 7.14648 105.846 7.48633 105.846C7.90039 105.846 8.25977 105.924 8.56445 106.08C8.86914 106.236 9.12109 106.449 9.32031 106.719C9.52344 106.984 9.67383 107.289 9.77148 107.633C9.87305 107.973 9.92383 108.328 9.92383 108.699C9.92383 109.109 9.86133 109.492 9.73633 109.848C9.61133 110.199 9.42773 110.508 9.18555 110.773C8.94727 111.039 8.65625 111.246 8.3125 111.395C7.97266 111.543 7.58594 111.617 7.15234 111.617C6.69531 111.617 6.28711 111.529 5.92773 111.354C5.57227 111.178 5.26953 110.936 5.01953 110.627C4.77344 110.318 4.58594 109.963 4.45703 109.561C4.32812 109.158 4.26367 108.732 4.26367 108.283V107.697C4.26367 107.049 4.3457 106.438 4.50977 105.863C4.67383 105.285 4.92578 104.775 5.26562 104.334C5.60938 103.893 6.04883 103.547 6.58398 103.297C7.11914 103.043 7.75781 102.916 8.5 102.916Z" fill="#806C61"/>
<path d="M5.7168 150.533L4.5918 150.258L5.05469 145.969H9.6543V147.164H6.22656L5.99219 149.256C6.125 149.178 6.30859 149.102 6.54297 149.027C6.77734 148.949 7.04492 148.91 7.3457 148.91C7.74805 148.91 8.10742 148.977 8.42383 149.109C8.74414 149.238 9.01562 149.428 9.23828 149.678C9.46094 149.924 9.63086 150.225 9.74805 150.58C9.86523 150.932 9.92383 151.328 9.92383 151.77C9.92383 152.164 9.86523 152.533 9.74805 152.877C9.63477 153.221 9.46289 153.523 9.23242 153.785C9.00195 154.047 8.71094 154.252 8.35938 154.4C8.01172 154.545 7.59961 154.617 7.12305 154.617C6.76758 154.617 6.42578 154.566 6.09766 154.465C5.77344 154.359 5.48242 154.205 5.22461 154.002C4.9668 153.795 4.75977 153.541 4.60352 153.24C4.44727 152.936 4.35742 152.586 4.33398 152.191H5.7168C5.75195 152.469 5.82812 152.705 5.94531 152.9C6.06641 153.092 6.22656 153.238 6.42578 153.34C6.625 153.441 6.85547 153.492 7.11719 153.492C7.35547 153.492 7.56055 153.451 7.73242 153.369C7.9043 153.283 8.04688 153.162 8.16016 153.006C8.27734 152.846 8.36328 152.658 8.41797 152.443C8.47656 152.229 8.50586 151.99 8.50586 151.729C8.50586 151.479 8.47266 151.25 8.40625 151.043C8.34375 150.836 8.24805 150.656 8.11914 150.504C7.99414 150.352 7.83594 150.234 7.64453 150.152C7.45312 150.066 7.23242 150.023 6.98242 150.023C6.64648 150.023 6.38867 150.072 6.20898 150.17C6.0332 150.268 5.86914 150.389 5.7168 150.533Z" fill="#806C61"/>
<path d="M10.1113 194.459V195.584H3.95898L3.91211 194.734L7.5918 188.969H8.72266L7.49805 191.066L5.38281 194.459H10.1113ZM9.04492 188.969V197.5H7.63281V188.969H9.04492Z" fill="#806C61"/>
<path d="M5.89258 235.596H6.73633C7.06445 235.596 7.33594 235.539 7.55078 235.426C7.76953 235.312 7.93164 235.156 8.03711 234.957C8.14258 234.758 8.19531 234.529 8.19531 234.271C8.19531 234.002 8.14648 233.771 8.04883 233.58C7.95508 233.385 7.81055 233.234 7.61523 233.129C7.42383 233.023 7.17969 232.971 6.88281 232.971C6.63281 232.971 6.40625 233.021 6.20312 233.123C6.00391 233.221 5.8457 233.361 5.72852 233.545C5.61133 233.725 5.55273 233.939 5.55273 234.189H4.13477C4.13477 233.736 4.25391 233.334 4.49219 232.982C4.73047 232.631 5.05469 232.355 5.46484 232.156C5.87891 231.953 6.34375 231.852 6.85938 231.852C7.41016 231.852 7.89062 231.943 8.30078 232.127C8.71484 232.307 9.03711 232.576 9.26758 232.936C9.49805 233.295 9.61328 233.74 9.61328 234.271C9.61328 234.514 9.55664 234.76 9.44336 235.01C9.33008 235.26 9.16211 235.488 8.93945 235.695C8.7168 235.898 8.43945 236.064 8.10742 236.193C7.77539 236.318 7.39062 236.381 6.95312 236.381H5.89258V235.596ZM5.89258 236.697V235.924H6.95312C7.45312 235.924 7.87891 235.982 8.23047 236.1C8.58594 236.217 8.875 236.379 9.09766 236.586C9.32031 236.789 9.48242 237.021 9.58398 237.283C9.68945 237.545 9.74219 237.822 9.74219 238.115C9.74219 238.514 9.66992 238.869 9.52539 239.182C9.38477 239.49 9.18359 239.752 8.92188 239.967C8.66016 240.182 8.35352 240.344 8.00195 240.453C7.6543 240.562 7.27539 240.617 6.86523 240.617C6.49805 240.617 6.14648 240.566 5.81055 240.465C5.47461 240.363 5.17383 240.213 4.9082 240.014C4.64258 239.811 4.43164 239.559 4.27539 239.258C4.12305 238.953 4.04688 238.602 4.04688 238.203H5.45898C5.45898 238.457 5.51758 238.682 5.63477 238.877C5.75586 239.068 5.92383 239.219 6.13867 239.328C6.35742 239.438 6.60742 239.492 6.88867 239.492C7.18555 239.492 7.44141 239.439 7.65625 239.334C7.87109 239.229 8.03516 239.072 8.14844 238.865C8.26562 238.658 8.32422 238.408 8.32422 238.115C8.32422 237.783 8.25977 237.514 8.13086 237.307C8.00195 237.1 7.81836 236.947 7.58008 236.85C7.3418 236.748 7.06055 236.697 6.73633 236.697H5.89258Z" fill="#806C61"/>
<path d="M9.95312 282.375V283.5H4.23438V282.533L7.01172 279.504C7.31641 279.16 7.55664 278.863 7.73242 278.613C7.9082 278.363 8.03125 278.139 8.10156 277.939C8.17578 277.736 8.21289 277.539 8.21289 277.348C8.21289 277.078 8.16211 276.842 8.06055 276.639C7.96289 276.432 7.81836 276.27 7.62695 276.152C7.43555 276.031 7.20312 275.971 6.92969 275.971C6.61328 275.971 6.34766 276.039 6.13281 276.176C5.91797 276.312 5.75586 276.502 5.64648 276.744C5.53711 276.982 5.48242 277.256 5.48242 277.564H4.07031C4.07031 277.068 4.18359 276.615 4.41016 276.205C4.63672 275.791 4.96484 275.463 5.39453 275.221C5.82422 274.975 6.3418 274.852 6.94727 274.852C7.51758 274.852 8.00195 274.947 8.40039 275.139C8.79883 275.33 9.10156 275.602 9.30859 275.953C9.51953 276.305 9.625 276.721 9.625 277.201C9.625 277.467 9.58203 277.73 9.49609 277.992C9.41016 278.254 9.28711 278.516 9.12695 278.777C8.9707 279.035 8.78516 279.295 8.57031 279.557C8.35547 279.814 8.11914 280.076 7.86133 280.342L6.01562 282.375H9.95312Z" fill="#806C61"/>
<path d="M8.08984 317.939V326.5H6.67773V319.615L4.58594 320.324V319.158L7.91992 317.939H8.08984Z" fill="#806C61"/>
<path d="M14 4C14 1.79086 15.7909 0 18 0H57V43H14V4Z" fill="#C6BAAA"/>
<rect width="43" height="43" transform="translate(57)" fill="#806C61"/>
<rect width="43" height="43" transform="translate(100)" fill="#C6BAAA"/>
<rect width="43" height="43" transform="translate(143)" fill="#806C61"/>
<rect width="43" height="43" transform="translate(186)" fill="#C6BAAA"/>
<rect width="43" height="43" transform="translate(229)" fill="#806C61"/>
<rect width="43" height="43" transform="translate(272)" fill="#C6BAAA"/>
<path d="M315 0H354C356.209 0 358 1.79086 358 4V43H315V0Z" fill="#806C61"/>
<rect width="43" height="43" transform="translate(14 43)" fill="#806C61"/>
<rect width="43" height="43" transform="translate(57 43)" fill="#C6BAAA"/>
<rect width="43" height="43" transform="translate(100 43)" fill="#806C61"/>
<rect width="43" height="43" transform="translate(143 43)" fill="#C6BAAA"/>
<rect width="43" height="43" transform="translate(186 43)" fill="#806C61"/>
<rect width="43" height="43" transform="translate(229 43)" fill="#C6BAAA"/>
<rect width="43" height="43" transform="translate(272 43)" fill="#806C61"/>
<rect width="43" height="43" transform="translate(315 43)" fill="#C6BAAA"/>
<rect width="43" height="43" transform="translate(14 86)" fill="#C6BAAA"/>
<rect width="43" height="43" transform="translate(57 86)" fill="#806C61"/>
<rect width="43" height="43" transform="translate(100 86)" fill="#C6BAAA"/>
<rect width="43" height="43" transform="translate(143 86)" fill="#806C61"/>
<rect width="43" height="43" transform="translate(186 86)" fill="#C6BAAA"/>
<rect width="43" height="43" transform="translate(229 86)" fill="#806C61"/>
<rect width="43" height="43" transform="translate(272 86)" fill="#C6BAAA"/>
<rect width="43" height="43" transform="translate(315 86)" fill="#806C61"/>
<rect width="43" height="43" transform="translate(14 129)" fill="#806C61"/>
<rect width="43" height="43" transform="translate(57 129)" fill="#C6BAAA"/>
<rect width="43" height="43" transform="translate(100 129)" fill="#806C61"/>
<rect width="43" height="43" transform="translate(143 129)" fill="#C6BAAA"/>
<rect width="43" height="43" transform="translate(186 129)" fill="#806C61"/>
<rect width="43" height="43" transform="translate(229 129)" fill="#C6BAAA"/>
<rect width="43" height="43" transform="translate(272 129)" fill="#806C61"/>
<rect width="43" height="43" transform="translate(315 129)" fill="#C6BAAA"/>
<rect width="43" height="43" transform="translate(14 172)" fill="#C6BAAA"/>
<rect width="43" height="43" transform="translate(57 172)" fill="#806C61"/>
<rect width="43" height="43" transform="translate(100 172)" fill="#C6BAAA"/>
<rect width="43" height="43" transform="translate(143 172)" fill="#806C61"/>
<rect width="43" height="43" transform="translate(186 172)" fill="#C6BAAA"/>
<rect width="43" height="43" transform="translate(229 172)" fill="#806C61"/>
<rect width="43" height="43" transform="translate(272 172)" fill="#C6BAAA"/>
<rect width="43" height="43" transform="translate(315 172)" fill="#806C61"/>
<rect width="43" height="43" transform="translate(14 215)" fill="#806C61"/>
<rect width="43" height="43" transform="translate(57 215)" fill="#C6BAAA"/>
<rect width="43" height="43" transform="translate(100 215)" fill="#806C61"/>
<rect width="43" height="43" transform="translate(143 215)" fill="#C6BAAA"/>
<rect width="43" height="43" transform="translate(186 215)" fill="#806C61"/>
<rect width="43" height="43" transform="translate(229 215)" fill="#C6BAAA"/>
<rect width="43" height="43" transform="translate(272 215)" fill="#806C61"/>
<rect width="43" height="43" transform="translate(315 215)" fill="#C6BAAA"/>
<rect width="43" height="43" transform="translate(14 258)" fill="#C6BAAA"/>
<rect width="43" height="43" transform="translate(57 258)" fill="#806C61"/>
<rect width="43" height="43" transform="translate(100 258)" fill="#C6BAAA"/>
<rect width="43" height="43" transform="translate(143 258)" fill="#806C61"/>
<rect width="43" height="43" transform="translate(186 258)" fill="#C6BAAA"/>
<rect width="43" height="43" transform="translate(229 258)" fill="#806C61"/>
<rect width="43" height="43" transform="translate(272 258)" fill="#C6BAAA"/>
<rect width="43" height="43" transform="translate(315 258)" fill="#806C61"/>
<path d="M14 301H57V344H18C15.7909 344 14 342.209 14 340V301Z" fill="#806C61"/>
<rect width="43" height="43" transform="translate(57 301)" fill="#C6BAAA"/>
<rect width="43" height="43" transform="translate(100 301)" fill="#806C61"/>
<rect width="43" height="43" transform="translate(143 301)" fill="#C6BAAA"/>
<rect width="43" height="43" transform="translate(186 301)" fill="#806C61"/>
<rect width="43" height="43" transform="translate(229 301)" fill="#C6BAAA"/>
<rect width="43" height="43" transform="translate(272 301)" fill="#806C61"/>
<path d="M315 301H358V340C358 342.209 356.209 344 354 344H315V301Z" fill="#C6BAAA"/>
<path d="M35.7109 348.605L33.1621 356H31.6211L34.832 347.469H35.8164L35.7109 348.605ZM37.8438 356L35.2891 348.605L35.1777 347.469H36.168L39.3906 356H37.8438ZM37.7207 352.836V354.002H33.0801V352.836H37.7207Z" fill="#806C61"/>
<path d="M78.7754 352.145H76.6016L76.5898 351.072H78.4883C78.8086 351.072 79.0801 351.025 79.3027 350.932C79.5293 350.834 79.7012 350.695 79.8184 350.516C79.9355 350.332 79.9941 350.111 79.9941 349.854C79.9941 349.568 79.9395 349.336 79.8301 349.156C79.7207 348.977 79.5527 348.846 79.3262 348.764C79.1035 348.682 78.8184 348.641 78.4707 348.641H77.0469V356H75.5762V347.469H78.4707C78.9395 347.469 79.3574 347.514 79.7246 347.604C80.0957 347.693 80.4102 347.834 80.668 348.025C80.9297 348.213 81.127 348.451 81.2598 348.74C81.3965 349.029 81.4648 349.373 81.4648 349.771C81.4648 350.123 81.3809 350.445 81.2129 350.738C81.0449 351.027 80.7969 351.264 80.4688 351.447C80.1406 351.631 79.7324 351.74 79.2441 351.775L78.7754 352.145ZM78.7109 356H76.1387L76.8008 354.834H78.7109C79.043 354.834 79.3203 354.779 79.543 354.67C79.7656 354.557 79.9316 354.402 80.041 354.207C80.1543 354.008 80.2109 353.775 80.2109 353.51C80.2109 353.232 80.1621 352.992 80.0645 352.789C79.9668 352.582 79.8125 352.424 79.6016 352.314C79.3906 352.201 79.1152 352.145 78.7754 352.145H77.123L77.1348 351.072H79.2852L79.6191 351.477C80.0879 351.492 80.4727 351.596 80.7734 351.787C81.0781 351.979 81.3047 352.227 81.4531 352.531C81.6016 352.836 81.6758 353.164 81.6758 353.516C81.6758 354.059 81.5566 354.514 81.3184 354.881C81.084 355.248 80.7461 355.527 80.3047 355.719C79.8633 355.906 79.332 356 78.7109 356Z" fill="#806C61"/>
<path d="M123.486 353.223H124.951C124.904 353.781 124.748 354.279 124.482 354.717C124.217 355.15 123.844 355.492 123.363 355.742C122.883 355.992 122.299 356.117 121.611 356.117C121.084 356.117 120.609 356.023 120.188 355.836C119.766 355.645 119.404 355.375 119.104 355.027C118.803 354.676 118.572 354.252 118.412 353.756C118.256 353.26 118.178 352.705 118.178 352.092V351.383C118.178 350.77 118.258 350.215 118.418 349.719C118.582 349.223 118.816 348.799 119.121 348.447C119.426 348.092 119.791 347.82 120.217 347.633C120.646 347.445 121.129 347.352 121.664 347.352C122.344 347.352 122.918 347.477 123.387 347.727C123.855 347.977 124.219 348.322 124.477 348.764C124.738 349.205 124.898 349.711 124.957 350.281H123.492C123.453 349.914 123.367 349.6 123.234 349.338C123.105 349.076 122.914 348.877 122.66 348.74C122.406 348.6 122.074 348.529 121.664 348.529C121.328 348.529 121.035 348.592 120.785 348.717C120.535 348.842 120.326 349.025 120.158 349.268C119.99 349.51 119.863 349.809 119.777 350.164C119.695 350.516 119.654 350.918 119.654 351.371V352.092C119.654 352.521 119.691 352.912 119.766 353.264C119.844 353.611 119.961 353.91 120.117 354.16C120.277 354.41 120.48 354.604 120.727 354.74C120.973 354.877 121.268 354.945 121.611 354.945C122.029 354.945 122.367 354.879 122.625 354.746C122.887 354.613 123.084 354.42 123.217 354.166C123.354 353.908 123.443 353.594 123.486 353.223Z" fill="#806C61"/>
<path d="M163.926 356H162.104L162.115 354.834H163.926C164.453 354.834 164.895 354.719 165.25 354.488C165.609 354.258 165.879 353.928 166.059 353.498C166.242 353.068 166.334 352.557 166.334 351.963V351.5C166.334 351.039 166.281 350.631 166.176 350.275C166.074 349.92 165.922 349.621 165.719 349.379C165.52 349.137 165.273 348.953 164.98 348.828C164.691 348.703 164.357 348.641 163.979 348.641H162.068V347.469H163.979C164.545 347.469 165.062 347.564 165.531 347.756C166 347.943 166.404 348.215 166.744 348.57C167.088 348.926 167.352 349.352 167.535 349.848C167.719 350.344 167.811 350.898 167.811 351.512V351.963C167.811 352.576 167.719 353.131 167.535 353.627C167.352 354.123 167.088 354.549 166.744 354.904C166.4 355.256 165.99 355.527 165.514 355.719C165.041 355.906 164.512 356 163.926 356ZM162.918 347.469V356H161.447V347.469H162.918Z" fill="#806C61"/>
<path d="M210.559 354.834V356H206.029V354.834H210.559ZM206.445 347.469V356H204.975V347.469H206.445ZM209.967 351.031V352.18H206.029V351.031H209.967ZM210.529 347.469V348.641H206.029V347.469H210.529Z" fill="#806C61"/>
<path d="M249.533 347.469V356H248.062V347.469H249.533ZM253.014 351.201V352.367H249.158V351.201H253.014ZM253.5 347.469V348.641H249.158V347.469H253.5Z" fill="#806C61"/>
<path d="M296.828 351.641V354.898C296.707 355.059 296.518 355.234 296.26 355.426C296.006 355.613 295.668 355.775 295.246 355.912C294.824 356.049 294.299 356.117 293.67 356.117C293.135 356.117 292.645 356.027 292.199 355.848C291.754 355.664 291.369 355.396 291.045 355.045C290.725 354.693 290.477 354.266 290.301 353.762C290.125 353.254 290.037 352.676 290.037 352.027V351.436C290.037 350.791 290.117 350.217 290.277 349.713C290.441 349.205 290.676 348.775 290.98 348.424C291.285 348.072 291.652 347.807 292.082 347.627C292.516 347.443 293.006 347.352 293.553 347.352C294.252 347.352 294.83 347.469 295.287 347.703C295.748 347.934 296.104 348.254 296.354 348.664C296.604 349.074 296.762 349.543 296.828 350.07H295.387C295.34 349.773 295.248 349.508 295.111 349.273C294.979 349.039 294.787 348.855 294.537 348.723C294.291 348.586 293.971 348.518 293.576 348.518C293.236 348.518 292.938 348.582 292.68 348.711C292.422 348.84 292.207 349.029 292.035 349.279C291.867 349.529 291.74 349.834 291.654 350.193C291.568 350.553 291.525 350.963 291.525 351.424V352.027C291.525 352.496 291.574 352.912 291.672 353.275C291.773 353.639 291.918 353.945 292.105 354.195C292.297 354.445 292.529 354.635 292.803 354.764C293.076 354.889 293.385 354.951 293.729 354.951C294.064 354.951 294.34 354.924 294.555 354.869C294.77 354.811 294.939 354.742 295.064 354.664C295.193 354.582 295.293 354.504 295.363 354.43V352.736H293.588V351.641H296.828Z" fill="#806C61"/>
<path d="M338.744 351.031V352.197H334.215V351.031H338.744ZM334.578 347.469V356H333.107V347.469H334.578ZM339.875 347.469V356H338.41V347.469H339.875Z" fill="#806C61"/>
</svg>
