<svg width="42" height="42" viewBox="0 0 42 42" fill="none" xmlns="http://www.w3.org/2000/svg">
<path d="M28.2929 14.4293C28.6834 14.8198 28.6834 15.4529 28.2929 15.8435L24.3435 19.7929C23.9529 20.1834 23.9529 20.8166 24.3435 21.2071L28.2929 25.1565C28.6834 25.5471 28.6834 26.1802 28.2929 26.5707L27.5697 27.2939C27.1796 27.684 26.5472 27.6845 26.1565 27.2949L22.2071 23.3566C21.8164 22.967 21.184 22.9675 20.7939 23.3576L16.8586 27.2929C16.4681 27.6834 15.8349 27.6834 15.4444 27.2929L14.7071 26.5556C14.3166 26.1651 14.3166 25.5319 14.7071 25.1414L18.6414 21.2071C19.0319 20.8166 19.0319 20.1834 18.6414 19.7929L14.7071 15.8586C14.3166 15.4681 14.3166 14.8349 14.7071 14.4444L15.4444 13.7071C15.8349 13.3166 16.4681 13.3166 16.8586 13.7071L20.7939 17.6424C21.184 18.0325 21.8164 18.033 22.2071 17.6434L26.1565 13.7051C26.5472 13.3155 27.1796 13.316 27.5697 13.7061L28.2929 14.4293Z" fill="white"/>
</svg>
