<svg width="24" height="24" viewBox="0 0 24 24" fill="none" xmlns="http://www.w3.org/2000/svg">
<path d="M2.12755 15.7327L0.758799 6.83624C0.657549 6.17924 1.40605 5.73074 1.9378 6.12974L6.2023 9.32774C6.31315 9.41078 6.43975 9.47036 6.57439 9.50283C6.70903 9.53531 6.84888 9.54 6.98539 9.51663C7.12191 9.49326 7.25223 9.44231 7.36839 9.36689C7.48456 9.29147 7.58414 9.19317 7.66105 9.07799L11.2115 3.75299C11.5865 3.19049 12.413 3.19049 12.788 3.75299L16.3385 9.07799C16.4155 9.19317 16.515 9.29147 16.6312 9.36689C16.7474 9.44231 16.8777 9.49326 17.0142 9.51663C17.1507 9.54 17.2906 9.53531 17.4252 9.50283C17.5598 9.47036 17.6865 9.41078 17.7973 9.32774L22.0618 6.12974C22.5943 5.73074 23.3421 6.17924 23.2408 6.83624L21.872 15.7327H2.12755ZM20.8423 20.6692H3.1573C3.02207 20.6692 2.88817 20.6426 2.76323 20.5909C2.6383 20.5391 2.52478 20.4633 2.42916 20.3676C2.23604 20.1745 2.12755 19.9126 2.12755 19.6395V17.3782H21.872V19.6395C21.872 20.208 21.4108 20.6692 20.8423 20.6692Z" fill="white"/>
</svg>
