<svg width="35" height="40" viewBox="0 0 35 40" fill="none" xmlns="http://www.w3.org/2000/svg">
<path d="M5.39689 40H30.0583C32.5556 40 34.4286 38.4516 34.4286 36.3871C34.4286 34.3226 32.5556 32.7742 30.0583 32.7742H26.9366L30.9948 21.6774C31.6191 20.129 30.3704 18.3226 28.4974 17.8065L20.381 15.7419V9.54839H24.7514C25.6879 9.54839 26.3122 9.03226 26.3122 8.25807V6.19355C26.3122 5.41936 25.6879 4.90323 24.7514 4.90323H20.381V1.29032C20.381 0.516129 19.7567 0 18.8202 0H16.3228C15.3863 0 14.762 0.516129 14.762 1.29032V4.90323H10.3916C9.4551 4.90323 8.83076 5.41936 8.83076 6.19355V8.25807C8.83076 9.03226 9.4551 9.54839 10.3916 9.54839H14.762V15.7419L6.64557 17.8065C4.77256 18.3226 3.52388 20.129 4.14822 21.6774L8.20642 32.7742H5.08473C2.58737 32.7742 0.714355 34.3226 0.714355 36.3871C0.714355 38.4516 2.89954 40 5.39689 40Z" fill="black"/>
</svg>
