<svg width="34" height="34" viewBox="0 0 34 34" fill="none" xmlns="http://www.w3.org/2000/svg">
<rect x="34" y="34" width="34" height="34" rx="17" transform="rotate(-180 34 34)" fill="#2C2C2C"/>
<g clip-path="url(#clip0_1118_14673)">
<path d="M27.6886 19.1625C27.4384 19.0081 27.1153 19.0365 26.8986 19.2345C25.3205 20.6659 23.2792 21.4546 21.1517 21.4546C16.4297 21.4546 12.5878 17.6128 12.5878 12.8908C12.5878 10.7632 13.3765 8.72192 14.8079 7.14385C14.9041 7.03785 14.9631 6.90341 14.9761 6.76087C14.9891 6.61833 14.9553 6.47543 14.8799 6.35379C14.7248 6.10422 14.4212 5.98838 14.1407 6.06762C9.34718 7.425 6 11.8562 6 16.8432C6 23.0186 11.0238 28.0423 17.1991 28.0423C22.1861 28.0423 26.6174 24.6951 27.9748 19.9017C28.0139 19.7641 28.0072 19.6176 27.9555 19.4842C27.9039 19.3508 27.8102 19.2379 27.6886 19.1625Z" fill="#F2F0ED"/>
<path d="M16.9092 14.7364L18.4698 15.5161L19.2495 17.0769C19.3041 17.1863 19.3883 17.2784 19.4924 17.3427C19.5965 17.407 19.7164 17.441 19.8388 17.4409C20.0885 17.4409 20.3161 17.3001 20.4281 17.0769L21.2085 15.5161L22.7685 14.7364C22.8779 14.6816 22.9699 14.5975 23.0342 14.4934C23.0985 14.3893 23.1325 14.2694 23.1325 14.1471C23.1325 14.0247 23.0985 13.9048 23.0342 13.8007C22.9699 13.6967 22.8779 13.6125 22.7685 13.5578L21.2085 12.778L20.4281 11.2173C20.2042 10.7709 19.4722 10.7709 19.2494 11.2173L18.4698 12.778L16.9092 13.5578C16.7997 13.6125 16.7076 13.6966 16.6433 13.8007C16.5789 13.9048 16.5449 14.0247 16.5449 14.1471C16.5449 14.2695 16.5789 14.3894 16.6433 14.4935C16.7076 14.5976 16.7997 14.6817 16.9092 14.7364ZM23.7868 9.59678H24.4456V10.2556C24.4456 10.6196 24.7404 10.9144 25.1044 10.9144C25.4685 10.9144 25.7632 10.6196 25.7632 10.2556V9.59678H26.422C26.7861 9.59678 27.0808 9.30223 27.0808 8.93798C27.0808 8.57391 26.7861 8.27936 26.422 8.27936H25.7632V7.62056C25.7632 7.25631 25.4685 6.96176 25.1044 6.96176C24.7404 6.96176 24.4456 7.25631 24.4456 7.62056V8.27936H23.7868C23.4228 8.27936 23.1282 8.57391 23.1282 8.93798C23.1282 9.30223 23.4228 9.59678 23.7868 9.59678Z" fill="#F2F0ED"/>
</g>
<defs>
<clipPath id="clip0_1118_14673">
<rect width="22" height="22" fill="white" transform="translate(6 6)"/>
</clipPath>
</defs>
</svg>
