<svg width="24" height="24" viewBox="0 0 24 24" fill="none" xmlns="http://www.w3.org/2000/svg">
<path d="M19.2929 6.42926C19.6834 6.81978 19.6834 7.45295 19.2929 7.84347L15.3435 11.7929C14.9529 12.1834 14.9529 12.8166 15.3435 13.2071L19.2929 17.1565C19.6834 17.5471 19.6834 18.1802 19.2929 18.5707L18.5697 19.2939C18.1796 19.684 17.5472 19.6845 17.1565 19.2949L13.2071 15.3566C12.8164 14.967 12.184 14.9675 11.7939 15.3576L7.85862 19.2929C7.4681 19.6834 6.83493 19.6834 6.44441 19.2929L5.70711 18.5556C5.31658 18.1651 5.31658 17.5319 5.70711 17.1414L9.64138 13.2071C10.0319 12.8166 10.0319 12.1834 9.64138 11.7929L5.70711 7.85862C5.31658 7.4681 5.31658 6.83493 5.70711 6.44441L6.44441 5.70711C6.83493 5.31658 7.4681 5.31658 7.85862 5.70711L11.7939 9.64238C12.184 10.0325 12.8164 10.033 13.2071 9.64338L17.1565 5.70511C17.5472 5.31553 18.1796 5.31597 18.5697 5.70611L19.2929 6.42926Z" fill="#C6BAAA"/>
</svg>
