<svg width="40" height="40" viewBox="0 0 40 40" fill="none" xmlns="http://www.w3.org/2000/svg">
<rect width="40" height="40" rx="20" fill="#2C2C2C"/>
<g clip-path="url(#clip0_1805_27494)">
<path d="M27.8918 11.8579H26.5467V10.3861C26.5468 10.3353 26.5368 10.2851 26.5175 10.2383C26.4981 10.1914 26.4697 10.1488 26.4338 10.113C26.398 10.0771 26.3554 10.0487 26.3086 10.0293C26.2617 10.0099 26.2115 9.99995 26.1608 10H13.0365C12.3116 10 11.7217 10.5898 11.7217 11.3146V28.6852C11.7217 29.4097 12.3116 30 13.0365 30H27.8918C27.9425 30 27.9927 29.9901 28.0395 29.9707C28.0864 29.9513 28.129 29.9229 28.1648 29.887C28.2007 29.8512 28.2291 29.8086 28.2485 29.7617C28.2678 29.7149 28.2778 29.6647 28.2777 29.6139V12.2435C28.2778 12.1928 28.2678 12.1426 28.2484 12.0958C28.229 12.049 28.2005 12.0065 28.1647 11.9707C28.1288 11.9348 28.0863 11.9065 28.0395 11.8871C27.9926 11.8677 27.9424 11.8578 27.8918 11.8579ZM13.0365 10.7724H25.7748V11.8582H13.0365C12.7374 11.8582 12.4936 11.6147 12.4936 11.3154C12.4936 11.0163 12.7374 10.7724 13.0365 10.7724ZM21.2874 12.6299H24.3755V18.9961L23.0478 18.0999C22.9839 18.057 22.9085 18.034 22.8315 18.034C22.7543 18.0339 22.6789 18.0569 22.615 18.0999L21.2874 18.9961V12.6299Z" fill="#F2F0ED"/>
</g>
<defs>
<clipPath id="clip0_1805_27494">
<rect width="20" height="20" fill="white" transform="translate(10 10)"/>
</clipPath>
</defs>
</svg>
