<svg width="40" height="40" viewBox="0 0 40 40" fill="none" xmlns="http://www.w3.org/2000/svg">
<path d="M9.11612 19.1161C8.62796 19.6043 8.62796 20.3957 9.11612 20.8839L17.0711 28.8388C17.5592 29.327 18.3507 29.327 18.8388 28.8388C19.327 28.3507 19.327 27.5592 18.8388 27.0711L11.7678 20L18.8388 12.9289C19.327 12.4408 19.327 11.6493 18.8388 11.1612C18.3507 10.673 17.5592 10.673 17.0711 11.1612L9.11612 19.1161ZM30 21.25C30.6904 21.25 31.25 20.6904 31.25 20C31.25 19.3096 30.6904 18.75 30 18.75V21.25ZM10 21.25L30 21.25V18.75L10 18.75V21.25Z" fill="white"/>
</svg>
