<svg width="182" height="296" viewBox="0 0 182 296" fill="none" xmlns="http://www.w3.org/2000/svg">
<path d="M106.354 147.304L106.464 145.922H107.85H149.516H150.902L151.011 147.304C153.492 178.601 167.575 220.725 176.752 246.483C180.18 255.033 181.024 263.567 180.177 272.868C179.27 284.533 169.357 292.5 157.849 292.5H98.6833C87.127 292.5 77.2658 283.661 76.3566 272.879C75.4981 264.304 77.2221 254.964 79.7473 246.581L79.7642 246.525L79.7855 246.47C89.7804 220.755 103.873 178.605 106.354 147.304Z" fill="#F07929" stroke="#F2F0ED" stroke-width="3"/>
<path d="M99.0437 58.8416L99.0602 58.8361L99.0768 58.831L119.683 52.5166V35.2074H109.516C107.927 35.2074 106.486 34.6735 105.437 33.6291C104.388 32.5841 103.85 31.1454 103.85 29.5578V22.9183C103.85 21.3307 104.388 19.892 105.437 18.847C106.486 17.8026 107.927 17.2687 109.516 17.2687H119.683V7.14965C119.683 5.56204 120.221 4.12331 121.27 3.07833C122.319 2.0339 123.76 1.5 125.349 1.5H132.016C133.605 1.5 135.046 2.0339 136.095 3.07833C137.144 4.12331 137.682 5.56204 137.682 7.14965V17.2687H147.849C149.438 17.2687 150.879 17.8026 151.928 18.847C152.977 19.892 153.515 21.3307 153.515 22.9183V29.5578C153.515 31.1454 152.977 32.5841 151.928 33.6291C150.879 34.6735 149.438 35.2074 147.849 35.2074H137.682V52.5166L158.288 58.831L158.305 58.8361L158.321 58.8416C164 60.7267 167.891 67.3094 165.945 73.1693L155.705 106.901H162.015C169.504 106.901 175.182 112.547 175.182 120.02C175.182 127.625 168.533 133.139 161.182 133.139H95.3497C87.8605 133.139 82.1832 127.494 82.1832 120.02C82.1832 112.547 87.8605 106.901 95.3497 106.901H101.66L91.4203 73.1691C89.4736 67.3093 93.3654 60.7267 99.0437 58.8416Z" fill="#F07929" stroke="#F2F0ED" stroke-width="3"/>
<path d="M34.2439 187.437L34.6682 185.462H36.6881H78.085H80.1049L80.5292 187.437C85.1605 208.993 94.4493 232.176 101.453 247.699L101.457 247.71C104.734 255.062 106.36 263.202 106.36 271.32C106.36 283.613 96.6431 293.296 84.3336 293.296H30.4396C18.1969 293.296 8.41277 283.679 8.41277 272.099C8.41277 263.965 10.0451 255.86 13.2788 247.797L13.3176 247.7L13.3643 247.607C21.0819 232.212 29.6025 209.04 34.2439 187.437Z" fill="#F07929" stroke="#F2F0ED" stroke-width="5"/>
<path d="M36.3886 131.058L36.3999 131.176V131.295C36.3999 131.55 36.508 131.842 36.8968 132.144C37.3126 132.466 37.9377 132.69 38.5863 132.69H42.4917C42.8525 132.69 43.421 132.485 43.9481 131.96C44.4547 131.454 44.6615 130.914 44.6771 130.559L43.9002 115.06L43.897 114.998V114.935C43.897 112.951 44.8663 111.178 46.0961 109.952C47.3263 108.725 49.1011 107.761 51.0835 107.761H64.3617C66.3441 107.761 68.1189 108.725 69.3491 109.952C70.5789 111.178 71.5481 112.951 71.5481 114.935V115.001L71.5447 115.067L70.7682 129.783C70.7846 130.138 70.9916 130.676 71.4971 131.181C72.0242 131.706 72.5927 131.911 72.9535 131.911H76.8589C77.5075 131.911 78.1326 131.687 78.5484 131.365C78.9372 131.063 79.0453 130.771 79.0453 130.516V130.397L79.0566 130.279L80.6089 114.022C80.6536 112.003 81.7006 110.396 83.0396 109.357C84.3812 108.316 86.0993 107.761 87.7939 107.761H102.634C104.807 107.761 106.884 108.577 108.298 110.144C109.731 111.733 110.314 113.916 109.772 116.216L103.865 151.562C108.348 153.79 111.383 158.073 111.383 163.236C111.383 170.855 105.571 176.643 97.9478 176.643H15.9352C8.31208 176.643 2.50021 170.855 2.50021 163.236V162.988L2.549 162.745C3.38621 158.569 6.36431 154.52 10.7983 152.337L4.89256 116.995C4.34999 114.695 4.93268 112.512 6.36607 110.923C7.78005 109.356 9.85702 108.54 12.0299 108.54H27.6513C29.3459 108.54 31.064 109.095 32.4056 110.136C33.7445 111.175 34.7915 112.782 34.8362 114.801L36.3886 131.058Z" fill="#F07929" stroke="#F2F0ED" stroke-width="5"/>
<rect width="40.5396" height="8.44574" transform="matrix(-1 0 0 1 104.66 201.475)" fill="#F07929"/>
<path d="M64.2408 251.742L64.2436 251.735L64.2465 251.727C68.9699 240.334 75.002 225.683 79.019 211.053L79.3218 209.95H80.4655H122.268H123.425L123.719 211.069C127.73 226.34 133.753 240.308 139.131 251.66L139.138 251.674L139.145 251.689C141.934 257.922 143.321 264.829 143.321 271.723C143.321 281.937 135.224 289.966 124.965 289.966H78.4428C68.2248 289.966 60.0868 281.977 60.0868 272.393C60.0868 265.489 61.4777 258.603 64.2408 251.742Z" fill="#F2F0ED" stroke="#F07929" stroke-width="3"/>
<path d="M73.7234 201.565C67.5106 201.565 62.784 196.885 62.784 190.689C62.784 184.493 67.5106 179.813 73.7234 179.813H80.4819C76.7546 175.137 74.2461 169.116 74.2461 162.561C74.2461 146.965 87.0887 134.943 102.041 134.943C117.719 134.943 129.837 147.684 129.837 162.561C129.837 169.116 127.328 175.137 123.601 179.813H130.359C136.572 179.813 141.299 184.493 141.299 190.689C141.299 196.952 135.828 201.565 130.359 201.565H73.7234Z" fill="#F2F0ED" stroke="#F07929" stroke-width="3"/>
</svg>
