<svg width="24" height="24" viewBox="0 0 24 24" fill="none" xmlns="http://www.w3.org/2000/svg">
<path d="M12 2C10.0222 2 8.08879 2.58649 6.4443 3.6853C4.79981 4.78412 3.51809 6.3459 2.76121 8.17317C2.00433 10.0004 1.8063 12.0111 2.19215 13.9509C2.578 15.8907 3.53041 17.6725 4.92894 19.0711C6.32746 20.4696 8.10929 21.422 10.0491 21.8079C11.9889 22.1937 13.9996 21.9957 15.8268 21.2388C17.6541 20.4819 19.2159 19.2002 20.3147 17.5557C21.4135 15.9112 22 13.9778 22 12C21.9964 9.34894 20.9417 6.80748 19.0671 4.93289C17.1925 3.05831 14.6511 2.00359 12 2ZM11.7492 17.5661C11.548 17.5661 11.3514 17.5065 11.1842 17.3947C11.0169 17.283 10.8866 17.1241 10.8096 16.9383C10.7326 16.7525 10.7125 16.548 10.7517 16.3508C10.791 16.1535 10.8878 15.9723 11.0301 15.8301C11.1723 15.6878 11.3535 15.591 11.5508 15.5517C11.748 15.5125 11.9525 15.5326 12.1383 15.6096C12.3242 15.6866 12.483 15.8169 12.5947 15.9842C12.7065 16.1514 12.7661 16.348 12.7661 16.5492C12.7661 16.8189 12.659 17.0775 12.4683 17.2682C12.2775 17.459 12.0189 17.5661 11.7492 17.5661ZM13.4915 12.6881C13.2313 12.7688 13.0038 12.9309 12.8427 13.1506C12.6816 13.3703 12.5953 13.636 12.5966 13.9085C12.5966 14.1332 12.5073 14.3488 12.3484 14.5077C12.1895 14.6666 11.9739 14.7559 11.7492 14.7559C11.5244 14.7559 11.3088 14.6666 11.1499 14.5077C10.991 14.3488 10.9017 14.1332 10.9017 13.9085C10.899 13.2736 11.1006 12.6548 11.4766 12.1432C11.8526 11.6317 12.3831 11.2547 12.9898 11.0678C13.2504 10.9873 13.4783 10.8253 13.64 10.6056C13.8017 10.386 13.8887 10.1202 13.8881 9.84746C13.8675 9.36098 13.6597 8.90127 13.3082 8.56434C12.9567 8.22741 12.4886 8.03931 12.0017 8.03931C11.5148 8.03931 11.0467 8.22741 10.6952 8.56434C10.3437 8.90127 10.1359 9.36098 10.1153 9.84746C10.1153 10.0722 10.026 10.2878 9.86705 10.4467C9.70812 10.6056 9.49256 10.6949 9.2678 10.6949C9.04304 10.6949 8.82749 10.6056 8.66856 10.4467C8.50963 10.2878 8.42034 10.0722 8.42034 9.84746C8.44898 8.9167 8.83886 8.03364 9.50737 7.38539C10.1759 6.73713 11.0705 6.3746 12.0017 6.3746C12.9329 6.3746 13.8275 6.73713 14.496 7.38539C15.1645 8.03364 15.5544 8.9167 15.5831 9.84746C15.585 10.4826 15.3827 11.1015 15.0061 11.613C14.6296 12.1245 14.0986 12.5014 13.4915 12.6881Z" fill="#818181"/>
</svg>
