<svg width="40" height="40" viewBox="0 0 40 40" fill="none" xmlns="http://www.w3.org/2000/svg">
<path d="M10 18.75C9.30964 18.75 8.75 19.3096 8.75 20C8.75 20.6904 9.30964 21.25 10 21.25V18.75ZM30.8839 20.8839C31.372 20.3957 31.372 19.6043 30.8839 19.1161L22.9289 11.1612C22.4408 10.673 21.6493 10.673 21.1612 11.1612C20.673 11.6493 20.673 12.4408 21.1612 12.9289L28.2322 20L21.1612 27.0711C20.673 27.5592 20.673 28.3507 21.1612 28.8388C21.6493 29.327 22.4408 29.327 22.9289 28.8388L30.8839 20.8839ZM10 21.25L30 21.25V18.75L10 18.75V21.25Z" fill="white"/>
</svg>
