<svg width="40" height="40" viewBox="0 0 40 40" fill="none" xmlns="http://www.w3.org/2000/svg">
<path d="M22.2661 4.84383C22.8019 4.30353 23.5285 4 24.2861 4C25.0437 4 25.7703 4.30353 26.3061 4.84383L39.1635 17.8131C39.6991 18.3536 40 19.0865 40 19.8507C40 20.615 39.6991 21.3479 39.1635 21.8884L26.3061 34.8576C25.7672 35.3826 25.0455 35.6731 24.2964 35.6666C23.5472 35.66 22.8306 35.3569 22.3009 34.8225C21.7711 34.2882 21.4706 33.5653 21.4641 32.8096C21.4576 32.054 21.7456 31.326 22.2661 30.7824L30.0005 22.7328H2.85719C2.09941 22.7328 1.37268 22.4291 0.836851 21.8887C0.301024 21.3482 0 20.6151 0 19.8507C0 19.0864 0.301024 18.3533 0.836851 17.8128C1.37268 17.2723 2.09941 16.9687 2.85719 16.9687H30.0005L22.2661 8.91907C21.7304 8.3786 21.4295 7.64567 21.4295 6.88145C21.4295 6.11723 21.7304 5.3843 22.2661 4.84383Z" fill="#806C61"/>
</svg>
