<svg width="23" height="23" viewBox="0 0 23 23" fill="none" xmlns="http://www.w3.org/2000/svg">
<path fill-rule="evenodd" clip-rule="evenodd" d="M14.9873 7.77671H8.75521C8.12411 7.77671 7.57189 7.37406 7.57189 6.83719C7.57189 6.30032 8.04522 5.89767 8.67632 5.89767H9.4652L8.12411 2.94491C8.04522 2.60937 8.28188 2.34093 8.67632 2.40804L9.62297 2.60937C9.85964 2.20672 10.333 1.87117 10.9641 1.66985C10.8063 1.46852 10.7274 1.2672 10.7274 1.06587C10.7274 0.529006 11.2007 0.126358 11.8318 0.126358C12.4629 0.126358 12.9363 0.529006 12.9363 1.06587C12.9363 1.33431 12.8574 1.53563 12.6996 1.66985C13.3307 1.80407 13.804 2.13961 14.0407 2.60937L14.9873 2.40804C15.3818 2.34093 15.6973 2.67648 15.5396 2.94491L14.1985 5.89767H14.9873C15.6184 5.89767 16.0918 6.30032 16.0918 6.83719C16.0918 7.37406 15.6184 7.77671 14.9873 7.77671ZM9.85983 8.98464H13.8831C14.0409 11.5348 15.382 14.9573 16.3286 17.0376C16.5653 17.7087 16.7231 18.4469 16.6442 19.118C16.5653 19.9233 15.6975 20.5944 14.672 20.5944H9.07096C8.04542 20.5944 7.17765 19.9904 7.09877 19.118C7.01988 18.3798 7.09877 17.7087 7.41432 17.0376C8.28208 14.9573 9.62317 11.5348 9.85983 8.98464Z" fill="#818181"/>
</svg>
