<svg width="69" height="23" viewBox="0 0 69 23" fill="none" xmlns="http://www.w3.org/2000/svg">
<path fill-rule="evenodd" clip-rule="evenodd" d="M6.76682 18.4789H15.2107C15.5211 18.4789 15.7458 18.1472 15.6281 17.8154C15.3231 16.7613 15.0154 15.7071 14.7077 14.653C14.4001 13.5988 14.0924 12.5447 13.7874 11.4905C13.7767 11.4798 13.766 11.4584 13.766 11.437V11.4156C13.766 11.3193 13.8409 11.2443 13.9265 11.2336H14.5686C14.6435 11.2336 14.697 11.2229 14.7612 11.2015C14.9967 11.1266 15.1572 10.9126 15.1572 10.6557V9.25377C15.1572 9.05043 15.0609 8.8792 14.9111 8.77217C14.8148 8.70796 14.697 8.66515 14.5793 8.66515H13.5198C13.2951 8.66515 13.0917 8.48322 13.0917 8.25848C13.1024 8.16216 13.1345 8.07654 13.1987 8.00163C13.2201 7.96952 13.2523 7.93742 13.2951 7.91601C14.0549 7.26319 14.5365 6.3 14.5365 5.2191C14.5365 3.26062 12.9526 1.66602 10.9941 1.66602C9.02495 1.66602 7.44104 3.26062 7.43034 5.2191C7.43034 6.3 7.91193 7.26319 8.67178 7.91601C8.68783 7.93206 8.70389 7.94544 8.71994 7.95882C8.73599 7.9722 8.75205 7.98557 8.7681 8.00163C8.82161 8.06584 8.86442 8.16216 8.86442 8.25848C8.87512 8.48322 8.66108 8.66515 8.43634 8.66515H7.37683C7.24841 8.66515 7.14139 8.70796 7.04507 8.77217C6.89524 8.8792 6.79892 9.06113 6.79892 9.25377V10.6557C6.79892 10.9019 6.97015 11.1266 7.1949 11.2015C7.25911 11.2229 7.32332 11.2336 7.38753 11.2336H7.99755C8.09387 11.2336 8.17949 11.3193 8.17949 11.4156V11.4477C8.17949 11.4602 8.17581 11.4691 8.17277 11.4764C8.17062 11.4816 8.16878 11.4861 8.16878 11.4905C7.86377 12.5447 7.55608 13.6015 7.24839 14.6584C6.94071 15.7152 6.63304 16.772 6.32803 17.8261C6.23171 18.1472 6.45646 18.4789 6.76682 18.4789ZM4.6585 20.8551H17.319C17.426 20.8551 17.501 20.7695 17.501 20.6732V19.3889C17.501 19.2926 17.4153 19.207 17.319 19.207H4.6585C4.56218 19.207 4.47656 19.2926 4.47656 19.3889V20.6732C4.47656 20.7695 4.56218 20.8551 4.6585 20.8551Z" fill="#818181"/>
<path fill-rule="evenodd" clip-rule="evenodd" d="M32.1516 17.0428C33.2438 15.3939 33.897 13.3059 33.897 11.0465C33.897 7.22389 32.0338 3.91521 29.3034 2.33047C28.7894 1.96641 28.179 1.73084 27.5259 1.66659C27.3546 1.65589 27.2046 1.79509 27.2046 1.97712V3.15496C27.2046 3.32629 27.0654 3.46549 26.9048 3.46549H26.8727C26.6693 3.45478 26.4016 3.44407 26.0589 3.44407C25.9481 3.44407 25.8466 3.44264 25.7486 3.44125C25.4681 3.43729 25.2168 3.43374 24.8597 3.46549H24.8061C24.4206 3.49761 24.2922 3.52973 24.1744 3.59398C24.0138 3.67964 23.8317 3.89379 23.4784 4.33281C23.4088 4.41782 23.2375 4.66874 23.0353 4.96483C22.6772 5.48928 22.2224 6.15544 22.065 6.29232C21.915 6.43152 21.7223 6.59213 21.4439 6.64567C21.3342 6.66761 21.2611 6.66427 21.1698 6.6601C21.0828 6.65613 20.9793 6.65141 20.8122 6.66709C20.5679 6.69423 20.3695 6.75194 20.288 6.77565C20.273 6.78 20.262 6.78321 20.2554 6.78487C20.2125 6.79558 19.7628 6.94549 19.5272 7.20247C19.0133 7.71644 19.2595 8.86217 19.4951 9.45109C19.6022 9.71878 19.9341 10.5112 20.7372 10.8966C20.9406 11.0037 21.5296 11.2821 22.0542 11.0572C22.2344 10.9835 22.4647 10.8221 22.6014 10.7264C22.6434 10.6969 22.6766 10.6736 22.6967 10.6611C22.76 10.6136 22.8123 10.5726 22.8583 10.5365C22.9991 10.4261 23.0814 10.3616 23.2428 10.297C23.2454 10.2961 23.2481 10.2952 23.2508 10.2943C23.3507 10.2609 23.5605 10.1908 23.821 10.222C23.9709 10.2435 24.078 10.2863 24.153 10.3398C24.1851 10.3612 24.2172 10.3827 24.2386 10.4041C24.2279 10.4148 24.2279 10.4148 24.2279 10.4255C24.7954 11.0251 25.652 11.4106 26.6157 11.4106H26.7442C27.2475 11.3892 27.4938 12.0638 27.119 12.4064L27.1083 12.4171C26.6586 12.5135 26.2945 12.5563 26.0268 12.5777C25.7718 12.5979 25.5546 12.597 25.3516 12.5961C25.2307 12.5956 25.1148 12.5952 24.9989 12.5992C24.7526 12.5992 24.5063 12.6206 24.1958 12.6848C23.8638 12.7491 23.5854 12.8454 23.4141 12.9204C21.9686 13.4344 20.9406 14.8049 20.9406 16.4218C20.9406 16.636 20.9621 16.8501 20.9942 17.0536C21.0691 17.5033 21.2298 17.9209 21.4546 18.3064C21.551 18.467 21.7223 18.574 21.915 18.574H30.6632C30.8024 18.574 30.9416 18.5205 31.038 18.4134C31.4449 18.0065 31.8197 17.5461 32.1516 17.0428ZM32.9221 20.8547H20.2549C20.1478 20.8547 20.0729 20.7691 20.0729 20.6727V19.3878C20.0729 19.2914 20.1585 19.2057 20.2549 19.2057H32.9221C33.0185 19.2057 33.1041 19.2914 33.1041 19.3878V20.6727C33.1041 20.7691 33.0185 20.8547 32.9221 20.8547Z" fill="#818181"/>
<path fill-rule="evenodd" clip-rule="evenodd" d="M46.1236 12.2825C46.1557 12.1647 46.1985 11.9507 46.2199 11.6832C46.2199 11.6832 46.2735 11.2016 46.2092 10.6772C46.0166 9.28589 45.1176 7.91602 45.1176 7.91602C45.0689 7.843 45.0203 7.76911 44.9713 7.69485C44.8482 7.50791 44.7234 7.3186 44.5932 7.13477C44.4862 6.96354 44.2187 6.97424 44.1116 7.14547C44.0568 7.23161 44.0013 7.31775 43.9456 7.40408C43.697 7.78971 43.4459 8.17926 43.2448 8.59025C42.9665 9.18957 42.0461 8.66517 42.3244 8.07655C42.4822 7.73551 42.6884 7.41626 42.8947 7.09692C43.1221 6.74485 43.3496 6.39266 43.5123 6.01105C43.5551 5.90403 43.5337 5.79701 43.4481 5.7114C43.2876 5.55087 43.127 5.40104 42.9451 5.26191C42.9023 5.24051 42.8595 5.2084 42.8167 5.16559C42.806 5.16559 42.7953 5.15489 42.7846 5.14419L42.5919 5.01576C42.4956 4.94085 42.4635 4.81242 42.5277 4.7161L43.1056 3.81713C43.1484 3.74222 43.1484 3.6673 43.1056 3.60309L41.907 1.76233C41.8749 1.69812 41.8214 1.67672 41.7572 1.66602C41.7037 1.67672 41.6395 1.70882 41.6073 1.76233L40.4408 3.59239C40.398 3.6566 40.398 3.74222 40.4408 3.80643L41.0294 4.7161C41.0936 4.82313 41.0722 4.95155 40.9652 5.01576L40.7726 5.14419C40.7619 5.14419 40.7512 5.15489 40.7405 5.16559L40.7405 5.16559C40.7084 5.2084 40.6656 5.24051 40.6121 5.26191C39.7373 5.94695 39.0701 6.95373 38.4674 7.86321L38.4395 7.90532C38.4395 7.90532 37.5299 9.27519 37.3479 10.6665C37.2837 11.2016 37.3265 11.6832 37.3265 11.6832C37.3479 11.9507 37.3907 12.1647 37.4228 12.2825C37.4656 12.4644 37.5299 12.657 37.6048 12.8604C37.6797 13.0637 37.7546 13.2457 37.8402 13.4169C37.9365 13.6309 38.065 13.8236 38.2255 14.0055C38.4823 14.2945 38.7606 14.562 39.071 14.7868C39.0072 14.9905 38.9434 15.1947 38.8795 15.3991C38.6112 16.2575 38.3416 17.1202 38.065 17.976C37.99 18.2221 38.172 18.4683 38.4288 18.4683H45.2782C45.5243 18.4683 45.7062 18.2221 45.6313 17.976C45.4601 17.4302 45.2862 16.8817 45.1123 16.3332C44.9384 15.7847 44.7645 15.2362 44.5932 14.6904C44.8501 14.4871 45.0962 14.2516 45.321 14.0055C45.4708 13.8236 45.6099 13.6309 45.7062 13.4169C45.7919 13.2457 45.8668 13.0637 45.9417 12.8604C46.0057 12.6867 46.054 12.5208 46.1001 12.3628C46.108 12.3358 46.1158 12.309 46.1236 12.2825ZM48.0925 20.8551H35.4319C35.3356 20.8551 35.25 20.7695 35.25 20.6732V19.3889C35.25 19.2926 35.3356 19.207 35.4319 19.207H48.0925C48.1888 19.207 48.2744 19.2926 48.2744 19.3889V20.6732C48.2744 20.7695 48.1888 20.8551 48.0925 20.8551Z" fill="#818181"/>
<path fill-rule="evenodd" clip-rule="evenodd" d="M66.1036 9.90659C66.1145 9.90659 66.1253 9.89589 66.1253 9.88519C66.2658 9.77817 66.4604 9.91729 66.4063 10.0992L66.3847 10.1955C66.3847 10.1955 66.3739 10.2169 66.3739 10.2384C66.3739 10.2384 66.3739 10.2705 66.3631 10.3133L65.5956 13.4062L64.6876 17.0556L64.3741 18.3077C64.3525 18.4147 64.2552 18.4896 64.1579 18.4896H50.3326C50.2353 18.4896 50.1381 18.4147 50.1164 18.3077L49.803 17.0556L48.895 13.4062L48.1275 10.3133C48.1167 10.2705 48.1167 10.2384 48.1167 10.2384C48.1167 10.2169 48.1059 10.1955 48.1059 10.1955L48.0843 10.0992C48.041 9.91729 48.2356 9.77817 48.3761 9.88519C48.3761 9.8918 48.3802 9.89433 48.386 9.89782C48.3895 9.89998 48.3936 9.9025 48.3977 9.90659L51.3487 12.1326C51.4028 12.1647 51.4676 12.1326 51.4784 12.0577L51.8351 7.54144C51.8568 7.3488 52.0838 7.28459 52.181 7.44512L54.5808 11.2657C54.624 11.33 54.7105 11.3193 54.7321 11.2443L56.5589 5.7863C56.5697 5.7542 56.5589 5.72209 56.5481 5.70069L55.7914 4.34153C55.7482 4.26661 55.7482 4.17029 55.7914 4.09538L57.0561 1.77304C57.0994 1.69812 57.175 1.66602 57.2399 1.66602C57.3155 1.66602 57.3804 1.69812 57.4236 1.77304L58.71 4.08468C58.7532 4.15959 58.7532 4.25591 58.71 4.33082L57.9533 5.68998C57.9317 5.72209 57.9317 5.74349 57.9425 5.7756L59.7693 11.2336C59.7909 11.3086 59.8774 11.3193 59.9206 11.255L62.3095 7.44512C62.4068 7.28459 62.6446 7.3488 62.6554 7.54144L63.0121 12.0577C63.0121 12.1326 63.0878 12.1754 63.1418 12.1326L66.1036 9.90659ZM57.3372 16.1031L58.71 13.6309C58.7424 13.5881 58.7424 13.5239 58.71 13.4811L57.348 11.0089C57.3264 10.9768 57.2939 10.9447 57.2507 10.9447C57.2075 10.9447 57.175 10.9661 57.1534 11.0089L55.7698 13.4811C55.7482 13.5239 55.7482 13.5881 55.7698 13.6309L57.1426 16.1031C57.1642 16.1352 57.2075 16.1673 57.2399 16.1673C57.2831 16.1673 57.3155 16.1459 57.3372 16.1031ZM50.3215 20.8551H64.1684C64.2765 20.8551 64.363 20.7695 64.363 20.6625V19.3996C64.363 19.2926 64.2765 19.207 64.1684 19.207H50.3215C50.2134 19.207 50.1269 19.2926 50.1269 19.3996V20.6625C50.1269 20.7695 50.2134 20.8551 50.3215 20.8551Z" fill="#818181"/>
</svg>
