<svg width="25" height="26" viewBox="0 0 25 26" fill="none" xmlns="http://www.w3.org/2000/svg">
<g clip-path="url(#clip0_487_3839)">
<path d="M12.5 0.5C5.59687 0.5 0 6.09687 0 13C0 19.9031 5.59687 25.5 12.5 25.5C19.4031 25.5 25 19.9031 25 13C25 6.09687 19.4031 0.5 12.5 0.5ZM12.5 20.9792C11.5229 20.9792 10.8542 20.226 10.8542 19.25C10.8542 18.2458 11.551 17.5208 12.5 17.5208C13.5031 17.5208 14.1458 18.2458 14.1458 19.25C14.1458 20.2271 13.5031 20.9792 12.5 20.9792ZM13.1479 14.376C12.899 15.225 12.1146 15.2396 11.8531 14.376C11.5521 13.3802 10.4823 9.6 10.4823 7.14479C10.4823 3.90521 14.5354 3.88958 14.5354 7.14479C14.5344 9.61458 13.4073 13.4927 13.1479 14.376Z" fill="white"/>
</g>
<defs>
<clipPath id="clip0_487_3839">
<rect width="25" height="25" fill="white" transform="translate(0 0.5)"/>
</clipPath>
</defs>
</svg>
