<svg width="35" height="40" viewBox="0 0 35 40" fill="none" xmlns="http://www.w3.org/2000/svg">
<path fill-rule="evenodd" clip-rule="evenodd" d="M26.1737 8.4241C27.0239 8.4241 27.8574 8.57589 28.6576 8.84152C31.9751 10.3783 34.1256 14.0022 34.0756 18.1004C34.0756 21.3828 32.6919 24.2857 30.5414 26.1071V26.1451C29.8246 26.6953 29.2244 27.4353 28.8076 28.308C28.791 28.3365 28.7785 28.3697 28.766 28.4029C28.7535 28.4361 28.741 28.4693 28.7243 28.4978C28.6576 28.6495 28.5909 28.8013 28.5409 28.9531C28.5326 28.9816 28.5242 29.0053 28.5159 29.029C28.5076 29.0527 28.4992 29.0764 28.4909 29.1049C28.3909 29.3516 28.1575 29.5223 27.8907 29.5223H8.15256C7.88583 29.5223 7.65244 29.3326 7.55241 29.067V29.048C7.54408 29.029 7.53991 29.0148 7.53574 29.0005C7.53157 28.9863 7.52741 28.9721 7.51907 28.9531C7.46906 28.8013 7.40237 28.6306 7.33569 28.4788C7.31902 28.4219 7.28568 28.346 7.25234 28.2891C6.83557 27.4163 6.23542 26.6763 5.51858 26.1261V26.0882C3.38472 24.2667 1.98438 21.3638 1.98438 18.0815C1.98438 14.0022 4.11823 10.3783 7.46906 8.86049C8.25258 8.57589 9.08612 8.44308 9.93633 8.44308C10.3364 8.44308 10.7532 8.48102 11.1366 8.53794C12.2202 8.7087 13.2371 9.08817 14.154 9.67634C14.2541 9.79018 14.3874 9.86607 14.5375 9.92299C14.6542 9.97991 14.7709 9.99888 14.9042 9.99888C15.371 9.99888 15.7544 9.69531 15.9378 9.23995L15.9878 9.10714L16.6547 7.05803L16.888 6.39397L16.9214 6.31808C16.9214 6.30859 16.9256 6.29911 16.9297 6.28962C16.9339 6.28013 16.9381 6.27065 16.9381 6.26116V6.24219L16.9881 6.0904V6.05245V5.97656C16.9714 5.90067 16.9547 5.82478 16.9214 5.76786C16.838 5.61607 16.688 5.5212 16.5213 5.5212H16.4546L16.4046 5.54018C16.3879 5.54018 16.3546 5.54018 16.3379 5.55915C16.3212 5.55915 16.3046 5.55915 16.2879 5.57812C16.2796 5.57812 16.2754 5.58287 16.2712 5.58761C16.2671 5.59235 16.2629 5.5971 16.2546 5.5971L13.5872 6.75446H13.5539C13.4872 6.75446 13.4372 6.71652 13.4205 6.6596V6.64062V6.62165V2.48549C13.4205 2.4096 13.4872 2.35268 13.5539 2.35268H13.5706L13.6206 2.37165L16.3546 3.54799C16.3879 3.56696 16.4213 3.58594 16.4546 3.58594C16.5046 3.60491 16.538 3.60491 16.588 3.60491C16.8547 3.60491 17.0547 3.33928 17.0381 3.03571V2.99777V2.95982C17.0381 2.93759 17.0324 2.92187 17.0276 2.90885C17.0243 2.89965 17.0214 2.89179 17.0214 2.88393C17.0214 2.84598 17.0047 2.80803 16.9881 2.78906L16.1212 0.208705V0.189732C16.1045 0.132812 16.1212 0.094866 16.1379 0.0569196C16.1379 0.0379464 16.1545 0.0189732 16.1545 0.0189732C16.1545 0.0189732 16.1545 0 16.1712 0.0189732C16.1879 0 16.2045 0 16.2379 0H19.8554H19.8888H19.9055C19.9138 0 19.918 0.0047433 19.9221 0.0094866C19.9263 0.0142299 19.9305 0.0189732 19.9388 0.0189732C19.9888 0.0569196 20.0221 0.113839 20.0055 0.170759L19.9888 0.227678L19.0886 2.78906C19.0802 2.80803 19.0761 2.82226 19.0719 2.83649C19.0677 2.85072 19.0636 2.86495 19.0552 2.88393C19.0552 2.90616 19.0495 2.92187 19.0448 2.9349C19.0414 2.9441 19.0386 2.95196 19.0386 2.95982C19.0219 2.95982 19.0219 2.97879 19.0219 2.99777V3.03571C19.0052 3.33928 19.2053 3.60491 19.472 3.60491C19.522 3.60491 19.5554 3.60491 19.6054 3.58594C19.6387 3.58594 19.6721 3.56696 19.7054 3.54799L22.4394 2.37165L22.5061 2.35268H22.5228H22.5561H22.5728C22.5811 2.35268 22.5853 2.35742 22.5894 2.36216C22.5936 2.36691 22.5978 2.37165 22.6061 2.37165C22.6561 2.4096 22.6728 2.44754 22.6728 2.50446V6.5837V6.60268V6.62165C22.6728 6.64062 22.6728 6.6596 22.6561 6.67857L22.6395 6.69754C22.6311 6.69754 22.627 6.70229 22.6228 6.70703C22.6186 6.71177 22.6145 6.71652 22.6061 6.71652C22.5963 6.72767 22.5923 6.73227 22.5872 6.73416C22.5837 6.73549 22.5796 6.73549 22.5728 6.73549H22.5228C22.5144 6.73549 22.5103 6.73075 22.5061 6.726C22.5019 6.72126 22.4978 6.71652 22.4894 6.71652L19.8388 5.55915C19.829 5.548 19.8249 5.5434 19.8199 5.5415C19.8163 5.54018 19.8123 5.54018 19.8054 5.54018C19.7971 5.54018 19.7888 5.53543 19.7804 5.53069C19.7721 5.52595 19.7637 5.5212 19.7554 5.5212C19.7471 5.5212 19.7346 5.51646 19.7221 5.51172C19.7096 5.50697 19.6971 5.50223 19.6887 5.50223L19.6387 5.48326H19.572C19.4053 5.48326 19.2553 5.57812 19.1719 5.72991C19.1386 5.78683 19.1053 5.86272 19.1053 5.93861V6.01451V6.05245L19.1553 6.20424V6.22321C19.1553 6.2327 19.1594 6.24219 19.1636 6.25167C19.1678 6.26116 19.1719 6.27065 19.1719 6.28013L19.2053 6.35603L19.422 7.02009L20.1222 9.08817L20.1722 9.22098C20.3389 9.65736 20.739 9.97991 21.2058 9.97991C21.3225 9.97991 21.4558 9.96093 21.5725 9.90402C21.7226 9.86607 21.8393 9.7712 21.956 9.65736C22.8728 9.08817 23.8898 8.68973 24.9734 8.51897C25.3568 8.46205 25.7736 8.4241 26.1737 8.4241ZM10.2697 13.4425C10.2739 13.4378 10.2781 13.433 10.2864 13.433C10.2531 13.4141 10.2197 13.3951 10.1364 13.4141C10.0864 13.4141 10.0197 13.3951 9.96967 13.3761L9.86965 13.3571C9.81964 13.3382 9.75295 13.3192 9.70294 13.3192C9.67793 13.3192 9.64876 13.3145 9.61959 13.3097C9.59041 13.305 9.56124 13.3002 9.53623 13.3002H9.50289C9.40287 13.2812 9.30284 13.2812 9.20282 13.2812H9.01944C8.93609 13.2812 8.85273 13.2812 8.76938 13.3002C8.73364 13.3002 8.70269 13.3057 8.67397 13.3107C8.64909 13.3151 8.62588 13.3192 8.60267 13.3192C8.57766 13.3287 8.55266 13.3334 8.52765 13.3382C8.50265 13.3429 8.47764 13.3477 8.45263 13.3571C8.41096 13.3666 8.36928 13.3809 8.3276 13.3951C8.28593 13.4093 8.24425 13.4235 8.20257 13.433C8.18304 13.433 8.16923 13.4395 8.15779 13.4449C8.1497 13.4488 8.14279 13.452 8.13589 13.452C8.12755 13.452 8.11922 13.4567 8.11088 13.4615C8.10255 13.4662 8.09421 13.471 8.08588 13.471C7.95251 13.5089 7.80247 13.5658 7.66911 13.6417C7.51907 13.7176 7.35236 13.8125 7.18565 13.9453C6.88558 14.154 6.66886 14.3817 6.50215 14.5714C6.35212 14.7801 6.1354 15.0837 5.95202 15.5011C5.68529 16.1083 5.60193 16.6205 5.55192 17C5.50191 17.3795 5.46857 17.9297 5.51858 18.5748C5.51858 19.3716 5.63527 20.1685 5.86866 20.9275C6.33545 22.4074 7.18565 23.6596 8.31927 24.5134C8.50265 24.6462 8.68602 24.779 8.88607 24.8928C9.11946 25.0446 9.35285 25.1585 9.58625 25.2533C9.59458 25.2533 9.60708 25.2581 9.61959 25.2628C9.63209 25.2676 9.64459 25.2723 9.65293 25.2723H9.68627C9.78629 25.2723 9.86965 25.1774 9.86965 25.0636C9.86965 25.0257 9.80297 24.9118 9.78629 24.8928C9.78125 24.8857 9.77612 24.8784 9.77089 24.871C9.70701 24.7804 9.62996 24.6712 9.5529 24.5134C8.96943 23.4129 8.06921 20.8326 7.98585 20.3203V20.2634C7.98585 20.2463 7.98248 20.2254 7.97878 20.2024C7.97423 20.1743 7.96918 20.1429 7.96918 20.1116V20.0926C7.95251 20.0167 7.93584 19.9219 7.93584 19.846C7.93584 19.808 7.93167 19.7653 7.9275 19.7227C7.92334 19.68 7.91917 19.6373 7.91917 19.5993C7.9025 19.4286 7.9025 19.2388 7.9025 19.0491V19.0491C7.9025 18.2712 8.01919 17.5123 8.23591 16.8292C8.26925 16.7154 8.3026 16.6205 8.33594 16.5257C8.34427 16.5162 8.34844 16.5019 8.35261 16.4877C8.35678 16.4735 8.36094 16.4593 8.36928 16.4498C8.38201 16.4208 8.39232 16.3946 8.40112 16.3722C8.41536 16.3359 8.42566 16.3097 8.43596 16.298C8.61934 15.8616 8.71937 15.6529 8.78605 15.5201C8.80012 15.4945 8.81467 15.4678 8.83025 15.4391C8.90698 15.2983 9.00883 15.1113 9.20282 14.7801C9.25283 14.6853 9.28617 14.6284 9.3195 14.5714L9.31951 14.5714C9.32785 14.5525 9.34035 14.5335 9.35285 14.5145C9.36536 14.4955 9.37786 14.4766 9.3862 14.4576C9.39513 14.4423 9.40287 14.4284 9.41005 14.4156C9.42967 14.3803 9.44514 14.3526 9.46955 14.3248C9.48622 14.3058 9.49872 14.2868 9.51123 14.2679C9.52373 14.2489 9.53623 14.2299 9.5529 14.2109C9.56957 14.192 9.58624 14.1682 9.60291 14.1445C9.61959 14.1208 9.63626 14.0971 9.65293 14.0781V14.0591C9.6593 14.0519 9.66323 14.0447 9.66659 14.0385C9.67203 14.0284 9.67597 14.0212 9.68627 14.0212C9.70952 14.008 9.72466 13.9855 9.73735 13.9667C9.74286 13.9585 9.74791 13.9511 9.75295 13.9453C9.86965 13.8125 9.98634 13.6797 10.1197 13.5658C10.1447 13.5469 10.1656 13.5279 10.1864 13.5089C10.2072 13.49 10.2281 13.471 10.2531 13.452C10.2614 13.452 10.2656 13.4473 10.2697 13.4425ZM17.3215 13.0915L16.0712 14.5145C15.9045 14.7042 15.9045 14.9888 16.0712 15.1786L17.7549 17.0949C17.8383 17.1897 17.955 17.2277 18.055 17.2277C18.1717 17.2277 18.2717 17.1897 18.3551 17.0949L20.0388 15.1596C20.2055 14.9888 20.2055 14.7042 20.0388 14.5145L18.7885 13.0915L18.3551 12.5982C18.2717 12.5033 18.1717 12.4654 18.055 12.4654C17.955 12.4654 17.8383 12.5033 17.7549 12.5982L17.3215 13.0915ZM19.8054 24.5324L21.3558 22.7679C21.6225 22.4643 21.6225 21.971 21.3558 21.6674L18.5384 18.4609C18.3884 18.3091 18.2217 18.2333 18.0383 18.2333C17.8549 18.2333 17.6716 18.3091 17.5382 18.4609L14.7208 21.6674C14.4541 21.971 14.4541 22.4643 14.7208 22.7679L16.2712 24.5324L16.5713 24.8739L17.5382 25.9743C17.6882 26.1261 17.8549 26.202 18.0383 26.202C18.2217 26.202 18.4051 26.1261 18.5384 25.9743L19.5054 24.8739L19.8054 24.5324ZM30.208 20.9464C30.4414 20.1685 30.5581 19.3716 30.5581 18.5748C30.6081 17.9297 30.5747 17.3795 30.4747 17L30.4741 16.9949C30.4241 16.616 30.3568 16.1056 30.0913 15.5011C29.9079 15.0837 29.7079 14.7801 29.5412 14.5714C29.3744 14.3817 29.1411 14.154 28.8577 13.9453C28.6909 13.8125 28.5242 13.7176 28.3742 13.6417C28.2408 13.5848 28.1075 13.5279 27.9574 13.471C27.9491 13.471 27.9408 13.4662 27.9324 13.4615C27.9241 13.4567 27.9158 13.452 27.9074 13.452C27.8879 13.452 27.8741 13.4455 27.8626 13.4401C27.8545 13.4363 27.8476 13.433 27.8407 13.433C27.7574 13.3951 27.674 13.3761 27.5907 13.3571C27.5657 13.3477 27.5407 13.3429 27.5157 13.3382C27.4907 13.3334 27.4656 13.3287 27.4406 13.3192C27.4049 13.3192 27.374 13.3137 27.3452 13.3087C27.3204 13.3043 27.2971 13.3002 27.2739 13.3002C27.2323 13.3002 27.1906 13.2955 27.1489 13.2907C27.1072 13.286 27.0655 13.2812 27.0239 13.2812H26.8405C26.7405 13.2812 26.6404 13.2812 26.5404 13.3002H26.5071C26.4839 13.3002 26.4607 13.3043 26.4358 13.3087C26.4071 13.3137 26.3761 13.3192 26.3404 13.3192C26.3154 13.3287 26.2862 13.3334 26.257 13.3382C26.2278 13.3429 26.1987 13.3477 26.1737 13.3571L26.0736 13.3761C26.0236 13.3761 25.9569 13.3951 25.9069 13.4141C25.8903 13.4235 25.8736 13.4283 25.8569 13.433C25.8402 13.4378 25.8236 13.4425 25.8069 13.452C25.8152 13.452 25.8194 13.4567 25.8236 13.4615C25.8277 13.4662 25.8319 13.471 25.8402 13.471C25.8652 13.49 25.8861 13.5089 25.9069 13.5279C25.9278 13.5469 25.9486 13.5658 25.9736 13.5848C26.107 13.6987 26.2237 13.8315 26.3404 13.9643C26.3636 13.9775 26.3788 14 26.3914 14.0188C26.397 14.0269 26.402 14.0344 26.407 14.0402C26.407 14.0497 26.4112 14.0544 26.4154 14.0591C26.4196 14.0639 26.4237 14.0686 26.4237 14.0781L26.4404 14.0971C26.4571 14.1161 26.4737 14.1398 26.4904 14.1635C26.5071 14.1872 26.5237 14.2109 26.5404 14.2299C26.5738 14.2679 26.6071 14.3058 26.6238 14.3437C26.6327 14.359 26.6404 14.3729 26.6476 14.3858C26.6672 14.421 26.6827 14.4488 26.7071 14.4766C26.7155 14.4955 26.728 14.5145 26.7405 14.5335C26.753 14.5525 26.7655 14.5714 26.7738 14.5904C26.8071 14.6473 26.8405 14.7042 26.8905 14.7991C27.1072 15.1786 27.2239 15.3873 27.3073 15.5391C27.374 15.6719 27.474 15.8806 27.6574 16.317C27.6677 16.3287 27.678 16.3549 27.6922 16.3911C27.701 16.4135 27.7113 16.4398 27.724 16.4687C27.7407 16.4877 27.7574 16.5257 27.7574 16.5446C27.7741 16.5921 27.7907 16.6442 27.8074 16.6964C27.8241 16.7486 27.8407 16.8008 27.8574 16.8482C28.0741 17.5312 28.1908 18.2902 28.1908 19.0681C28.1908 19.2388 28.1908 19.4286 28.1742 19.6183C28.1742 19.6942 28.1742 19.7891 28.1575 19.865C28.1491 19.9029 28.145 19.9456 28.1408 19.9883C28.1366 20.031 28.1325 20.0737 28.1241 20.1116V20.1306C28.1241 20.1476 28.1208 20.1685 28.1171 20.1915C28.1125 20.2197 28.1075 20.251 28.1075 20.2824C28.0908 20.3013 28.0908 20.3203 28.0908 20.3393C28.0074 20.8516 27.1072 23.4319 26.5237 24.5324C26.4467 24.6902 26.3696 24.7994 26.3058 24.89C26.3005 24.8974 26.2954 24.9047 26.2904 24.9118C26.2737 24.9308 26.207 25.0446 26.207 25.0826C26.207 25.1964 26.2904 25.2913 26.3904 25.2913H26.4237C26.4321 25.2913 26.4446 25.2865 26.4571 25.2818C26.4696 25.2771 26.4821 25.2723 26.4904 25.2723C26.7238 25.1585 26.9572 25.0446 27.1906 24.9118C27.3906 24.798 27.574 24.6652 27.7574 24.5324C28.891 23.6786 29.7579 22.4263 30.208 20.9464ZM8.18727 34H27.9088C28.0755 34 28.1922 33.8482 28.1922 33.6774V31.4007C28.1922 31.2299 28.0588 31.0781 27.9088 31.0781H8.18727C8.03723 31.0781 7.90387 31.2299 7.90387 31.4007V33.6774C7.90387 33.8482 8.03723 34 8.18727 34Z" fill="black"/>
</svg>
