<svg width="60" height="70" viewBox="0 0 60 70" fill="none" xmlns="http://www.w3.org/2000/svg">
<path d="M8.9088 70H52.0662C56.4366 70 59.7144 67.2903 59.7144 63.6774C59.7144 60.0645 56.4366 57.3548 52.0662 57.3548H46.6032L53.7051 37.9355C54.7977 35.2258 52.6125 32.0645 49.3347 31.1613L35.131 27.5484V16.7097H42.7792C44.4181 16.7097 45.5107 15.8065 45.5107 14.4516V10.8387C45.5107 9.48388 44.4181 8.58065 42.7792 8.58065H35.131V2.25806C35.131 0.903226 34.0384 0 32.3995 0H28.0292C26.3903 0 25.2977 0.903226 25.2977 2.25806V8.58065H17.6495C16.0107 8.58065 14.9181 9.48388 14.9181 10.8387V14.4516C14.9181 15.8065 16.0107 16.7097 17.6495 16.7097H25.2977V27.5484L11.094 31.1613C7.81621 32.0645 5.63102 35.2258 6.72362 37.9355L13.8255 57.3548H8.3625C3.99213 57.3548 0.714355 60.0645 0.714355 63.6774C0.714355 67.2903 4.53843 70 8.9088 70Z" fill="black"/>
<path d="M0.714355 63.6774C0.714355 67.2903 3.99213 70 8.3625 70H29.9412L30.2144 0H28.0292C26.3903 0 25.2977 0.903226 25.2977 2.25806V8.58065H17.6495C16.0107 8.58065 14.9181 9.48388 14.9181 10.8387V14.4516C14.9181 15.8065 16.0107 16.7097 17.6495 16.7097H25.2977V27.5484L11.094 31.1613C7.8162 32.0645 5.63103 35.2258 6.72362 37.9355L13.8255 57.3548H8.3625C3.99213 57.3548 0.714355 60.0645 0.714355 63.6774Z" fill="white"/>
</svg>
