<svg width="40" height="40" viewBox="0 0 40 40" fill="none" xmlns="http://www.w3.org/2000/svg">
<g clip-path="url(#clip0_425_3565)">
<path d="M35.8333 10H24.1667C23.062 10.0013 22.003 10.4407 21.2218 11.2218C20.4407 12.003 20.0013 13.062 20 14.1667V40H40V14.1667C40 11.87 38.1317 10 35.8333 10ZM30 15C30.3284 15.0001 30.6536 15.0649 30.957 15.1907C31.2603 15.3165 31.536 15.5008 31.7681 15.7331C32.0003 15.9654 32.1844 16.2411 32.31 16.5446C32.4355 16.848 32.5001 17.1733 32.5 17.5017C32.4999 17.8301 32.4351 18.1553 32.3093 18.4586C32.1835 18.762 31.9992 19.0376 31.7669 19.2698C31.5346 19.5019 31.2589 19.686 30.9554 19.8116C30.652 19.9372 30.3267 20.0018 29.9983 20.0017C29.3351 20.0014 28.6991 19.7378 28.2302 19.2686C27.7614 18.7994 27.4981 18.1633 27.4983 17.5C27.4986 16.8367 27.7622 16.2007 28.2314 15.7319C28.7006 15.263 29.3367 14.9998 30 15ZM30 36.6667C28.4529 36.6667 26.9692 36.0521 25.8752 34.9581C24.7812 33.8642 24.1667 32.3804 24.1667 30.8333C24.1667 29.2862 24.7812 27.8025 25.8752 26.7085C26.9692 25.6146 28.4529 25 30 25C31.5471 25 33.0308 25.6146 34.1248 26.7085C35.2188 27.8025 35.8333 29.2862 35.8333 30.8333C35.8333 32.3804 35.2188 33.8642 34.1248 34.9581C33.0308 36.0521 31.5471 36.6667 30 36.6667ZM35 6.66667H23.3333C21.5652 6.66667 19.8695 7.36905 18.6193 8.61929C17.369 9.86953 16.6667 11.5652 16.6667 13.3333V35H8.33333V31.6667H13.3333V28.3333H0V5C0 3.67392 0.526784 2.40215 1.46447 1.46447C2.40215 0.526784 3.67392 0 5 0L30 0C31.3261 0 32.5979 0.526784 33.5355 1.46447C34.4732 2.40215 35 3.67392 35 5V6.66667ZM27.5 30.8333C27.5001 30.5049 27.5649 30.1797 27.6907 29.8764C27.8165 29.573 28.0008 29.2974 28.2331 29.0652C28.4654 28.8331 28.7411 28.649 29.0446 28.5234C29.348 28.3978 29.6733 28.3332 30.0017 28.3333C30.3301 28.3334 30.6553 28.3982 30.9586 28.524C31.262 28.6498 31.5376 28.8341 31.7698 29.0664C32.0019 29.2987 32.186 29.5745 32.3116 29.8779C32.4372 30.1814 32.5018 30.5066 32.5017 30.835C32.5014 31.4983 32.2378 32.1343 31.7686 32.6031C31.2994 33.072 30.6633 33.3352 30 33.335C29.3367 33.3348 28.7007 33.0711 28.2319 32.6019C27.763 32.1328 27.4998 31.4966 27.5 30.8333Z" fill="white"/>
</g>
<defs>
<clipPath id="clip0_425_3565">
<rect width="40" height="40" fill="white"/>
</clipPath>
</defs>
</svg>
