<svg width="24" height="24" viewBox="0 0 24 24" fill="none" xmlns="http://www.w3.org/2000/svg">
<path d="M22 8.16201V8.23501C22 9.09501 22 9.52601 21.793 9.87801C21.586 10.23 21.209 10.439 20.457 10.858L19.664 11.298C20.21 9.45001 20.393 7.46401 20.46 5.76601L20.47 5.54501L20.472 5.49301C21.123 5.71901 21.489 5.88801 21.717 6.20401C22 6.59701 22 7.11901 22 8.16201ZM2 8.16201V8.23501C2 9.09501 2 9.52601 2.207 9.87801C2.414 10.23 2.791 10.439 3.543 10.858L4.337 11.298C3.79 9.45001 3.607 7.46401 3.54 5.76601L3.53 5.54501L3.529 5.49301C2.877 5.71901 2.511 5.88801 2.283 6.20401C2 6.59701 2 7.12001 2 8.16201Z" fill="#F07929"/>
<path fill-rule="evenodd" clip-rule="evenodd" d="M16.3769 2.34699C14.9301 2.10986 13.466 1.99379 11.9999 1.99999C10.2169 1.99999 8.74688 2.15699 7.62288 2.34699C6.48388 2.53899 5.91488 2.63499 5.43888 3.22099C4.96388 3.80699 4.98888 4.43999 5.03888 5.70599C5.21188 10.054 6.14988 15.486 11.2499 15.966V19.5H9.81988C9.58879 19.5001 9.36488 19.5803 9.18622 19.7269C9.00756 19.8735 8.88518 20.0774 8.83988 20.304L8.64988 21.25H5.99988C5.80097 21.25 5.61021 21.329 5.46955 21.4697C5.3289 21.6103 5.24988 21.8011 5.24988 22C5.24988 22.1989 5.3289 22.3897 5.46955 22.5303C5.61021 22.671 5.80097 22.75 5.99988 22.75H17.9999C18.1988 22.75 18.3896 22.671 18.5302 22.5303C18.6709 22.3897 18.7499 22.1989 18.7499 22C18.7499 21.8011 18.6709 21.6103 18.5302 21.4697C18.3896 21.329 18.1988 21.25 17.9999 21.25H15.3499L15.1599 20.304C15.1146 20.0774 14.9922 19.8735 14.8135 19.7269C14.6349 19.5803 14.411 19.5001 14.1799 19.5H12.7499V15.966C17.8499 15.486 18.7889 10.055 18.9609 5.70599C19.0109 4.43999 19.0369 3.80599 18.5609 3.22099C18.0849 2.63499 17.5159 2.53899 16.3769 2.34699ZM12.7869 5.80699C12.9239 5.86376 13.0411 5.9599 13.1235 6.08326C13.2059 6.20661 13.2499 6.35164 13.2499 6.49999V10.5C13.2499 10.6989 13.1709 10.8897 13.0302 11.0303C12.8896 11.171 12.6988 11.25 12.4999 11.25C12.301 11.25 12.1102 11.171 11.9696 11.0303C11.8289 10.8897 11.7499 10.6989 11.7499 10.5V8.30999L11.5299 8.52999C11.4612 8.60368 11.3784 8.66278 11.2864 8.70377C11.1944 8.74476 11.0951 8.76681 10.9944 8.76858C10.8937 8.77036 10.7937 8.75184 10.7003 8.71411C10.6069 8.67639 10.5221 8.62025 10.4508 8.54903C10.3796 8.47781 10.3235 8.39298 10.2858 8.29959C10.248 8.2062 10.2295 8.10617 10.2313 8.00547C10.2331 7.90477 10.2551 7.80545 10.2961 7.71345C10.3371 7.62145 10.3962 7.53865 10.4699 7.46999L11.9699 5.96999C12.0747 5.8651 12.2083 5.79363 12.3537 5.76462C12.4991 5.73561 12.6498 5.75035 12.7869 5.80699Z" fill="#F07929"/>
</svg>
