<svg width="24" height="24" viewBox="0 0 24 24" fill="none" xmlns="http://www.w3.org/2000/svg">
<path d="M4 1C3.73478 1 3.48043 1.07243 3.29289 1.20136C3.10536 1.3303 3 1.50516 3 1.6875V22.3125C3 22.4948 3.10536 22.6697 3.29289 22.7986C3.48043 22.9276 3.73478 23 4 23C4.26522 23 4.51957 22.9276 4.70711 22.7986C4.89464 22.6697 5 22.4948 5 22.3125V1.6875C5 1.50516 4.89464 1.3303 4.70711 1.20136C4.51957 1.07243 4.26522 1 4 1Z" fill="#2C2C2C"/>
<path d="M20.3333 2.54668C20.232 2.48816 20.117 2.45736 20 2.45736C19.883 2.45736 19.768 2.48816 19.6667 2.54668C18.3743 3.08995 16.9815 3.3535 15.58 3.32001C14.3725 3.23185 13.1965 2.89358 12.1267 2.32668C11.0976 1.7711 9.96524 1.433 8.8 1.33334C7.83837 1.3351 6.88664 1.52771 6 1.90001V13.3333C6.86856 12.8581 7.84326 12.6104 8.83333 12.6133C9.81383 12.7103 10.7654 13.0003 11.6333 13.4667C12.8731 14.115 14.2366 14.4922 15.6333 14.5733C17.2363 14.6064 18.8278 14.295 20.3 13.66C20.4099 13.6046 20.5024 13.5198 20.5671 13.4151C20.6318 13.3104 20.6663 13.1898 20.6667 13.0667V3.11334C20.6648 2.99814 20.6331 2.88538 20.5747 2.78606C20.5163 2.68675 20.4331 2.60427 20.3333 2.54668Z" fill="#2C2C2C"/>
</svg>
