<svg width="40" height="40" viewBox="0 0 40 40" fill="none" xmlns="http://www.w3.org/2000/svg">
<path d="M15.0002 29.9958C15.0002 30.9186 15.7482 31.6667 16.671 31.6667H33.2877C34.2335 31.6667 35.0002 30.9 35.0002 29.9542C35.0002 29.005 34.2282 28.2369 33.2791 28.2417L16.6626 28.325C15.7431 28.3296 15.0002 29.0763 15.0002 29.9958ZM15.0002 20C15.0002 20.9205 15.7464 21.6667 16.6668 21.6667H33.3335C34.254 21.6667 35.0002 20.9205 35.0002 20C35.0002 19.0795 34.254 18.3333 33.3335 18.3333H16.6668C15.7464 18.3333 15.0002 19.0795 15.0002 20ZM16.6668 8.33333C15.7464 8.33333 15.0002 9.07953 15.0002 10C15.0002 10.9205 15.7464 11.6667 16.6668 11.6667H33.3335C34.254 11.6667 35.0002 10.9205 35.0002 10C35.0002 9.07953 34.254 8.33333 33.3335 8.33333H16.6668ZM8.3335 7.5C8.00508 7.50011 7.67991 7.5649 7.37653 7.69068C7.07316 7.81646 6.79753 8.00077 6.56538 8.23307C6.33324 8.46537 6.14912 8.74112 6.02354 9.04458C5.89796 9.34803 5.83339 9.67325 5.8335 10.0017C5.83361 10.3301 5.8984 10.6553 6.02418 10.9586C6.14996 11.262 6.33426 11.5376 6.56656 11.7698C6.79886 12.0019 7.07462 12.186 7.37807 12.3116C7.68153 12.4372 8.00675 12.5018 8.33516 12.5017C8.99843 12.5014 9.63443 12.2378 10.1033 11.7686C10.5721 11.2994 10.8354 10.6633 10.8352 10C10.8349 9.33674 10.5712 8.70073 10.1021 8.23189C9.63294 7.76305 8.99676 7.49978 8.3335 7.5ZM8.3335 17.5C8.00508 17.5001 7.67991 17.5649 7.37653 17.6907C7.07316 17.8165 6.79753 18.0008 6.56538 18.2331C6.33324 18.4654 6.14912 18.7411 6.02354 19.0446C5.89796 19.348 5.83339 19.6733 5.8335 20.0017C5.83361 20.3301 5.8984 20.6553 6.02418 20.9586C6.14996 21.262 6.33426 21.5376 6.56656 21.7698C6.79886 22.0019 7.07462 22.186 7.37807 22.3116C7.68153 22.4372 8.00675 22.5018 8.33516 22.5017C8.99843 22.5014 9.63443 22.2378 10.1033 21.7686C10.5721 21.2994 10.8354 20.6633 10.8352 20C10.8349 19.3367 10.5712 18.7007 10.1021 18.2319C9.63294 17.763 8.99676 17.4998 8.3335 17.5ZM8.3335 27.5C8.00508 27.5001 7.67991 27.5649 7.37653 27.6907C7.07316 27.8165 6.79753 28.0008 6.56538 28.2331C6.33324 28.4654 6.14912 28.7411 6.02354 29.0446C5.89796 29.348 5.83339 29.6733 5.8335 30.0017C5.83361 30.3301 5.8984 30.6553 6.02418 30.9586C6.14996 31.262 6.33426 31.5376 6.56656 31.7698C6.79886 32.0019 7.07462 32.186 7.37807 32.3116C7.68153 32.4372 8.00675 32.5018 8.33516 32.5017C8.99843 32.5014 9.63443 32.2378 10.1033 31.7686C10.5721 31.2994 10.8354 30.6633 10.8352 30C10.8349 29.3367 10.5712 28.7007 10.1021 28.2319C9.63294 27.763 8.99676 27.4998 8.3335 27.5Z" fill="#F2F0ED"/>
</svg>
