<svg width="32" height="32" viewBox="0 0 32 32" fill="none" xmlns="http://www.w3.org/2000/svg">
<rect width="32" height="32" rx="16" fill="#C6BAAA"/>
<path d="M16.9277 18.6543H14.4375C14.444 18.0684 14.4896 17.5638 14.5742 17.1406C14.6654 16.7109 14.8184 16.3236 15.0332 15.9785C15.2546 15.6335 15.5475 15.2917 15.9121 14.9531C16.2181 14.6797 16.485 14.4193 16.7129 14.1719C16.9408 13.9245 17.1198 13.6706 17.25 13.4102C17.3802 13.1432 17.4453 12.847 17.4453 12.5215C17.4453 12.1439 17.3867 11.8314 17.2695 11.584C17.1589 11.3301 16.9896 11.138 16.7617 11.0078C16.5404 10.8776 16.2604 10.8125 15.9219 10.8125C15.6419 10.8125 15.3815 10.8743 15.1406 10.998C14.8997 11.1152 14.7012 11.2975 14.5449 11.5449C14.3952 11.7923 14.3171 12.1178 14.3105 12.5215H11.4785C11.498 11.6296 11.7031 10.8939 12.0938 10.3145C12.4909 9.72852 13.0215 9.29557 13.6855 9.01562C14.3496 8.72917 15.0951 8.58594 15.9219 8.58594C16.8333 8.58594 17.6146 8.73568 18.2656 9.03516C18.9167 9.32812 19.4147 9.76107 19.7598 10.334C20.1048 10.9004 20.2773 11.5905 20.2773 12.4043C20.2773 12.9707 20.1667 13.4753 19.9453 13.918C19.724 14.3542 19.4342 14.7611 19.0762 15.1387C18.7181 15.5163 18.3242 15.9069 17.8945 16.3105C17.5234 16.6426 17.2695 16.9909 17.1328 17.3555C17.0026 17.7201 16.9342 18.153 16.9277 18.6543ZM14.1445 21.6719C14.1445 21.2552 14.2878 20.9102 14.5742 20.6367C14.8607 20.3568 15.2448 20.2168 15.7266 20.2168C16.2018 20.2168 16.5827 20.3568 16.8691 20.6367C17.1621 20.9102 17.3086 21.2552 17.3086 21.6719C17.3086 22.0755 17.1621 22.4173 16.8691 22.6973C16.5827 22.9772 16.2018 23.1172 15.7266 23.1172C15.2448 23.1172 14.8607 22.9772 14.5742 22.6973C14.2878 22.4173 14.1445 22.0755 14.1445 21.6719Z" fill="#2C2C2C"/>
</svg>
