<svg width="40" height="40" viewBox="0 0 40 40" fill="none" xmlns="http://www.w3.org/2000/svg">
<rect width="40" height="40" rx="20" fill="#2C2C2C"/>
<path d="M20.9277 22.6543H18.4375C18.444 22.0684 18.4896 21.5638 18.5742 21.1406C18.6654 20.7109 18.8184 20.3236 19.0332 19.9785C19.2546 19.6335 19.5475 19.2917 19.9121 18.9531C20.2181 18.6797 20.485 18.4193 20.7129 18.1719C20.9408 17.9245 21.1198 17.6706 21.25 17.4102C21.3802 17.1432 21.4453 16.847 21.4453 16.5215C21.4453 16.1439 21.3867 15.8314 21.2695 15.584C21.1589 15.3301 20.9896 15.138 20.7617 15.0078C20.5404 14.8776 20.2604 14.8125 19.9219 14.8125C19.6419 14.8125 19.3815 14.8743 19.1406 14.998C18.8997 15.1152 18.7012 15.2975 18.5449 15.5449C18.3952 15.7923 18.3171 16.1178 18.3105 16.5215H15.4785C15.498 15.6296 15.7031 14.8939 16.0938 14.3145C16.4909 13.7285 17.0215 13.2956 17.6855 13.0156C18.3496 12.7292 19.0951 12.5859 19.9219 12.5859C20.8333 12.5859 21.6146 12.7357 22.2656 13.0352C22.9167 13.3281 23.4147 13.7611 23.7598 14.334C24.1048 14.9004 24.2773 15.5905 24.2773 16.4043C24.2773 16.9707 24.1667 17.4753 23.9453 17.918C23.724 18.3542 23.4342 18.7611 23.0762 19.1387C22.7181 19.5163 22.3242 19.9069 21.8945 20.3105C21.5234 20.6426 21.2695 20.9909 21.1328 21.3555C21.0026 21.7201 20.9342 22.153 20.9277 22.6543ZM18.1445 25.6719C18.1445 25.2552 18.2878 24.9102 18.5742 24.6367C18.8607 24.3568 19.2448 24.2168 19.7266 24.2168C20.2018 24.2168 20.5827 24.3568 20.8691 24.6367C21.1621 24.9102 21.3086 25.2552 21.3086 25.6719C21.3086 26.0755 21.1621 26.4173 20.8691 26.6973C20.5827 26.9772 20.2018 27.1172 19.7266 27.1172C19.2448 27.1172 18.8607 26.9772 18.5742 26.6973C18.2878 26.4173 18.1445 26.0755 18.1445 25.6719Z" fill="#F2F0ED"/>
</svg>
