<svg width="18" height="20" viewBox="0 0 18 20" fill="none" xmlns="http://www.w3.org/2000/svg">
<path d="M16.8918 1.85787H15.5467V0.38605C15.5468 0.335347 15.5368 0.285129 15.5175 0.23827C15.4981 0.191412 15.4697 0.148834 15.4338 0.112975C15.398 0.0771156 15.3554 0.0486789 15.3086 0.029293C15.2617 0.00990718 15.2115 -4.70943e-05 15.1608 1.67507e-07H2.03652C1.3116 1.67507e-07 0.72168 0.589775 0.72168 1.31462V18.6852C0.72168 19.4097 1.3116 20 2.03652 20H16.8918C16.9425 20 16.9927 19.9901 17.0395 19.9707C17.0864 19.9513 17.129 19.9229 17.1648 19.887C17.2007 19.8512 17.2291 19.8086 17.2485 19.7617C17.2678 19.7149 17.2778 19.6647 17.2777 19.6139V2.24349C17.2778 2.19281 17.2678 2.14263 17.2484 2.09582C17.229 2.04901 17.2005 2.00648 17.1647 1.97066C17.1288 1.93485 17.0863 1.90645 17.0395 1.8871C16.9926 1.86774 16.9424 1.85781 16.8918 1.85787ZM2.03652 0.772388H14.7748V1.85823H2.03652C1.73736 1.85823 1.49364 1.61472 1.49364 1.31541C1.49364 1.01625 1.73743 0.772388 2.03652 0.772388ZM10.2874 2.6299H13.3755V8.99613L12.0478 8.09995C11.9839 8.05696 11.9085 8.03401 11.8315 8.03402C11.7543 8.03393 11.6789 8.05689 11.615 8.09995L10.2874 8.99613V2.6299Z" fill="#F2F0ED"/>
</svg>
