<svg width="40" height="40" viewBox="0 0 40 40" fill="none" xmlns="http://www.w3.org/2000/svg">
<path d="M19.8062 34H20.2369C21.9169 34 23.2954 32.6667 23.2954 31.0417V29.6875C23.3815 29.1042 23.5108 28.5208 23.7046 27.9375C24.0492 26.9583 24.7815 26.0208 25.9662 25.0208C27.7046 23.5677 28.7995 21.5242 29.0246 19.3125C29.2615 16.9375 28.4 14.5208 26.6554 12.6667C24.8892 10.7917 22.4769 9.72917 20 9.72917C15.0246 9.72917 10.9754 13.6458 10.9754 18.4583C10.9754 21 12.1169 23.3958 14.12 25.0417C15.3262 26.0625 16.08 27.0417 16.4246 28.1042C16.5969 28.6042 16.7046 29.125 16.7477 29.6458V31.0417C16.7262 32.6667 18.1046 34 19.8062 34ZM21.1415 31.0417C21.1415 31.5208 20.7323 31.9167 20.2369 31.9167H19.8062C19.3108 31.9167 18.9015 31.5208 18.9015 31.0417V30.625H21.1415V31.0417ZM15.52 23.4792C13.9908 22.2292 13.1292 20.3958 13.1292 18.4792C13.1292 14.7917 16.2092 11.8125 20 11.8125C21.8738 11.8125 23.7046 12.625 25.0185 14.0417C26.3538 15.4583 27.0215 17.2917 26.8492 19.0833C26.6769 20.75 25.8585 22.2917 24.5231 23.4375C23.0369 24.7083 22.1323 25.9167 21.6369 27.2708C21.5077 27.7083 21.4431 28.125 21.3569 28.5417H21.0769V23.8125L23.7477 21.2292C24.1785 20.8125 24.1785 20.1667 23.7477 19.75C23.3169 19.3333 22.6492 19.3333 22.2185 19.75L20 21.9167L17.7815 19.7708C17.3508 19.3542 16.6831 19.3542 16.2523 19.7708C15.8215 20.1875 15.8215 20.8333 16.2523 21.25L18.9231 23.8125V28.5417H18.6862C18.6215 28.1875 18.5785 27.8125 18.4708 27.4792C18.0185 26.0625 17.0492 24.75 15.52 23.4792ZM21.0769 8V7.04167C21.0769 6.45833 20.6031 6 20 6C19.3969 6 18.9231 6.45833 18.9231 7.04167V8C18.9231 8.58333 19.3969 9.04167 20 9.04167C20.6031 9.04167 21.0769 8.58333 21.0769 8ZM9.40308 12.6875C9.50057 12.7858 9.61761 12.864 9.74716 12.9175C9.87671 12.9709 10.0161 12.9984 10.1569 12.9984C10.2978 12.9984 10.4371 12.9709 10.5667 12.9175C10.6962 12.864 10.8133 12.7858 10.9108 12.6875C11.32 12.2708 11.32 11.625 10.9108 11.2083L10.2215 10.5208C9.79077 10.1042 9.12308 10.1042 8.69231 10.5208C8.28308 10.9375 8.28308 11.5833 8.69231 12L9.40308 12.6875ZM27.1938 29.8958C27.2913 29.9941 27.4084 30.0724 27.5379 30.1258C27.6675 30.1792 27.8069 30.2068 27.9477 30.2068C28.0885 30.2068 28.2279 30.1792 28.3575 30.1258C28.487 30.0724 28.604 29.9941 28.7015 29.8958C29.1108 29.4792 29.1108 28.8333 28.7015 28.4167L27.9908 27.7292C27.56 27.3125 26.8923 27.3125 26.4615 27.7292C26.0523 28.1458 26.0523 28.7917 26.4615 29.2083L27.1938 29.8958ZM6 21.4583C6 22.0417 6.47385 22.5 7.07692 22.5H8.06769C8.67077 22.5 9.14462 22.0417 9.14462 21.4583C9.14462 20.875 8.67077 20.4167 8.06769 20.4167H7.07692C6.47385 20.4167 6 20.875 6 21.4583ZM32.9231 20.4167H31.9323C31.3292 20.4167 30.8554 20.875 30.8554 21.4583C30.8554 22.0417 31.3292 22.5 31.9323 22.5H32.9231C33.5262 22.5 34 22.0417 34 21.4583C34 20.875 33.5262 20.4167 32.9231 20.4167ZM11.9877 27.7292L11.2769 28.4167C10.8462 28.8125 10.8462 29.4792 11.2769 29.8958C11.3744 29.9941 11.4915 30.0724 11.621 30.1258C11.7506 30.1792 11.8899 30.2068 12.0308 30.2068C12.1716 30.2068 12.311 30.1792 12.4405 30.1258C12.5701 30.0724 12.6871 29.9941 12.7846 29.8958L13.4954 29.2083C13.9262 28.8125 13.9262 28.1458 13.4954 27.7292C13.2938 27.5388 13.0233 27.4322 12.7415 27.4322C12.4598 27.4322 12.1893 27.5388 11.9877 27.7292ZM29.8431 12.9792C30.1231 12.9792 30.4031 12.875 30.5969 12.6667L31.3077 11.9792C31.7385 11.5833 31.7385 10.9167 31.3077 10.5C30.8769 10.0833 30.2092 10.0833 29.7785 10.5L29.0677 11.1875C28.6369 11.5833 28.6369 12.25 29.0677 12.6667C29.2831 12.875 29.5631 12.9792 29.8431 12.9792Z" fill="white"/>
</svg>
