<svg width="40" height="40" viewBox="0 0 40 40" fill="none" xmlns="http://www.w3.org/2000/svg">
<path d="M17.7339 35.1562C17.1981 35.6965 16.4715 36 15.7139 36C14.9563 36 14.2297 35.6965 13.6939 35.1562L0.836544 22.1869C0.300903 21.6464 0 20.9135 0 20.1493C0 19.385 0.300903 18.6521 0.836544 18.1116L13.6939 5.14236C14.2328 4.61737 14.9545 4.32688 15.7036 4.33344C16.4528 4.34001 17.1694 4.64311 17.6991 5.17747C18.2289 5.71183 18.5294 6.43469 18.5359 7.19036C18.5424 7.94602 18.2544 8.67404 17.7339 9.2176L9.99954 17.2672L37.1428 17.2672C37.9006 17.2672 38.6273 17.5709 39.1631 18.1113C39.699 18.6518 40 19.3849 40 20.1493C40 20.9136 39.699 21.6467 39.1631 22.1872C38.6273 22.7277 37.9006 23.0313 37.1428 23.0313L9.99954 23.0313L17.7339 31.0809C18.2696 31.6214 18.5705 32.3543 18.5705 33.1186C18.5705 33.8828 18.2696 34.6157 17.7339 35.1562Z" fill="#806C61"/>
</svg>
