<svg width="34" height="34" viewBox="0 0 34 34" fill="none" xmlns="http://www.w3.org/2000/svg">
<rect x="34" y="34" width="34" height="34" rx="17" transform="rotate(-180 34 34)" fill="#F2F0ED"/>
<g clip-path="url(#clip0_1117_16342)">
<path d="M15.6324 9.49738C15.5863 8.894 15.6984 7.91075 16.7203 7.23463C16.7596 7.20875 16.7952 7.17725 16.8253 7.14088C16.859 7.10037 17.5002 6.31212 17.3368 5C17.549 5.15487 17.7699 5.37125 17.9529 5.672C18.4719 6.52775 18.5135 7.8185 18.0778 9.42387C17.7049 9.33936 17.3238 9.29597 16.9415 9.2945C16.4742 9.2945 16.0363 9.36275 15.6324 9.49738ZM17.0585 24.7055C16.6111 24.7055 16.214 24.6421 15.9222 24.5761C15.4865 26.1815 15.5281 27.4722 16.0471 28.328C16.2057 28.5908 16.4152 28.8192 16.6632 29C16.4998 27.6879 17.141 26.8993 17.1747 26.8591C17.205 26.8229 17.2403 26.7913 17.2797 26.7654C18.3016 26.0893 18.4137 25.106 18.3676 24.5026C17.9637 24.6373 17.5257 24.7055 17.0585 24.7055ZM22.4071 11.51C22.6766 11.7813 22.9154 12.0815 23.1193 12.4051C24.5623 11.5779 25.4461 10.6359 25.6839 9.6635C25.7574 9.36563 25.7707 9.0561 25.7233 8.753C24.911 9.79625 23.9004 9.9005 23.8475 9.905C23.8006 9.90952 23.7533 9.90686 23.7073 9.89713C22.5065 9.65263 21.7318 10.2684 21.3376 10.7277C21.7186 10.9179 22.0767 11.1796 22.4071 11.51ZM11.5929 22.49C11.3234 22.2187 11.0846 21.9185 10.8808 21.5949C9.43775 22.4221 8.55388 23.3641 8.31613 24.3365C8.24235 24.6343 8.22884 24.9439 8.27638 25.247C9.08862 24.2038 10.0993 24.0995 10.1521 24.095C10.199 24.0905 10.2463 24.0931 10.2924 24.1029C11.4931 24.3474 12.2679 23.7316 12.662 23.2723C12.2814 23.0821 11.9232 22.8204 11.5929 22.49ZM24.7055 16.9415C24.7055 17.3889 24.6421 17.786 24.5761 18.0778C26.1811 18.5135 27.4722 18.4719 28.328 17.9529C28.5908 17.7943 28.8192 17.5848 29 17.3368C27.6879 17.5002 26.8993 16.859 26.8591 16.8253C26.8229 16.795 26.7913 16.7597 26.7654 16.7203C26.0893 15.6984 25.106 15.5863 24.5026 15.6324C24.6373 16.0359 24.7055 16.4742 24.7055 16.9415ZM9.2945 17.0585C9.2945 16.6111 9.35787 16.214 9.42387 15.9222C7.81887 15.4865 6.52775 15.5281 5.672 16.0471C5.40935 16.2057 5.18091 16.4151 5 16.6629C6.31212 16.4994 7.10075 17.1406 7.14088 17.1744C7.17725 17.2048 7.20875 17.24 7.23463 17.2794C7.91075 18.3012 8.894 18.4134 9.49738 18.3673C9.36275 17.9641 9.2945 17.5257 9.2945 17.0585ZM22.49 22.4071C22.2187 22.6766 21.9185 22.9154 21.5949 23.1193C22.4221 24.5623 23.3641 25.4461 24.3365 25.6839C24.6344 25.7574 24.9439 25.7707 25.247 25.7233C24.2038 24.911 24.0995 23.9004 24.095 23.8475C24.0905 23.8006 24.0931 23.7533 24.1029 23.7073C24.3474 22.5065 23.7316 21.7318 23.2723 21.3376C23.0821 21.7186 22.8204 22.0767 22.49 22.4071ZM11.51 11.5929C11.7813 11.3234 12.0815 11.0846 12.4051 10.8808C11.5779 9.43775 10.6359 8.55388 9.6635 8.31613C9.36568 8.24235 9.05612 8.22884 8.753 8.27638C9.79625 9.08862 9.9005 10.0993 9.905 10.1521C9.9095 10.199 9.90688 10.2463 9.89713 10.2924C9.65263 11.4931 10.2684 12.2679 10.7277 12.662C10.9179 12.2814 11.1796 11.9232 11.51 11.5929ZM10.9981 17.0004C10.9981 20.3097 13.6906 23.0019 17.0004 23.0019C20.3101 23.0019 23.0023 20.3097 23.0023 17.0004C23.0023 13.6906 20.3101 10.9981 17.0004 10.9981C13.6906 10.9981 10.9981 13.6906 10.9981 17.0004Z" fill="#F07929"/>
</g>
<defs>
<clipPath id="clip0_1117_16342">
<rect width="24" height="24" fill="white" transform="translate(5 5)"/>
</clipPath>
</defs>
</svg>
