<svg width="34" height="40" viewBox="0 0 34 40" fill="none" xmlns="http://www.w3.org/2000/svg">
<path d="M4.68254 40H29.3439C31.8413 40 33.7143 38.4516 33.7143 36.3871C33.7143 34.3226 31.8413 32.7742 29.3439 32.7742H26.2222L30.2804 21.6774C30.9048 20.129 29.6561 18.3226 27.7831 17.8065L19.6667 15.7419V9.54839H24.037C24.9735 9.54839 25.5979 9.03226 25.5979 8.25807V6.19355C25.5979 5.41936 24.9735 4.90323 24.037 4.90323H19.6667V1.29032C19.6667 0.516129 19.0423 0 18.1058 0H15.6085C14.672 0 14.0476 0.516129 14.0476 1.29032V4.90323H9.67725C8.74074 4.90323 8.1164 5.41936 8.1164 6.19355V8.25807C8.1164 9.03226 8.74074 9.54839 9.67725 9.54839H14.0476V15.7419L5.93122 17.8065C4.0582 18.3226 2.80952 20.129 3.43386 21.6774L7.49206 32.7742H4.37037C1.87302 32.7742 0 34.3226 0 36.3871C0 38.4516 2.18518 40 4.68254 40Z" fill="white"/>
</svg>
