<svg width="188" height="172" viewBox="0 0 188 172" fill="none" xmlns="http://www.w3.org/2000/svg">
<g clip-path="url(#clip0_2046_30892)">
<path d="M158.215 153.056V167.278C158.215 169.473 156.43 171.256 154.188 171.256H58.1982C56.002 171.256 54.1719 169.473 54.1719 167.278V153.056C54.1719 150.861 55.9562 149.032 58.1982 149.032H154.234C154.417 149.032 154.6 149.032 154.783 149.078C154.875 149.078 154.966 149.123 155.058 149.123C156.888 149.535 158.215 151.135 158.215 153.056Z" fill="#2C2C2C"/>
<path d="M48.0406 121C32.6675 115.101 17.2487 109.156 1.87559 103.257C1.50957 103.12 1.37231 102.708 1.55532 102.388L8.46406 90.6812C8.64707 90.3611 9.05885 90.2697 9.33337 90.4983C22.4188 100.33 35.5042 110.116 48.5896 119.948C49.1844 120.36 48.7269 121.229 48.0406 121Z" fill="#2C2C2C"/>
<path d="M43.7863 135.405C29.4198 136.228 15.0075 137.051 0.64101 137.874C0.274984 137.874 -0.0452885 137.554 0.000464701 137.188L1.2358 126.304C1.28156 125.939 1.60183 125.71 1.96785 125.801C15.9226 128.591 29.9231 131.426 43.8778 134.216C44.5641 134.353 44.4726 135.359 43.7863 135.405Z" fill="#2C2C2C"/>
<path d="M58.6102 109.247C48.8648 99.3699 39.1193 89.4923 29.4196 79.6605C29.1451 79.3861 29.1909 78.9288 29.5569 78.7002L39.5769 72.7553C39.8514 72.5724 40.2632 72.7096 40.4004 72.984C46.8059 84.8279 53.1656 96.6718 59.571 108.516C59.8913 109.156 59.1135 109.75 58.6102 109.247Z" fill="#2C2C2C"/>
<path d="M74.0293 126.305L144.306 147.889L74.7613 126.625C74.4868 126.579 74.2581 126.442 74.0293 126.305Z" fill="#2C2C2C"/>
<path d="M163.888 121.457L155.882 147.614C155.699 148.209 155.378 148.712 155.012 149.169C154.143 150.129 152.908 150.541 151.718 150.175L151.169 149.992H151.123L148.104 149.078H154.189C154.372 149.078 154.555 149.078 154.738 149.123C155.287 148.666 155.744 148.026 155.973 147.248L163.797 121.731C164.346 119.948 163.568 118.027 162.058 117.113C163.66 117.662 164.483 119.582 163.888 121.457Z" fill="#2C2C2C"/>
<path d="M184.569 75.4532C181.504 85.5137 176.608 94.3852 170.477 101.839C166.359 106.824 161.647 111.168 156.568 114.735C156.385 114.826 156.339 115.055 156.431 115.238C156.477 115.329 156.522 115.375 156.614 115.421L161.875 117.021C161.921 117.021 162.013 117.067 162.058 117.067C163.614 117.982 164.392 119.902 163.797 121.686L155.973 147.248C155.745 147.98 155.333 148.62 154.738 149.123C154.555 149.123 154.372 149.078 154.189 149.078H148.104L144.26 147.889L73.9835 126.304L69.8657 125.024C67.7153 124.384 66.5257 122.097 67.1663 119.994L74.9901 94.4767C75.6306 92.3274 77.9183 91.1384 80.0229 91.7786L90.958 95.1169L91.0037 95.0711C97.3177 84.1418 106.972 76.2306 117.769 72.5722C117.861 72.5265 117.998 72.5265 118.09 72.4808C120.606 72.1149 123.122 71.5662 125.547 70.743C133.142 68.2279 140.234 63.5178 145.953 57.2071C146.777 56.2925 146.182 54.8749 145.084 55.0578C142.156 55.5151 139.136 55.3322 136.208 54.4634C130.397 52.6799 125.959 48.4271 123.489 42.9395C123.489 42.8938 123.443 42.8481 123.443 42.8023C123.214 42.0707 122.939 41.339 122.619 40.6988C121.475 38.5038 119.599 36.8118 117.22 36.0801C114.978 35.3942 112.645 35.6685 110.54 36.6746C110.357 36.7661 110.174 36.8575 109.946 36.949C108.985 37.3605 107.887 37.452 106.972 37.5435C106.148 37.5892 103.266 37.7721 100.749 35.7143C98.553 33.9308 97.9125 31.5529 97.3634 29.4951C97.2262 29.0835 95.4875 23.9161 97.7294 18.7486C98.3242 17.331 99.102 16.1878 99.8341 15.3189C100.658 14.3586 101.847 13.947 102.945 14.2672C104.73 14.8616 106.285 15.2732 107.612 15.5933C109.351 16.0506 111.044 16.4164 113.057 16.5994C113.88 16.6908 114.521 16.6908 115.116 16.6908C116.351 16.6908 117.449 16.5079 118.684 16.2792C122.436 15.5933 125.776 14.9988 129.528 12.7123C131.45 11.5234 132.822 10.243 133.371 9.6942C133.463 9.60275 133.508 9.55702 133.554 9.51129C133.6 9.46556 133.691 9.3741 133.737 9.32837C133.966 9.09972 134.241 8.82534 134.469 8.5967C134.607 8.45951 134.79 8.36805 134.927 8.27659C135.659 7.8193 136.482 7.54492 137.397 7.54492C137.443 7.54492 137.535 7.54492 137.626 7.54492C137.809 7.54492 138.038 7.59065 138.221 7.59065L139.273 7.91075L139.639 8.00221L155.882 12.941C156.66 13.1696 157.529 12.6666 157.803 11.752L161.052 1.23425C161.372 0.136743 162.562 -0.320551 163.385 0.273932C184.203 16.0049 193.582 46.0949 184.569 75.4532Z" fill="#2C2C2C"/>
</g>
<defs>
<clipPath id="clip0_2046_30892">
<rect width="188" height="171.303" fill="white"/>
</clipPath>
</defs>
</svg>
