<svg width="40" height="40" viewBox="0 0 40 40" fill="none" xmlns="http://www.w3.org/2000/svg">
<path d="M6.03925 31.151C5.76291 31.1489 5.49859 31.0377 5.30392 30.8415C5.10924 30.6454 5 30.3803 5 30.1039C5 29.8276 5.10924 29.5624 5.30392 29.3663C5.49859 29.1701 5.76291 29.0589 6.03925 29.0569H33.9607C34.2371 29.0589 34.5014 29.1701 34.6961 29.3663C34.8908 29.5624 35 29.8276 35 30.1039C35 30.3803 34.8908 30.6454 34.6961 30.8415C34.5014 31.0377 34.2371 31.1489 33.9607 31.151H6.03925ZM6.03925 21.047C5.76291 21.045 5.49859 20.9337 5.30392 20.7376C5.10924 20.5415 5 20.2763 5 20C5 19.7236 5.10924 19.4585 5.30392 19.2624C5.49859 19.0662 5.76291 18.955 6.03925 18.9529H33.9607C34.2371 18.955 34.5014 19.0662 34.6961 19.2624C34.8908 19.4585 35 19.7236 35 20C35 20.2763 34.8908 20.5415 34.6961 20.7376C34.5014 20.9337 34.2371 21.045 33.9607 21.047H6.03925ZM6.03925 10.9432C5.76291 10.9411 5.49859 10.8299 5.30392 10.6337C5.10924 10.4376 5 10.1725 5 9.89612C5 9.61977 5.10924 9.35463 5.30392 9.15849C5.49859 8.96235 5.76291 8.85113 6.03925 8.84906H33.9607C34.2371 8.85113 34.5014 8.96235 34.6961 9.15849C34.8908 9.35463 35 9.61977 35 9.89612C35 10.1725 34.8908 10.4376 34.6961 10.6337C34.5014 10.8299 34.2371 10.9411 33.9607 10.9432H6.03925Z" fill="white"/>
</svg>
