<svg width="40" height="40" viewBox="0 0 40 40" fill="none" xmlns="http://www.w3.org/2000/svg">
<g clip-path="url(#clip0_425_3564)">
<path fill-rule="evenodd" clip-rule="evenodd" d="M30 10C30 15.5228 25.5228 20 20 20C14.4772 20 10 15.5228 10 10C10 4.47715 14.4772 0 20 0C25.5228 0 30 4.47715 30 10ZM13.2617 23.3333H26.7383C28.9286 23.336 31.0285 24.2073 32.5773 25.756C34.1261 27.3048 34.9974 29.4047 35 31.595V40H5V31.595C5.00265 29.4047 5.87392 27.3048 7.42271 25.756C8.9715 24.2073 11.0713 23.336 13.2617 23.3333Z" fill="white"/>
</g>
<defs>
<clipPath id="clip0_425_3564">
<rect width="40" height="40" fill="white"/>
</clipPath>
</defs>
</svg>
