<svg width="20" height="21" viewBox="0 0 20 21" fill="none" xmlns="http://www.w3.org/2000/svg">
<path d="M10 0.5C8.02219 0.5 6.08879 1.08649 4.4443 2.1853C2.79981 3.28412 1.51809 4.8459 0.761209 6.67317C0.00433283 8.50043 -0.193701 10.5111 0.192152 12.4509C0.578004 14.3907 1.53041 16.1725 2.92894 17.5711C4.32746 18.9696 6.10929 19.922 8.0491 20.3079C9.98891 20.6937 11.9996 20.4957 13.8268 19.7388C15.6541 18.9819 17.2159 17.7002 18.3147 16.0557C19.4135 14.4112 20 12.4778 20 10.5C19.9964 7.84894 18.9417 5.30748 17.0671 3.43289C15.1925 1.55831 12.6511 0.503587 10 0.5ZM9.74916 16.0661C9.54803 16.0661 9.35141 16.0065 9.18417 15.8947C9.01693 15.783 8.88659 15.6241 8.80962 15.4383C8.73265 15.2525 8.71251 15.048 8.75175 14.8508C8.79099 14.6535 8.88784 14.4723 9.03007 14.3301C9.17229 14.1878 9.35349 14.091 9.55076 14.0517C9.74803 14.0125 9.95251 14.0326 10.1383 14.1096C10.3242 14.1866 10.483 14.3169 10.5947 14.4842C10.7065 14.6514 10.7661 14.848 10.7661 15.0492C10.7661 15.3189 10.659 15.5775 10.4683 15.7682C10.2775 15.959 10.0189 16.0661 9.74916 16.0661ZM11.4915 11.1881C11.2313 11.2688 11.0038 11.4309 10.8427 11.6506C10.6816 11.8703 10.5953 12.136 10.5966 12.4085C10.5966 12.6332 10.5073 12.8488 10.3484 13.0077C10.1895 13.1666 9.97392 13.2559 9.74916 13.2559C9.5244 13.2559 9.30884 13.1666 9.14991 13.0077C8.99099 12.8488 8.9017 12.6332 8.9017 12.4085C8.89902 11.7736 9.10057 11.1548 9.47658 10.6432C9.85258 10.1317 10.3831 9.75468 10.9898 9.5678C11.2504 9.48728 11.4783 9.32528 11.64 9.10562C11.8017 8.88595 11.8887 8.62021 11.8881 8.34746C11.8675 7.86098 11.6597 7.40127 11.3082 7.06434C10.9567 6.72741 10.4886 6.53931 10.0017 6.53931C9.51478 6.53931 9.04669 6.72741 8.69517 7.06434C8.34365 7.40127 8.13589 7.86098 8.11526 8.34746C8.11526 8.57222 8.02597 8.78777 7.86705 8.9467C7.70812 9.10563 7.49256 9.19492 7.2678 9.19492C7.04304 9.19492 6.82749 9.10563 6.66856 8.9467C6.50963 8.78777 6.42034 8.57222 6.42034 8.34746C6.44898 7.4167 6.83886 6.53364 7.50737 5.88539C8.17587 5.23713 9.0705 4.8746 10.0017 4.8746C10.9329 4.8746 11.8275 5.23713 12.496 5.88539C13.1645 6.53364 13.5544 7.4167 13.5831 8.34746C13.585 8.9826 13.3827 9.60154 13.0061 10.113C12.6296 10.6245 12.0986 11.0014 11.4915 11.1881Z" fill="#806C61"/>
</svg>
