<svg width="59" height="70" viewBox="0 0 59 70" fill="none" xmlns="http://www.w3.org/2000/svg">
<path fill-rule="evenodd" clip-rule="evenodd" d="M29.5347 51.7799L29.5296 57.8348H11.533C11.0466 57.8348 10.621 57.4888 10.4386 57.0045V56.9699C10.4234 56.9353 10.4158 56.9093 10.4082 56.8834C10.4006 56.8574 10.393 56.8315 10.3778 56.7969C10.2866 56.5201 10.165 56.2087 10.0434 55.9319C10.013 55.8281 9.95224 55.6897 9.89145 55.5859C9.13145 53.9944 8.03707 52.6451 6.72988 51.6417V51.5725C2.83873 48.2511 0.285156 42.9576 0.285156 36.9721C0.285156 29.5335 4.17631 22.9252 10.2866 20.1574C11.7154 19.6384 13.2354 19.3962 14.7858 19.3962C15.5154 19.3962 16.2754 19.4654 16.9746 19.5692C18.9505 19.8806 20.8049 20.5725 22.4769 21.6451C22.6593 21.8527 22.9025 21.9911 23.1761 22.0949C23.3889 22.1987 23.6017 22.2333 23.8449 22.2333C24.6961 22.2333 25.3953 21.6797 25.7297 20.8493L25.8209 20.6071L27.0368 16.8705L27.4624 15.6596L27.5232 15.5212C27.5232 15.5039 27.5308 15.4866 27.5384 15.4693C27.546 15.452 27.5536 15.4347 27.5536 15.4174V15.3828L27.6448 15.106V15.0368V14.8984C27.6144 14.76 27.584 14.6216 27.5232 14.5179C27.3712 14.2411 27.0976 14.0681 26.7936 14.0681H26.6721L26.5809 14.1027C26.5505 14.1027 26.4897 14.1027 26.4593 14.1373C26.4289 14.1373 26.3985 14.1373 26.3681 14.1719C26.3529 14.1719 26.3453 14.1805 26.3377 14.1892C26.3301 14.1978 26.3225 14.2065 26.3073 14.2065L21.4433 16.317H21.3825C21.2609 16.317 21.1697 16.2478 21.1393 16.144V16.1094V16.0748V8.53236C21.1393 8.39397 21.2609 8.29017 21.3825 8.29017H21.4129L21.5041 8.32477L26.4897 10.4699C26.5504 10.5045 26.6113 10.5391 26.6721 10.5391C26.7633 10.5737 26.824 10.5737 26.9152 10.5737C27.4016 10.5737 27.7664 10.0893 27.736 9.53571V9.46651V9.39731C27.736 9.35678 27.7256 9.32812 27.717 9.30437C27.7109 9.28758 27.7056 9.27325 27.7056 9.25892C27.7056 9.18973 27.6752 9.12053 27.6448 9.08593L26.0641 4.38057V4.34597C26.0337 4.24218 26.0641 4.17298 26.0945 4.10379C26.0945 4.06919 26.1249 4.03459 26.1249 4.03459C26.1249 4.03459 26.1249 3.99999 26.1553 4.03459C26.1857 3.99999 26.2161 3.99999 26.2769 3.99999H29.5752L29.556 26.7318C29.3817 26.7401 29.1857 26.811 29.0432 26.9732L28.2528 27.8728L25.9729 30.4676C25.6689 30.8136 25.6689 31.3326 25.9729 31.6786L29.0432 35.173C29.1837 35.3329 29.3762 35.4041 29.5486 35.414L29.5472 37.249C29.2171 37.2524 28.8881 37.3908 28.648 37.6641L23.5105 43.5112C23.0241 44.0647 23.0241 44.9643 23.5105 45.5179L26.3377 48.7355L26.8848 49.3583L28.648 51.365C28.9148 51.6348 29.2102 51.7731 29.5347 51.7799ZM15.4242 28.4955C15.409 28.4955 15.4014 28.5042 15.3938 28.5128C15.3862 28.5215 15.3786 28.5301 15.3634 28.5301C15.3178 28.5647 15.2798 28.5993 15.2418 28.6339C15.2038 28.6685 15.1658 28.7031 15.1202 28.7377C14.877 28.9453 14.6642 29.1875 14.4514 29.4297C14.4422 29.4402 14.433 29.4538 14.4229 29.4687C14.3998 29.503 14.3722 29.544 14.3298 29.5681C14.311 29.5681 14.3038 29.5813 14.2939 29.5996C14.2878 29.6108 14.2806 29.6241 14.269 29.6373V29.6719C14.2386 29.7065 14.2082 29.7497 14.1778 29.793C14.1474 29.8362 14.117 29.8795 14.0866 29.9141C14.0562 29.9487 14.0334 29.9832 14.0106 30.0178L14.0106 30.0179L14.0106 30.0179C13.9878 30.0525 13.965 30.0871 13.9346 30.1216C13.8901 30.1723 13.8619 30.2229 13.8261 30.2872L13.8261 30.2872C13.813 30.3107 13.7989 30.336 13.7826 30.3638C13.7674 30.3984 13.7446 30.433 13.7218 30.4676L13.7218 30.4676L13.7218 30.4676C13.699 30.5022 13.6762 30.5368 13.661 30.5714C13.6002 30.6752 13.5394 30.779 13.4482 30.952C13.0945 31.5559 12.9088 31.8968 12.7689 32.1537C12.7524 32.1839 12.7366 32.2129 12.7212 32.2411C12.71 32.2616 12.699 32.2816 12.6882 32.3013C12.5666 32.5435 12.3842 32.9241 12.0498 33.7199C12.031 33.7412 12.0122 33.7891 11.9863 33.8551C11.9702 33.896 11.9514 33.9438 11.9282 33.9967C11.913 34.014 11.9054 34.0399 11.8978 34.0658C11.8902 34.0918 11.8826 34.1177 11.8674 34.135C11.8066 34.308 11.7458 34.481 11.685 34.6886C11.2898 35.9342 11.077 37.3181 11.077 38.7366C11.077 39.0826 11.077 39.4286 11.1074 39.74C11.1074 39.8092 11.115 39.887 11.1226 39.9648C11.1302 40.0427 11.1378 40.1205 11.1378 40.1897C11.1378 40.3281 11.1682 40.5011 11.1986 40.6395V40.6741C11.1986 40.7312 11.2078 40.7884 11.2161 40.8398C11.2229 40.8817 11.229 40.9198 11.229 40.9509V41.0547C11.381 41.9888 13.0226 46.6942 14.0866 48.7009C14.2271 48.9887 14.3676 49.1879 14.4841 49.353L14.4841 49.353L14.5122 49.3929C14.5426 49.4275 14.6642 49.635 14.6642 49.7042C14.6642 49.9118 14.5122 50.0848 14.3298 50.0848H14.269C14.2538 50.0848 14.231 50.0762 14.2082 50.0675L14.2082 50.0675L14.2081 50.0675C14.1854 50.0589 14.1626 50.0502 14.1474 50.0502C13.7218 49.8772 13.2962 49.6696 12.8706 49.3929C12.5058 49.1853 12.1715 48.9431 11.8371 48.7009L11.837 48.7009C9.76985 47.144 8.21946 44.8605 7.36827 42.1618C6.94268 40.7779 6.72988 39.3248 6.72988 37.8717C6.63868 36.6953 6.69948 35.692 6.79068 35C6.88188 34.308 7.03388 33.3739 7.52027 32.2667C7.85467 31.5056 8.24986 30.952 8.52346 30.5714C8.82746 30.2254 9.22265 29.8103 9.76985 29.4297C10.0738 29.1875 10.3778 29.0145 10.6514 28.8761C10.8946 28.7377 11.1682 28.6339 11.4114 28.5647C11.4266 28.5647 11.4418 28.5561 11.457 28.5474L11.457 28.5474C11.4722 28.5388 11.4874 28.5301 11.5026 28.5301C11.5152 28.5301 11.5278 28.5242 11.5426 28.5172C11.5634 28.5074 11.5886 28.4955 11.6242 28.4955C11.7002 28.4782 11.7762 28.4523 11.8522 28.4263C11.9282 28.4004 12.0042 28.3744 12.0802 28.3571C12.1258 28.3398 12.1714 28.3312 12.217 28.3225C12.2626 28.3139 12.3082 28.3052 12.3538 28.2879C12.3961 28.2879 12.4385 28.2805 12.4838 28.2725C12.5362 28.2633 12.5926 28.2533 12.6578 28.2533C12.8098 28.2187 12.9618 28.2187 13.1138 28.2187H13.1138H13.4482H13.4482C13.6306 28.2187 13.813 28.2187 13.9954 28.2533H14.0562C14.1018 28.2533 14.155 28.262 14.2082 28.2706C14.2614 28.2793 14.3146 28.2879 14.3602 28.2879C14.4514 28.2879 14.573 28.3225 14.6642 28.3571L14.8466 28.3917C14.9378 28.4263 15.0594 28.4609 15.1506 28.4609C15.3026 28.4263 15.3634 28.4609 15.4242 28.4955ZM11.5962 60.6719H29.5508V66L11.5962 66C11.3226 66 11.0794 65.7232 11.0794 65.4118V61.2601C11.0794 60.9487 11.3226 60.6719 11.5962 60.6719Z" fill="white"/>
<path fill-rule="evenodd" clip-rule="evenodd" d="M29.6048 60.6719H47.5594C47.833 60.6719 48.0762 60.9487 48.0762 61.2601V65.4119C48.0762 65.7233 47.833 66 47.5594 66L29.6048 66.0001V60.6719Z" fill="black"/>
<path fill-rule="evenodd" clip-rule="evenodd" d="M29.5622 57.8348L29.5571 51.7799C29.8816 51.7731 30.177 51.6348 30.4438 51.365L32.2069 49.3583L32.7541 48.7355L35.5813 45.5179C36.0677 44.9643 36.0677 44.0647 35.5813 43.5112L30.4438 37.6641C30.2037 37.3908 29.8747 37.2525 29.5446 37.249L29.5432 35.414C29.7156 35.4041 29.9081 35.3329 30.0486 35.173L33.1189 31.6786C33.4229 31.3326 33.4229 30.8136 33.1189 30.4676L30.839 27.8728L30.0486 26.9732C29.9061 26.811 29.7101 26.7401 29.5358 26.7318L29.5166 4H32.8149C32.8757 4 32.9061 4 32.9365 4.0346C32.9669 4 32.9669 4.0346 32.9669 4.0346C32.9669 4.0346 32.9973 4.0692 32.9973 4.10379C33.0277 4.17299 33.0581 4.24219 33.0277 4.34598V4.38058L31.447 9.08594C31.4166 9.12054 31.3862 9.18973 31.3862 9.25893C31.3862 9.27326 31.3809 9.28759 31.3748 9.30438C31.3662 9.32813 31.3558 9.35679 31.3558 9.39732V9.46652V9.53572C31.3254 10.0893 31.6902 10.5737 32.1765 10.5737C32.2677 10.5737 32.3285 10.5737 32.4197 10.5391C32.4805 10.5391 32.5413 10.5045 32.6021 10.4699L37.5877 8.32478L37.6789 8.29018H37.7093C37.8309 8.29018 37.9525 8.39397 37.9525 8.53237V16.0748V16.1094V16.144C37.9221 16.2478 37.8309 16.317 37.7093 16.317H37.6485L32.7845 14.2065C32.7693 14.2065 32.7617 14.1978 32.7541 14.1892C32.7465 14.1805 32.7389 14.1719 32.7237 14.1719C32.6933 14.1373 32.6629 14.1373 32.6325 14.1373C32.6021 14.1027 32.5413 14.1027 32.5109 14.1027L32.4197 14.0681H32.2981C31.9942 14.0681 31.7206 14.2411 31.5686 14.5179C31.5078 14.6217 31.4774 14.76 31.447 14.8984V15.0368V15.106L31.5382 15.3828V15.4174C31.5382 15.4347 31.5458 15.452 31.5534 15.4693C31.561 15.4866 31.5686 15.5039 31.5686 15.5212L31.6294 15.6596L32.055 16.8705L33.2709 20.6071L33.3621 20.8493C33.6965 21.6797 34.3957 22.2333 35.2469 22.2333C35.4901 22.2333 35.7029 22.1987 35.9157 22.0949C36.1893 21.9911 36.4325 21.8527 36.6149 21.6451C38.2869 20.5725 40.1413 19.8806 42.1172 19.5692C42.8164 19.4654 43.5764 19.3962 44.306 19.3962C45.8564 19.3962 47.3764 19.6384 48.8052 20.1574C54.9155 22.9252 58.8066 29.5335 58.8066 36.9721C58.8066 42.9576 56.2531 48.2511 52.3619 51.5726V51.6417C51.0547 52.6451 49.9603 53.9944 49.2004 55.5859C49.1396 55.6897 49.0788 55.8281 49.0484 55.9319C48.9268 56.2087 48.8052 56.5201 48.714 56.7969C48.6988 56.8315 48.6912 56.8574 48.6836 56.8834C48.676 56.9093 48.6684 56.9353 48.6532 56.9699V57.0045C48.4708 57.4888 48.0452 57.8348 47.5588 57.8348H29.5622ZM43.698 28.5128C43.6904 28.5042 43.6828 28.4955 43.6676 28.4955C43.7284 28.4609 43.7892 28.4263 43.9412 28.4609C44.0324 28.4609 44.154 28.4263 44.2452 28.3917L44.4276 28.3571C44.5188 28.3225 44.6404 28.288 44.7316 28.288C44.7772 28.288 44.8304 28.2793 44.8836 28.2707C44.9368 28.262 44.99 28.2534 45.0356 28.2534H45.0964C45.2788 28.2188 45.4612 28.2188 45.6436 28.2188H45.978C46.13 28.2188 46.282 28.2188 46.434 28.2534C46.4991 28.2534 46.5556 28.2633 46.608 28.2725C46.6533 28.2805 46.6957 28.288 46.738 28.288C46.7836 28.3053 46.8292 28.3139 46.8748 28.3226C46.9204 28.3312 46.966 28.3399 47.0116 28.3571C47.0876 28.3744 47.1636 28.4004 47.2396 28.4263C47.3156 28.4523 47.3916 28.4782 47.4676 28.4955C47.5032 28.4955 47.5284 28.5074 47.5492 28.5173C47.564 28.5242 47.5766 28.5301 47.5892 28.5301C47.6044 28.5301 47.6196 28.5388 47.6348 28.5474C47.65 28.5561 47.6652 28.5647 47.6804 28.5647C47.9236 28.6339 48.1972 28.7377 48.4404 28.8761C48.714 29.0145 49.018 29.1875 49.3219 29.4297C49.8691 29.8103 50.2643 30.2255 50.5683 30.5714C50.8419 30.952 51.2371 31.5056 51.5715 32.2667C52.0579 33.3739 52.2099 34.308 52.3011 35C52.3923 35.692 52.4531 36.6953 52.3619 37.8717C52.3619 39.3248 52.1491 40.7779 51.7235 42.1618C50.8723 44.8605 49.322 47.144 47.2548 48.7009C46.9204 48.9431 46.586 49.1853 46.2212 49.3929C45.7956 49.6697 45.37 49.8772 44.9444 50.0502C44.9292 50.0502 44.9064 50.0589 44.8836 50.0675C44.8608 50.0762 44.838 50.0848 44.8228 50.0848H44.762C44.5796 50.0848 44.4276 49.9118 44.4276 49.7042C44.4276 49.635 44.5492 49.4275 44.5796 49.3929C44.5888 49.3798 44.5982 49.3665 44.6077 49.353C44.7242 49.1879 44.8647 48.9887 45.0052 48.7009C46.0692 46.6942 47.7108 41.9888 47.8628 41.0547V40.9509C47.8628 40.9198 47.8689 40.8817 47.8757 40.8398C47.884 40.7884 47.8932 40.7313 47.8932 40.6741V40.6395C47.9236 40.5011 47.954 40.3281 47.954 40.1897C47.954 40.1205 47.9616 40.0427 47.9692 39.9649C47.9768 39.887 47.9844 39.8092 47.9844 39.74C48.0148 39.4286 48.0148 39.0826 48.0148 38.7366C48.0148 37.3181 47.802 35.9342 47.4068 34.6886C47.346 34.481 47.2852 34.308 47.2244 34.135C47.2092 34.1178 47.2016 34.0918 47.194 34.0659C47.1864 34.0399 47.1788 34.014 47.1636 33.9967C47.1404 33.9438 47.1216 33.896 47.1055 33.8551C47.0796 33.7891 47.0608 33.7413 47.042 33.7199C46.7076 32.9241 46.5252 32.5435 46.4036 32.3013C46.3779 32.2546 46.3514 32.2059 46.3229 32.1537C46.183 31.8968 45.9973 31.5559 45.6436 30.952C45.5524 30.779 45.4916 30.6752 45.4308 30.5714C45.4156 30.5368 45.3928 30.5022 45.37 30.4676C45.3472 30.433 45.3244 30.3984 45.3092 30.3638C45.2929 30.336 45.2788 30.3107 45.2657 30.2872C45.2299 30.223 45.2017 30.1723 45.1572 30.1217C45.1268 30.0871 45.104 30.0525 45.0812 30.0179C45.0584 29.9833 45.0356 29.9487 45.0052 29.9141C44.9748 29.8795 44.9444 29.8362 44.914 29.793C44.8836 29.7497 44.8532 29.7065 44.8228 29.6719V29.6373C44.8112 29.6241 44.804 29.6109 44.7979 29.5996C44.788 29.5813 44.7808 29.5681 44.762 29.5681C44.7196 29.544 44.692 29.503 44.6689 29.4687C44.6588 29.4538 44.6496 29.4402 44.6404 29.4297C44.4276 29.1875 44.2148 28.9453 43.9716 28.7377C43.926 28.7031 43.888 28.6685 43.85 28.6339C43.812 28.5993 43.774 28.5647 43.7284 28.5301C43.7132 28.5301 43.7056 28.5215 43.698 28.5128Z" fill="black"/>
</svg>
