<svg width="35" height="40" viewBox="0 0 35 40" fill="none" xmlns="http://www.w3.org/2000/svg">
<path fill-rule="evenodd" clip-rule="evenodd" d="M25.8875 8.42411C26.7377 8.42411 27.5713 8.57589 28.3715 8.84152C31.689 10.3783 33.8395 14.0022 33.7895 18.1004C33.7895 21.3828 32.4058 24.2857 30.2553 26.1071V26.1451C29.5384 26.6953 28.9383 27.4353 28.5215 28.308C28.5048 28.3365 28.4923 28.3697 28.4798 28.4029C28.4673 28.4361 28.4548 28.4693 28.4382 28.4978C28.3715 28.6495 28.3048 28.8013 28.2548 28.9531C28.2464 28.9816 28.2381 29.0053 28.2298 29.029C28.2214 29.0527 28.2131 29.0764 28.2048 29.1049C28.1047 29.3516 27.8713 29.5223 27.6046 29.5223H7.86643C7.59969 29.5223 7.3663 29.3326 7.26628 29.067V29.048C7.25794 29.029 7.25378 29.0148 7.24961 29.0006C7.24544 28.9863 7.24127 28.9721 7.23294 28.9531C7.18292 28.8013 7.11624 28.6306 7.04956 28.4788C7.03289 28.4219 6.99955 28.346 6.96621 28.2891C6.54944 27.4163 5.94929 26.6763 5.23245 26.1261V26.0882C3.09859 24.2667 1.69824 21.3638 1.69824 18.0815C1.69824 14.0022 3.8321 10.3783 7.18293 8.86049C7.96645 8.57589 8.79999 8.44308 9.6502 8.44308C10.0503 8.44308 10.4671 8.48103 10.8505 8.53795C11.9341 8.70871 12.951 9.08817 13.8679 9.67634C13.9679 9.79018 14.1013 9.86607 14.2513 9.92299C14.368 9.97991 14.4847 9.99889 14.6181 9.99889C15.0849 9.99889 15.4683 9.69531 15.6517 9.23996L15.7017 9.10714L16.3685 7.05804L16.6019 6.39398L16.6353 6.31808C16.6353 6.3086 16.6394 6.29911 16.6436 6.28962C16.6478 6.28014 16.6519 6.27065 16.6519 6.26116V6.24219L16.7019 6.0904V6.05246V5.97656C16.6853 5.90067 16.6686 5.82478 16.6353 5.76786C16.5519 5.61607 16.4019 5.52121 16.2352 5.52121H16.1685L16.1185 5.54018C16.1018 5.54018 16.0684 5.54018 16.0518 5.55915C16.0351 5.55915 16.0184 5.55915 16.0018 5.57813C15.9934 5.57813 15.9893 5.58287 15.9851 5.58761C15.9809 5.59236 15.9768 5.5971 15.9684 5.5971L13.3011 6.75447H13.2678C13.2011 6.75447 13.1511 6.71652 13.1344 6.6596V6.64063V6.62165V2.48549C13.1344 2.4096 13.2011 2.35268 13.2678 2.35268H13.2844L13.3344 2.37165L16.0684 3.54799C16.1018 3.56697 16.1351 3.58594 16.1685 3.58594C16.2185 3.60491 16.2518 3.60491 16.3018 3.60491C16.5686 3.60491 16.7686 3.33929 16.7519 3.03572V2.99777V2.95982C16.7519 2.9376 16.7462 2.92188 16.7415 2.90886C16.7381 2.89965 16.7353 2.89179 16.7353 2.88393C16.7353 2.84599 16.7186 2.80804 16.7019 2.78907L15.8351 0.208709V0.189736C15.8184 0.132816 15.8351 0.0948699 15.8517 0.0569234C15.8517 0.0379502 15.8684 0.018977 15.8684 0.018977C15.8684 0.018977 15.8684 3.8147e-06 15.8851 0.018977C15.9017 3.8147e-06 15.9184 3.8147e-06 15.9517 3.8147e-06H19.5693H19.6026H19.6193C19.6277 3.8147e-06 19.6318 0.00474712 19.636 0.00949042C19.6402 0.0142337 19.6443 0.018977 19.6527 0.018977C19.7027 0.0569234 19.736 0.113843 19.7193 0.170763L19.7027 0.227682L18.8025 2.78907C18.7941 2.80804 18.7899 2.82227 18.7858 2.8365C18.7816 2.85073 18.7774 2.86496 18.7691 2.88393C18.7691 2.90616 18.7634 2.92188 18.7586 2.9349C18.7553 2.94411 18.7524 2.95197 18.7524 2.95982C18.7358 2.95982 18.7358 2.9788 18.7358 2.99777V3.03572C18.7191 3.33929 18.9191 3.60491 19.1859 3.60491C19.2359 3.60491 19.2692 3.60491 19.3192 3.58594C19.3526 3.58594 19.3859 3.56697 19.4193 3.54799L22.1533 2.37165L22.22 2.35268H22.2366H22.27H22.2866C22.295 2.35268 22.2991 2.35742 22.3033 2.36217C22.3075 2.36691 22.3116 2.37165 22.32 2.37165C22.37 2.4096 22.3867 2.44755 22.3867 2.50447V6.58371V6.60268V6.62165C22.3867 6.64063 22.3867 6.6596 22.37 6.67857L22.3533 6.69755C22.345 6.69755 22.3408 6.70229 22.3367 6.70703C22.3325 6.71178 22.3283 6.71652 22.32 6.71652C22.3102 6.72767 22.3061 6.73227 22.3011 6.73417C22.2976 6.73549 22.2935 6.73549 22.2866 6.73549H22.2366C22.2283 6.73549 22.2241 6.73075 22.22 6.72601C22.2158 6.72126 22.2116 6.71652 22.2033 6.71652L19.5526 5.55915C19.5428 5.548 19.5388 5.5434 19.5337 5.54151C19.5302 5.54018 19.5262 5.54018 19.5193 5.54018C19.511 5.54018 19.5026 5.53544 19.4943 5.53069C19.486 5.52595 19.4776 5.52121 19.4693 5.52121C19.4609 5.52121 19.4484 5.51646 19.4359 5.51172C19.4234 5.50698 19.4109 5.50223 19.4026 5.50223L19.3526 5.48326H19.2859C19.1192 5.48326 18.9692 5.57813 18.8858 5.72991C18.8525 5.78683 18.8191 5.86273 18.8191 5.93862V6.01451V6.05246L18.8691 6.20424V6.22322C18.8691 6.2327 18.8733 6.24219 18.8775 6.25168C18.8816 6.26116 18.8858 6.27065 18.8858 6.28014L18.9191 6.35603L19.1359 7.02009L19.836 9.08817L19.886 9.22098C20.0528 9.65737 20.4529 9.97991 20.9196 9.97991C21.0363 9.97991 21.1697 9.96094 21.2864 9.90402C21.4364 9.86607 21.5531 9.77121 21.6698 9.65737C22.5867 9.08817 23.6036 8.68973 24.6872 8.51898C25.0707 8.46206 25.4874 8.42411 25.8875 8.42411ZM9.98361 13.4425C9.98778 13.4378 9.99195 13.433 10.0003 13.433C9.96694 13.4141 9.9336 13.3951 9.85025 13.4141C9.80024 13.4141 9.73355 13.3951 9.68354 13.3761L9.58352 13.3571C9.5335 13.3382 9.46682 13.3192 9.41681 13.3192C9.3918 13.3192 9.36263 13.3145 9.33345 13.3097C9.30428 13.305 9.27511 13.3002 9.2501 13.3002H9.21676C9.11673 13.2812 9.01671 13.2812 8.91668 13.2812H8.73331C8.64995 13.2812 8.5666 13.2812 8.48324 13.3002C8.44751 13.3002 8.41656 13.3057 8.38784 13.3107C8.36296 13.3151 8.33975 13.3192 8.31654 13.3192C8.29153 13.3287 8.26652 13.3334 8.24152 13.3382C8.21651 13.3429 8.19151 13.3477 8.1665 13.3571C8.12482 13.3666 8.08315 13.3809 8.04147 13.3951C7.99979 13.4093 7.95812 13.4235 7.91644 13.433C7.89691 13.433 7.8831 13.4395 7.87166 13.4449C7.86357 13.4488 7.85666 13.452 7.84976 13.452C7.84142 13.452 7.83309 13.4568 7.82475 13.4615C7.81641 13.4662 7.80808 13.471 7.79974 13.471C7.66638 13.5089 7.51634 13.5658 7.38297 13.6417C7.23294 13.7176 7.06623 13.8125 6.89952 13.9453C6.59945 14.154 6.38273 14.3817 6.21602 14.5714C6.06598 14.7801 5.84926 15.0837 5.66588 15.5011C5.39915 16.1083 5.3158 16.6205 5.26579 17C5.21577 17.3795 5.18243 17.9297 5.23245 18.5748C5.23245 19.3717 5.34914 20.1685 5.58253 20.9275C6.04931 22.4074 6.89952 23.6596 8.03313 24.5134C8.21651 24.6462 8.39989 24.779 8.59994 24.8929C8.83333 25.0446 9.06672 25.1585 9.30011 25.2533C9.30845 25.2533 9.32095 25.2581 9.33345 25.2628C9.34596 25.2676 9.35846 25.2723 9.3668 25.2723H9.40014C9.50016 25.2723 9.58352 25.1775 9.58352 25.0636C9.58352 25.0257 9.51683 24.9118 9.50016 24.8929C9.49512 24.8857 9.48998 24.8784 9.48476 24.871C9.42088 24.7804 9.34382 24.6712 9.26677 24.5134C8.68329 23.4129 7.78307 20.8326 7.69972 20.3203V20.2634C7.69972 20.2463 7.69635 20.2254 7.69264 20.2024C7.6881 20.1743 7.68305 20.1429 7.68305 20.1116V20.0926C7.66638 20.0167 7.64971 19.9219 7.64971 19.846C7.64971 19.808 7.64554 19.7653 7.64137 19.7227C7.6372 19.68 7.63304 19.6373 7.63304 19.5993C7.61636 19.4286 7.61636 19.2388 7.61636 19.0491V19.0491C7.61636 18.2712 7.73306 17.5123 7.94978 16.8292C7.98312 16.7154 8.01646 16.6205 8.0498 16.5257C8.05814 16.5162 8.06231 16.502 8.06647 16.4877C8.07064 16.4735 8.07481 16.4593 8.08315 16.4498C8.09588 16.4208 8.10618 16.3946 8.11498 16.3722C8.12922 16.3359 8.13953 16.3097 8.14983 16.298C8.33321 15.8616 8.43323 15.6529 8.49992 15.5201C8.51399 15.4945 8.52854 15.4678 8.54412 15.4391C8.62084 15.2983 8.7227 15.1113 8.91668 14.7801C8.96669 14.6853 9.00003 14.6284 9.03337 14.5714L9.03338 14.5714C9.04172 14.5525 9.05422 14.5335 9.06672 14.5145C9.07923 14.4955 9.09173 14.4766 9.10006 14.4576C9.109 14.4423 9.11673 14.4285 9.12391 14.4156C9.14354 14.3803 9.15901 14.3526 9.18342 14.3248C9.20009 14.3058 9.21259 14.2868 9.22509 14.2679C9.2376 14.2489 9.2501 14.2299 9.26677 14.2109C9.28344 14.192 9.30011 14.1682 9.31678 14.1445C9.33345 14.1208 9.35012 14.0971 9.3668 14.0781V14.0592C9.37316 14.0519 9.3771 14.0447 9.38046 14.0385C9.3859 14.0285 9.38983 14.0212 9.40014 14.0212C9.42338 14.008 9.43853 13.9855 9.45121 13.9667C9.45673 13.9585 9.46177 13.9511 9.46682 13.9453C9.58352 13.8125 9.70021 13.6797 9.83358 13.5658C9.85858 13.5469 9.87942 13.5279 9.90026 13.5089C9.9211 13.49 9.94194 13.471 9.96694 13.452C9.97528 13.452 9.97945 13.4473 9.98361 13.4425ZM17.0353 13.0915L15.785 14.5145C15.6183 14.7042 15.6183 14.9888 15.785 15.1786L17.4688 17.0949C17.5521 17.1897 17.6688 17.2277 17.7689 17.2277C17.8856 17.2277 17.9856 17.1897 18.0689 17.0949L19.7527 15.1596C19.9194 14.9888 19.9194 14.7042 19.7527 14.5145L18.5024 13.0915L18.0689 12.5982C17.9856 12.5033 17.8856 12.4654 17.7689 12.4654C17.6688 12.4654 17.5521 12.5033 17.4688 12.5982L17.0353 13.0915ZM19.5193 24.5324L21.0697 22.7679C21.3364 22.4643 21.3364 21.971 21.0697 21.6674L18.2523 18.4609C18.1023 18.3092 17.9356 18.2333 17.7522 18.2333C17.5688 18.2333 17.3854 18.3092 17.2521 18.4609L14.4347 21.6674C14.168 21.971 14.168 22.4643 14.4347 22.7679L15.9851 24.5324L16.2852 24.8739L17.2521 25.9743C17.4021 26.1261 17.5688 26.202 17.7522 26.202C17.9356 26.202 18.1189 26.1261 18.2523 25.9743L19.2192 24.8739L19.5193 24.5324ZM29.9219 20.9464C30.1552 20.1685 30.2719 19.3717 30.2719 18.5748C30.3219 17.9297 30.2886 17.3795 30.1886 17L30.1879 16.9949C30.138 16.616 30.0707 16.1056 29.8052 15.5011C29.6218 15.0837 29.4217 14.7801 29.255 14.5714C29.0883 14.3817 28.8549 14.154 28.5715 13.9453C28.4048 13.8125 28.2381 13.7176 28.0881 13.6417C27.9547 13.5848 27.8213 13.5279 27.6713 13.471C27.663 13.471 27.6546 13.4662 27.6463 13.4615C27.638 13.4568 27.6296 13.452 27.6213 13.452C27.6018 13.452 27.5879 13.4455 27.5765 13.4401C27.5684 13.4363 27.5615 13.433 27.5546 13.433C27.4713 13.3951 27.3879 13.3761 27.3045 13.3571C27.2795 13.3477 27.2545 13.3429 27.2295 13.3382C27.2045 13.3334 27.1795 13.3287 27.1545 13.3192C27.1188 13.3192 27.0878 13.3137 27.0591 13.3087C27.0342 13.3043 27.011 13.3002 26.9878 13.3002C26.9461 13.3002 26.9044 13.2955 26.8628 13.2907C26.8211 13.286 26.7794 13.2812 26.7377 13.2812H26.5544C26.4543 13.2812 26.3543 13.2812 26.2543 13.3002H26.2209C26.1977 13.3002 26.1745 13.3043 26.1496 13.3087C26.1209 13.3137 26.09 13.3192 26.0542 13.3192C26.0292 13.3287 26.0001 13.3334 25.9709 13.3382C25.9417 13.3429 25.9125 13.3477 25.8875 13.3571L25.7875 13.3761C25.7375 13.3761 25.6708 13.3951 25.6208 13.4141C25.6041 13.4235 25.5875 13.4283 25.5708 13.433C25.5541 13.4378 25.5374 13.4425 25.5208 13.452C25.5291 13.452 25.5333 13.4568 25.5374 13.4615C25.5416 13.4662 25.5458 13.471 25.5541 13.471C25.5791 13.49 25.6 13.5089 25.6208 13.5279C25.6416 13.5469 25.6625 13.5658 25.6875 13.5848C25.8208 13.6987 25.9375 13.8315 26.0542 13.9643C26.0775 13.9775 26.0926 14 26.1053 14.0188C26.1108 14.0269 26.1159 14.0344 26.1209 14.0402C26.1209 14.0497 26.1251 14.0544 26.1293 14.0592C26.1334 14.0639 26.1376 14.0686 26.1376 14.0781L26.1543 14.0971C26.1709 14.1161 26.1876 14.1398 26.2043 14.1635C26.2209 14.1872 26.2376 14.2109 26.2543 14.2299C26.2876 14.2679 26.321 14.3058 26.3376 14.3437C26.3466 14.359 26.3543 14.3729 26.3615 14.3858C26.3811 14.421 26.3966 14.4488 26.421 14.4766C26.4293 14.4955 26.4418 14.5145 26.4543 14.5335C26.4668 14.5525 26.4793 14.5714 26.4877 14.5904C26.521 14.6473 26.5544 14.7042 26.6044 14.7991C26.8211 15.1786 26.9378 15.3873 27.0211 15.5391C27.0878 15.6719 27.1878 15.8806 27.3712 16.317C27.3815 16.3287 27.3918 16.3549 27.4061 16.3911C27.4149 16.4135 27.4252 16.4398 27.4379 16.4688C27.4546 16.4877 27.4713 16.5257 27.4713 16.5446C27.4879 16.5921 27.5046 16.6443 27.5213 16.6964C27.5379 16.7486 27.5546 16.8008 27.5713 16.8482C27.788 17.5312 27.9047 18.2902 27.9047 19.0681C27.9047 19.2388 27.9047 19.4286 27.888 19.6183C27.888 19.6942 27.888 19.7891 27.8713 19.865C27.863 19.9029 27.8588 19.9456 27.8547 19.9883C27.8505 20.031 27.8463 20.0737 27.838 20.1116V20.1306C27.838 20.1476 27.8346 20.1685 27.8309 20.1915C27.8264 20.2197 27.8213 20.251 27.8213 20.2824C27.8047 20.3013 27.8047 20.3203 27.8047 20.3393C27.7213 20.8516 26.8211 23.4319 26.2376 24.5324C26.1606 24.6902 26.0835 24.7994 26.0196 24.89C26.0144 24.8974 26.0093 24.9047 26.0042 24.9118C25.9876 24.9308 25.9209 25.0446 25.9209 25.0826C25.9209 25.1964 26.0042 25.2913 26.1042 25.2913H26.1376C26.1459 25.2913 26.1584 25.2865 26.1709 25.2818C26.1834 25.2771 26.1959 25.2723 26.2043 25.2723C26.4377 25.1585 26.6711 25.0446 26.9044 24.9118C27.1045 24.798 27.2879 24.6652 27.4713 24.5324C28.6049 23.6786 29.4717 22.4263 29.9219 20.9464ZM7.90114 34H27.6227C27.7894 34 27.9061 33.8482 27.9061 33.6775V31.4007C27.9061 31.2299 27.7727 31.0781 27.6227 31.0781H7.90114C7.7511 31.0781 7.61774 31.2299 7.61774 31.4007V33.6775C7.61774 33.8482 7.7511 34 7.90114 34Z" fill="white"/>
</svg>
