<svg width="35" height="35" viewBox="0 0 35 35" fill="none" xmlns="http://www.w3.org/2000/svg">
<path fill-rule="evenodd" clip-rule="evenodd" d="M23.9999 18.5979C24.0501 18.4139 24.117 18.0792 24.1504 17.6609C24.1504 17.6609 24.2341 16.908 24.1337 16.0881C23.8325 13.913 22.4271 11.7714 22.4271 11.7714C22.351 11.6572 22.2749 11.5417 22.1984 11.4256C22.0058 11.1333 21.8108 10.8373 21.6072 10.5499C21.4399 10.2822 21.0216 10.299 20.8543 10.5667C20.7686 10.7013 20.6818 10.836 20.5948 10.971C20.2061 11.5739 19.8135 12.1829 19.499 12.8255C19.064 13.7624 17.6251 12.9426 18.0601 12.0223C18.3068 11.4891 18.6292 10.99 18.9517 10.4908C19.3072 9.94032 19.6629 9.38971 19.9173 8.7931C19.9842 8.62578 19.9508 8.45846 19.8169 8.32461C19.5659 8.07363 19.315 7.83939 19.0305 7.62187C18.9636 7.58841 18.8967 7.53822 18.8297 7.47129C18.813 7.47129 18.7963 7.45456 18.7796 7.43782L18.4784 7.23704C18.3278 7.11992 18.2776 6.91914 18.378 6.76855L19.2815 5.36309C19.3484 5.24596 19.3484 5.12884 19.2815 5.02845L17.4075 2.15059C17.3574 2.0502 17.2737 2.01673 17.1733 2C17.0896 2.01673 16.9893 2.06693 16.9391 2.15059L15.1153 5.01172C15.0484 5.11211 15.0484 5.24596 15.1153 5.34635L16.0355 6.76855C16.1359 6.93587 16.1025 7.13665 15.9352 7.23704L15.634 7.43782C15.6172 7.43782 15.6005 7.45456 15.5838 7.47129C15.5336 7.53822 15.4667 7.58841 15.383 7.62187C14.0154 8.69288 12.9723 10.2669 12.0301 11.6888C12.0155 11.7108 12.001 11.7327 11.9865 11.7546C11.9865 11.7546 10.5643 13.8963 10.2798 16.0714C10.1794 16.908 10.2463 17.6609 10.2463 17.6609C10.2798 18.0792 10.3467 18.4139 10.3969 18.5979C10.4639 18.8824 10.5643 19.1835 10.6814 19.5014C10.7985 19.8193 10.9156 20.1038 11.0495 20.3715C11.2001 20.7061 11.4008 21.0073 11.6518 21.2917C12.0534 21.7435 12.4884 22.1618 12.9736 22.5131C12.8739 22.8317 12.7741 23.1509 12.6743 23.4704C12.2548 24.8125 11.8333 26.1613 11.4008 27.4992C11.2837 27.884 11.5682 28.2689 11.9697 28.2689H22.6781C23.0629 28.2689 23.3473 27.884 23.2302 27.4992C22.9625 26.6459 22.6906 25.7884 22.4187 24.9309C22.1468 24.0734 21.8749 23.2159 21.6072 22.3626C22.0088 22.0447 22.3936 21.6766 22.745 21.2917C22.9792 21.0073 23.1967 20.7061 23.3473 20.3715C23.4812 20.1038 23.5983 19.8193 23.7154 19.5014C23.8155 19.2299 23.8911 18.9705 23.9632 18.7234C23.9755 18.6812 23.9877 18.6394 23.9999 18.5979ZM27.0781 32H7.28444C7.13385 32 7 31.8661 7 31.7156V29.7077C7 29.5572 7.13385 29.4233 7.28444 29.4233H27.0781C27.2287 29.4233 27.3626 29.5572 27.3626 29.7077V31.7156C27.3626 31.8661 27.2287 32 27.0781 32Z" fill="white"/>
</svg>
