<svg width="35" height="35" viewBox="0 0 35 35" fill="none" xmlns="http://www.w3.org/2000/svg">
<path fill-rule="evenodd" clip-rule="evenodd" d="M26.2102 26.0404C27.9178 23.4623 28.939 20.1979 28.939 16.6656C28.939 10.6893 26.0261 5.51642 21.7573 3.03882C20.9537 2.46964 19.9995 2.10135 18.9783 2.0009C18.7105 1.98416 18.4761 2.20179 18.4761 2.48638V4.32784C18.4761 4.59569 18.2585 4.81332 18.0074 4.81332H17.9572C17.6391 4.79658 17.2206 4.77984 16.6849 4.77984C16.5116 4.77984 16.3529 4.7776 16.1997 4.77543C15.7611 4.76924 15.3683 4.76369 14.8099 4.81332H14.7262C14.1236 4.86354 13.9227 4.91376 13.7385 5.01421C13.4874 5.14813 13.2028 5.48294 12.6504 6.16931C12.5417 6.3022 12.2738 6.6945 11.9577 7.15742C11.3979 7.97735 10.6867 9.01883 10.4406 9.23283C10.2063 9.45046 9.90494 9.70157 9.46968 9.78527C9.29823 9.81956 9.18385 9.81434 9.04111 9.80783C8.90511 9.80162 8.74337 9.79424 8.48199 9.81875C8.1001 9.86118 7.78992 9.95141 7.66249 9.98848C7.6391 9.99529 7.62187 10.0003 7.61148 10.0029C7.54452 10.0196 6.84141 10.254 6.47312 10.6558C5.66957 11.4593 6.05461 13.2506 6.4229 14.1713C6.59031 14.5898 7.10926 15.8286 8.36481 16.4313C8.68288 16.5987 9.60361 17.0339 10.4239 16.6824C10.7056 16.5672 11.0656 16.3148 11.2793 16.1651C11.345 16.119 11.3968 16.0827 11.4283 16.063C11.5273 15.9888 11.609 15.9247 11.6809 15.8683C11.901 15.6957 12.0297 15.5947 12.2821 15.4938C12.2862 15.4925 12.2903 15.4911 12.2947 15.4896C12.4508 15.4374 12.7788 15.3277 13.1861 15.3766C13.4205 15.4101 13.5879 15.4771 13.705 15.5608C13.7553 15.5942 13.8055 15.6277 13.839 15.6612C13.8222 15.6779 13.8222 15.6779 13.8222 15.6947C14.7095 16.6322 16.0487 17.2348 17.5554 17.2348H17.7563C18.5431 17.2013 18.9281 18.256 18.3422 18.7917L18.3254 18.8084C17.6223 18.9591 17.0532 19.0261 16.6346 19.0595C16.236 19.091 15.8964 19.0896 15.579 19.0883C15.39 19.0875 15.2088 19.0868 15.0276 19.093C14.6425 19.093 14.2575 19.1265 13.772 19.2269C13.2531 19.3274 12.8178 19.4781 12.5499 19.5952C10.29 20.3988 8.68288 22.5416 8.68288 25.0694C8.68288 25.4042 8.71636 25.739 8.76658 26.0571C8.88376 26.7602 9.13487 27.4131 9.48642 28.0157C9.63709 28.2669 9.90494 28.4343 10.2063 28.4343H23.8833C24.1009 28.4343 24.3186 28.3506 24.4692 28.1832C25.1054 27.547 25.6913 26.8272 26.2102 26.0404ZM27.416 32H7.61189C7.44448 32 7.3273 31.8661 7.3273 31.7154V29.7065C7.3273 29.5559 7.46122 29.422 7.61189 29.422H27.416C27.5666 29.422 27.7006 29.5559 27.7006 29.7065V31.7154C27.7006 31.8661 27.5666 32 27.416 32Z" fill="white"/>
</svg>
