<svg width="35" height="35" viewBox="0 0 35 35" fill="none" xmlns="http://www.w3.org/2000/svg">
<path fill-rule="evenodd" clip-rule="evenodd" d="M31.1814 14.8834C31.1983 14.8834 31.2152 14.8667 31.2152 14.85C31.4349 14.6827 31.739 14.9002 31.6546 15.1846L31.6207 15.3352C31.6207 15.3352 31.6038 15.3687 31.6038 15.4021C31.6038 15.4021 31.6038 15.4523 31.587 15.5192L30.3871 20.3547L28.9675 26.0602L28.4774 28.0178C28.4436 28.1852 28.2915 28.3023 28.1394 28.3023H6.52473C6.37263 28.3023 6.22053 28.1852 6.18673 28.0178L5.69664 26.0602L4.27707 20.3547L3.07719 15.5192C3.06029 15.4523 3.06029 15.4021 3.06029 15.4021C3.06029 15.3687 3.04339 15.3352 3.04339 15.3352L3.00959 15.1846C2.94199 14.9002 3.24619 14.6827 3.46588 14.85C3.46588 14.8603 3.47234 14.8643 3.48126 14.8697C3.48677 14.8731 3.49323 14.877 3.49968 14.8834L8.1133 18.3636C8.19779 18.4138 8.29919 18.3636 8.31609 18.2465L8.87378 11.1857C8.90758 10.8846 9.26247 10.7842 9.41457 11.0351L13.1663 17.0084C13.2339 17.1088 13.3691 17.092 13.4029 16.9749L16.2589 8.44172C16.2758 8.39152 16.2589 8.34133 16.242 8.30786L15.0591 6.18293C14.9915 6.06581 14.9915 5.91523 15.0591 5.7981L17.0363 2.16732C17.1039 2.0502 17.2222 2 17.3236 2C17.4419 2 17.5433 2.0502 17.6109 2.16732L19.622 5.78137C19.6896 5.89849 19.6896 6.04908 19.622 6.1662L18.439 8.29113C18.4052 8.34133 18.4052 8.37479 18.4221 8.42499L21.2781 16.9582C21.3119 17.0753 21.4471 17.092 21.5147 16.9916L25.2496 11.0351C25.4017 10.7842 25.7735 10.8846 25.7904 11.1857L26.348 18.2465C26.348 18.3636 26.4663 18.4306 26.5508 18.3636L31.1814 14.8834ZM17.4757 24.5711L19.622 20.7061C19.6727 20.6392 19.6727 20.5388 19.622 20.4718L17.4926 16.6068C17.4588 16.5566 17.4081 16.5064 17.3405 16.5064C17.2729 16.5064 17.2222 16.5399 17.1884 16.6068L15.0253 20.4718C14.9915 20.5388 14.9915 20.6392 15.0253 20.7061L17.1715 24.5711C17.2053 24.6213 17.2729 24.6715 17.3236 24.6715C17.3912 24.6715 17.4419 24.638 17.4757 24.5711ZM6.50762 32H28.1561C28.3251 32 28.4603 31.8661 28.4603 31.6988V29.7245C28.4603 29.5572 28.3251 29.4233 28.1561 29.4233H6.50762C6.33863 29.4233 6.20343 29.5572 6.20343 29.7245V31.6988C6.20343 31.8661 6.33863 32 6.50762 32Z" fill="white"/>
</svg>
