<svg width="24" height="23" viewBox="0 0 24 23" fill="none" xmlns="http://www.w3.org/2000/svg">
<path fill-rule="evenodd" clip-rule="evenodd" d="M15.2325 10.7385H8.86308C8.2987 10.7385 7.73433 10.3331 7.6537 9.72501C7.6537 9.18449 8.13745 8.77909 8.78245 8.77909H9.50808C9.18558 8.30612 8.9437 7.69803 8.9437 6.88724C8.9437 5.60348 10.3143 4.04946 11.2012 3.23867C10.8787 3.10353 10.6368 2.7657 10.6368 2.36031C10.6368 1.75221 11.2012 1.27925 11.9268 1.27925C12.6525 1.27925 13.2168 1.75221 13.2168 2.36031C13.2168 2.69814 12.975 3.03597 12.6525 3.23867C12.975 3.50893 13.3781 3.91433 13.7006 4.31973C13.7812 4.38729 13.7812 4.52242 13.7006 4.58999L12.0075 6.00888C11.7656 6.27914 11.7656 6.61697 12.0075 6.81967C12.1687 6.88724 12.33 6.9548 12.4912 6.9548H12.4912C12.6525 6.9548 12.8137 6.9548 12.975 6.81967L14.4262 5.60348C14.5068 5.53591 14.6681 5.53591 14.6681 5.60348C14.91 6.07644 15.0712 6.54941 15.0712 6.9548C15.0712 7.7656 14.91 8.37369 14.5068 8.84665H15.2325C15.8775 8.84665 16.3612 9.25205 16.3612 9.79258C16.3612 10.3331 15.8775 10.7385 15.2325 10.7385ZM9.74992 11.8871H14.2649C14.8293 13.7114 15.6356 15.5357 16.2806 16.8194C16.6031 17.4951 16.7643 18.1708 16.7643 18.8464C16.7643 19.7248 15.8774 20.468 14.7487 20.468H9.18555C8.0568 20.468 7.16992 19.7248 7.16992 18.7789C7.16992 18.1032 7.33117 17.4275 7.65367 16.8194C8.3793 15.4681 9.26617 13.7114 9.74992 11.8871Z" fill="#818181"/>
</svg>
