<svg width="23" height="23" viewBox="0 0 23 23" fill="none" xmlns="http://www.w3.org/2000/svg">
<path fill-rule="evenodd" clip-rule="evenodd" d="M15.9491 3.77159L15.4104 7.21233C15.8144 7.3557 16.0837 7.71411 16.151 8.07252C16.151 8.64598 15.7471 9.07607 15.2084 9.07607H8.1389C7.60026 9.07607 7.19629 8.64598 7.19629 8.07252C7.19629 7.64243 7.46561 7.28402 7.86958 7.14065L7.33095 3.69991C7.26362 3.41318 7.46561 3.19814 7.73492 3.19814H9.01417C9.21616 3.19814 9.41815 3.3415 9.41815 3.55655L9.5528 5.06187C9.5528 5.27692 9.75479 5.42028 9.95678 5.42028H10.2934C10.4954 5.42028 10.6974 5.20523 10.6974 4.99019L10.6301 3.62823C10.6301 3.41318 10.8321 3.19814 11.034 3.19814H12.1786C12.3806 3.19814 12.5826 3.41318 12.5826 3.62823L12.5153 5.06187C12.5153 5.27692 12.7173 5.49196 12.9193 5.49196H13.2559C13.4579 5.49196 13.6599 5.3486 13.6599 5.13355L13.7945 3.62823C13.7945 3.41318 13.9965 3.26982 14.1985 3.26982H15.5451C15.8144 3.26982 16.0164 3.48486 15.9491 3.77159ZM9.88975 10.3664H13.4582C13.8622 12.3735 14.6028 14.5239 15.2761 15.9576C15.5454 16.6744 15.68 17.3912 15.68 18.108C15.68 19.0399 14.9394 19.8284 13.9968 19.8284H9.35111C8.40851 19.8284 7.66789 19.0399 7.66789 18.0363C7.66789 17.3195 7.80255 16.6027 8.07187 15.9576C8.67783 14.5239 9.48577 12.3735 9.88975 10.3664Z" fill="#818181"/>
</svg>
