<svg width="23" height="23" viewBox="0 0 23 23" fill="none" xmlns="http://www.w3.org/2000/svg">
<path d="M11.0962 1.40561C10.8968 1.40561 10.764 1.62052 10.764 1.83544L11.0962 3.2682C11.0962 3.2682 9.70078 3.33984 8.9034 4.98751C8.17247 6.63519 6.04613 7.27993 5.71389 8.28287C5.38165 9.2858 6.11258 10.7186 6.64416 10.8618C7.37509 11.1484 9.50143 9.57235 10.033 9.35744C10.5646 9.07088 10.6975 9.64399 7.84023 13.5841C5.91323 16.2347 6.64416 17.954 7.30864 18.742C7.64089 19.1002 8.10602 19.3151 8.57116 19.3151H13.5548C13.7541 19.3151 14.0199 19.2435 14.2193 19.1719C16.0134 18.1689 15.6811 16.0198 14.9502 14.0139C14.2193 12.008 16.2792 10.6469 16.4785 7.06502C16.8772 1.97871 12.4916 1.47725 11.0962 1.40561ZM10.9633 6.20536C10.6311 6.20536 10.2988 5.91881 10.2988 5.48898C10.2988 5.05915 10.5646 4.7726 10.9633 4.7726C11.2955 4.7726 11.6278 5.05915 11.6278 5.48898C11.6278 5.91881 11.362 6.20536 10.9633 6.20536Z" fill="#818181"/>
</svg>
