<svg width="23" height="23" viewBox="0 0 23 23" fill="none" xmlns="http://www.w3.org/2000/svg">
<path fill-rule="evenodd" clip-rule="evenodd" d="M15.6895 8.28891C15.6895 8.82992 15.238 9.23567 14.636 9.23567H8.31495C7.7882 9.23567 7.26145 8.82992 7.26145 8.28891C7.26145 7.74791 7.71295 7.34215 8.31495 7.34215H9.4437C8.91695 6.86877 8.5407 6.19251 8.5407 5.44863C8.5407 4.02849 9.81995 2.81123 11.4755 2.81123C13.0557 2.81123 14.4102 3.96087 14.4102 5.44863C14.4102 6.19251 14.034 6.86877 13.5072 7.34215H14.636C15.238 7.34215 15.6895 7.74791 15.6895 8.28891ZM13.8834 10.3853C14.3349 11.8731 15.0122 13.3608 15.5389 14.5105C15.8399 15.1867 15.9904 15.863 15.9904 16.5392C15.9904 17.4184 15.1627 18.1622 14.1092 18.1622H8.9169C7.8634 18.1622 7.03564 17.4184 7.03564 16.4716C7.03564 15.7953 7.18614 15.1191 7.48714 14.5105C8.08914 13.3608 8.7664 11.9407 9.2179 10.3853H13.8834Z" fill="#818181"/>
</svg>
